<svg width="30" height="30" viewBox="0 0 30 30" fill="none" xmlns="http://www.w3.org/2000/svg">
<rect width="30" height="30" rx="7" fill="#EA4335"/>
<path d="M24.2824 17.5117L23.6271 17.4805C23.5335 17.1373 23.4087 16.8253 23.2215 16.5445L23.6583 16.0452C23.7832 15.9204 23.752 15.7332 23.6583 15.6084L22.6599 14.61C22.5351 14.4852 22.3479 14.4852 22.2231 14.61L21.7239 15.0468C21.4431 14.8908 21.131 14.7348 20.7878 14.6412L20.7566 13.986C20.7566 13.83 20.6006 13.6739 20.4446 13.6739H19.0406C18.8846 13.6739 18.7285 13.7988 18.7285 13.986V14.6724C18.4789 14.7348 18.2293 14.8596 17.9797 14.9532V7.90172C17.9797 7.24649 17.4493 6.71607 16.7941 6.71607H15.0468V6.31045C15.0468 6.12324 14.922 5.99844 14.7348 5.99844H12.8003C12.6755 5.40562 12.1451 5 11.5211 5C10.897 5 10.3666 5.40562 10.2106 5.99844H8.24493C8.05772 5.99844 7.93292 6.12324 7.93292 6.31045V6.74727H6.18565C5.53042 6.74727 5 7.27769 5 7.93292V23.8144C5 24.4696 5.53042 25 6.18565 25H16.8253C17.4805 25 18.0109 24.4696 18.0109 23.8144V22.0671C18.2605 22.1919 18.5101 22.2855 18.7598 22.3479L18.791 23.0031C18.791 23.1591 18.947 23.3151 19.103 23.3151H20.507C20.663 23.3151 20.819 23.1903 20.819 23.0031L20.8502 22.3479C21.1934 22.2543 21.5055 22.1295 21.7863 21.9423L22.2855 22.3791C22.4103 22.5039 22.5975 22.4727 22.7223 22.3791L23.7207 21.4119C23.8456 21.2871 23.8456 21.0998 23.7207 20.975L23.2215 20.507C23.3775 20.2262 23.5335 19.883 23.6271 19.571L24.2824 19.5398C24.4384 19.5398 24.5944 19.3838 24.5944 19.2278V17.8237C24.5632 17.6677 24.4384 17.5117 24.2824 17.5117ZM8.55694 6.62246H10.4602C10.6162 6.62246 10.7722 6.49766 10.7722 6.34165C10.8034 5.93604 11.1154 5.62402 11.5211 5.62402C11.9267 5.62402 12.2387 5.93604 12.2699 6.31045C12.2699 6.46646 12.4259 6.59126 12.5819 6.59126H14.4852C14.4852 6.71607 14.4852 8.08892 14.4852 8.05772H8.55694V6.62246ZM16.8253 24.3448H6.18565C5.87364 24.3448 5.62402 24.0952 5.62402 23.7832V7.90172C5.62402 7.5897 5.87364 7.34009 6.18565 7.34009H7.93292V8.36973C7.93292 8.55694 8.05772 8.68175 8.24493 8.68175H14.766C14.9532 8.68175 15.078 8.55694 15.078 8.36973V7.3713H16.8253C17.1373 7.3713 17.3869 7.6209 17.3869 7.93292V14.6724L17.3245 14.61C17.1997 14.4852 17.0125 14.5164 16.8877 14.6412C16.8877 14.6412 16.8877 14.6412 16.8565 14.6724L15.8892 15.6084C15.7644 15.7332 15.7644 15.9204 15.8892 16.0452L16.3261 16.5445C16.17 16.8253 16.014 17.1685 15.9204 17.4805L15.2652 17.5117C15.1092 17.5117 14.9532 17.6677 14.9532 17.8237V19.2278C14.9532 19.3838 15.078 19.5398 15.2652 19.5398L15.9204 19.571C16.014 19.9142 16.1388 20.2262 16.3261 20.507L15.8892 21.0062C15.7644 21.131 15.7956 21.3183 15.8892 21.4431L16.8565 22.4103C16.9813 22.5351 17.1685 22.5351 17.2933 22.4103L17.3557 22.3479V23.7832C17.3869 24.0952 17.1373 24.3448 16.8253 24.3448ZM23.9392 18.9158L23.3463 18.947C23.1903 18.947 23.0967 19.0406 23.0655 19.1966C22.9719 19.6022 22.8159 20.0078 22.5663 20.351C22.4727 20.4758 22.5039 20.6318 22.5975 20.7254L23.0031 21.1622L22.4415 21.7239L22.0047 21.3183C21.9111 21.2246 21.7551 21.2246 21.6303 21.2871C21.2871 21.5367 20.8814 21.6927 20.4758 21.7863C20.351 21.8175 20.2262 21.9423 20.2262 22.0671L20.195 22.6599H19.415L19.3838 22.0671C19.3838 21.9111 19.2902 21.8175 19.1342 21.7863C18.7286 21.6927 18.3541 21.5367 18.0109 21.3183C17.8861 21.1934 17.7613 21.1934 17.6053 21.3183L17.5741 21.3495L17.5429 21.3807C17.5429 21.3807 17.5429 21.3807 17.5117 21.4119C17.4493 21.4743 17.3869 21.5055 17.3245 21.5991L17.1685 21.7239L16.6069 21.1622L17.0125 20.7254C17.1061 20.6318 17.1061 20.4758 17.0437 20.351C16.7941 20.0078 16.6381 19.6022 16.5445 19.1966C16.5133 19.0718 16.3885 18.947 16.2637 18.947L15.6708 18.9158V18.1045L16.2637 18.0733C16.4197 18.0733 16.5133 17.9797 16.5445 17.8237C16.6381 17.4181 16.7941 17.0125 17.0437 16.6693C17.1373 16.5445 17.1061 16.3885 17.0125 16.2949L16.6069 15.858L17.1685 15.2964L17.6053 15.702C17.6989 15.7956 17.8549 15.8268 17.9797 15.7332C18.3229 15.4836 18.7286 15.3276 19.1342 15.234C19.259 15.2028 19.3838 15.078 19.3838 14.9532L19.415 14.3604H20.195L20.2262 14.9532C20.2262 15.1092 20.3198 15.2028 20.4758 15.234C20.9126 15.3276 21.2871 15.4836 21.6303 15.7332C21.7551 15.8268 21.9111 15.7956 22.0047 15.702L22.4415 15.2964L23.0031 15.858L22.5975 16.2949C22.5039 16.3885 22.4727 16.5445 22.5663 16.6693C22.8159 17.0125 22.9719 17.4181 23.0655 17.8237C23.0967 17.9485 23.2215 18.0733 23.3463 18.0733L23.9392 18.1045V18.9158Z" fill="white"/>
<path d="M19.7892 16.1388C18.4788 16.1388 17.3867 17.1996 17.3867 18.5413C17.3867 19.8829 18.4476 20.9126 19.7892 20.9126C21.1309 20.9126 22.1917 19.8517 22.1917 18.5101C22.1917 17.1684 21.0997 16.1388 19.7892 16.1388ZM19.7892 20.2886C18.822 20.2886 18.0107 19.5085 18.0107 18.5101C18.0107 17.5428 18.7908 16.7316 19.7892 16.7316C20.7877 16.7316 21.5677 17.5116 21.5677 18.5101C21.5365 19.4773 20.7565 20.2886 19.7892 20.2886Z" fill="white"/>
<path d="M13.5181 7.02808H9.49316C9.30596 7.02808 9.18115 7.15288 9.18115 7.34009C9.18115 7.5273 9.30596 7.6521 9.49316 7.6521H13.5181C13.7053 7.6521 13.8301 7.5273 13.8301 7.34009C13.8301 7.18408 13.7053 7.02808 13.5181 7.02808Z" fill="white"/>
<path d="M9.49316 11.1466H16.2638C16.451 11.1466 16.5758 11.0218 16.5758 10.8346C16.5758 10.6474 16.451 10.5226 16.2638 10.5226H9.49316C9.30596 10.5226 9.18115 10.6474 9.18115 10.8346C9.18115 11.0218 9.33716 11.1466 9.49316 11.1466Z" fill="white"/>
<path d="M9.49316 14.0172H16.2638C16.451 14.0172 16.5758 13.8924 16.5758 13.7052C16.5758 13.518 16.451 13.3932 16.2638 13.3932H9.49316C9.30596 13.3932 9.18115 13.518 9.18115 13.7052C9.18115 13.8612 9.33716 14.0172 9.49316 14.0172Z" fill="white"/>
<path d="M14.6102 16.2324H9.49316C9.30596 16.2324 9.18115 16.3572 9.18115 16.5444C9.18115 16.7316 9.30596 16.8564 9.49316 16.8564H14.6102C14.7974 16.8564 14.9222 16.7316 14.9222 16.5444C14.9222 16.3884 14.7662 16.2324 14.6102 16.2324Z" fill="white"/>
<path d="M13.8613 19.103H9.49316C9.30596 19.103 9.18115 19.2278 9.18115 19.415C9.18115 19.6022 9.30596 19.7271 9.49316 19.7271H13.8613C14.0485 19.7271 14.1734 19.6022 14.1734 19.415C14.1734 19.2278 14.0173 19.103 13.8613 19.103Z" fill="white"/>
<path d="M12.8005 21.9423H9.49316C9.30596 21.9423 9.18115 22.0671 9.18115 22.2543C9.18115 22.4415 9.30596 22.5663 9.49316 22.5663H12.7693C12.9565 22.5663 13.0813 22.4415 13.0813 22.2543C13.1125 22.0983 12.9565 21.9423 12.8005 21.9423Z" fill="white"/>
<path d="M8.33873 9.71133L7.30909 10.7098L7.02828 10.2417C6.93467 10.0857 6.74747 10.0545 6.59146 10.1169C6.43545 10.2105 6.40425 10.3978 6.46666 10.5538L6.93467 11.365C7.09068 11.5522 7.30909 11.5834 7.4651 11.4274L8.77555 10.1169C8.90035 9.99214 8.90035 9.80493 8.77555 9.68013C8.65074 9.58652 8.46354 9.58652 8.33873 9.71133Z" fill="white"/>
<path d="M8.33873 12.5195L7.30909 13.5179L7.02828 13.0499C6.93467 12.8939 6.74747 12.8627 6.59146 12.9251C6.43545 13.0187 6.40425 13.2059 6.46666 13.3619L6.93467 14.1732C7.09068 14.3604 7.30909 14.3916 7.4651 14.2668L8.77555 12.9563C8.90035 12.8315 8.90035 12.6443 8.77555 12.5195C8.65074 12.3947 8.46354 12.3947 8.33873 12.5195Z" fill="white"/>
<path d="M8.33873 15.3276L7.30909 16.3573L7.02828 15.8892C6.93467 15.7332 6.74747 15.702 6.59146 15.7644C6.43545 15.858 6.40425 16.0452 6.46666 16.2012L6.93467 17.0125C7.02828 17.1997 7.27789 17.2309 7.43389 17.0749L8.74435 15.7644C8.86915 15.6396 8.86915 15.4524 8.74435 15.3276C8.65074 15.2028 8.46354 15.2028 8.33873 15.3276Z" fill="white"/>
<path d="M8.33873 18.1358L7.30909 19.1654L7.02828 18.6974C6.93467 18.5414 6.74747 18.5102 6.59146 18.5726C6.43545 18.6662 6.40425 18.8534 6.46666 19.0094L6.93467 19.8206C7.02828 20.0078 7.27789 20.039 7.43389 19.883L8.74435 18.5726C8.86915 18.4478 8.86915 18.2606 8.74435 18.1358C8.65074 18.0422 8.46354 18.0422 8.33873 18.1358Z" fill="white"/>
<path d="M8.33873 20.975L7.30909 21.9734L7.02828 21.5054C6.93467 21.3494 6.74747 21.3182 6.59146 21.3806C6.43545 21.4742 6.40425 21.6614 6.46666 21.8174L6.93467 22.6287C7.02828 22.8159 7.27789 22.8471 7.43389 22.6911L8.74435 21.3806C8.86915 21.2558 8.86915 21.0686 8.74435 20.9438C8.65074 20.8502 8.46354 20.8502 8.33873 20.975Z" fill="white"/>
</svg>
