<svg width="30" height="30" viewBox="0 0 30 30" fill="none" xmlns="http://www.w3.org/2000/svg">
<rect width="30" height="30" rx="7" fill="#029D4A"/>
<path d="M20.055 15.4542C19.8824 15.4542 19.7424 15.3144 19.7424 15.1417V7.78702C19.7424 7.47238 19.4786 7.20656 19.1663 7.20656H15.6841C15.5115 7.20656 15.3716 7.06679 15.3716 6.89405C15.3716 6.72132 15.5115 6.58154 15.6841 6.58154H19.1663C19.8287 6.58154 20.3675 7.12233 20.3675 7.78702V15.1417C20.3675 15.3144 20.2275 15.4542 20.055 15.4542Z" fill="white"/>
<path d="M16.1141 24H6.20548C5.54079 24 5 23.461 5 22.7988V7.78702C5 7.12233 5.54079 6.58154 6.20548 6.58154H10.074C10.2466 6.58154 10.3865 6.72132 10.3865 6.89405C10.3865 7.06679 10.2466 7.20656 10.074 7.20656H6.20548C5.88534 7.20656 5.62502 7.46688 5.62502 7.78702V22.7988C5.62502 23.1165 5.88534 23.375 6.20548 23.375H16.1141C16.2867 23.375 16.4266 23.5147 16.4266 23.6875C16.4266 23.8602 16.2867 24 16.1141 24Z" fill="white"/>
<path d="M18.2729 15.4542C18.1003 15.4542 17.9604 15.3144 17.9604 15.1417V9.12222C17.9604 9.04928 17.9015 8.99221 17.8264 8.99221H16.416C16.2434 8.99221 16.1035 8.85243 16.1035 8.6797C16.1035 8.50696 16.2434 8.36719 16.416 8.36719H17.8264C18.245 8.36719 18.5854 8.70594 18.5854 9.12222V15.1417C18.5854 15.3144 18.4455 15.4542 18.2729 15.4542Z" fill="white"/>
<path d="M14.6972 22.2183H7.54073C7.12217 22.2183 6.78174 21.8777 6.78174 21.4593V9.12222C6.78174 8.70594 7.12217 8.36719 7.54073 8.36719H9.3543C9.52688 8.36719 9.66681 8.50696 9.66681 8.6797C9.66681 8.85243 9.52688 8.99221 9.3543 8.99221H7.54073C7.4681 8.99221 7.40676 9.05172 7.40676 9.12222V21.4593C7.40676 21.5332 7.46688 21.5933 7.54073 21.5933H14.6972C14.8698 21.5933 15.0097 21.7331 15.0097 21.9058C15.0097 22.0785 14.8698 22.2183 14.6972 22.2183Z" fill="white"/>
<path d="M16.5887 12.6477H8.78028C8.6077 12.6477 8.46777 12.5079 8.46777 12.3352C8.46777 12.1625 8.6077 12.0227 8.78028 12.0227H16.5887C16.7613 12.0227 16.9013 12.1625 16.9013 12.3352C16.9013 12.5079 16.7613 12.6477 16.5887 12.6477Z" fill="white"/>
<path d="M16.5887 10.9711H8.78028C8.6077 10.9711 8.46777 10.8313 8.46777 10.6586C8.46777 10.4858 8.6077 10.3461 8.78028 10.3461H16.5887C16.7613 10.3461 16.9013 10.4858 16.9013 10.6586C16.9013 10.8313 16.7613 10.9711 16.5887 10.9711Z" fill="white"/>
<path d="M15.9202 9.29405H9.8655C9.44755 9.29405 9.10742 8.95407 9.10742 8.53597C9.10742 7.44768 9.87542 6.51625 10.9335 6.31269C11.002 6.29957 11.0499 6.24647 11.0499 6.1836V5.84515C11.0499 4.82766 11.8756 4 12.8906 4C13.9101 4 14.7358 4.82766 14.7358 5.84515V6.1839C14.7358 6.24677 14.7837 6.29987 14.8522 6.3133C15.2983 6.39937 15.7014 6.61452 16.0179 6.93558C16.4364 7.34849 16.6781 7.92956 16.6781 8.52712V8.53597C16.6781 8.95407 16.3382 9.29405 15.9202 9.29405ZM12.8951 4.62502C12.2203 4.62502 11.6749 5.17222 11.6749 5.84515V6.1836C11.6749 6.54463 11.4128 6.85714 11.0516 6.92673C10.2873 7.07352 9.73244 7.74676 9.73244 8.52712C9.73244 8.60799 9.79333 8.66903 9.8655 8.66903H15.9202C15.9922 8.66903 16.0531 8.60799 16.0531 8.53597V8.52712C16.0531 8.09558 15.8792 7.67656 15.576 7.37748C15.3454 7.14371 15.0552 6.98898 14.7334 6.92673C14.3725 6.85684 14.1108 6.54433 14.1108 6.1839V5.84515C14.1108 5.17222 13.5654 4.62502 12.8951 4.62502Z" fill="white"/>
<path d="M23.8458 24H15.5396C14.9028 24 14.3848 23.4821 14.3848 22.8452V15.9843C14.3848 15.3474 14.9028 14.8292 15.5396 14.8292H23.8458C24.4827 14.8292 25.0008 15.3474 25.0008 15.9843V22.8452C25.0008 23.4821 24.4827 24 23.8458 24ZM15.5396 15.4542C15.2475 15.4542 15.0098 15.692 15.0098 15.9843V22.8452C15.0098 23.1373 15.2475 23.375 15.5396 23.375H23.8458C24.138 23.375 24.3758 23.1373 24.3758 22.8452V15.9843C24.3758 15.692 24.138 15.4542 23.8458 15.4542H15.5396Z" fill="white"/>
<path d="M16.7398 19.0194H16.3818C16.2093 19.0194 16.0693 18.8797 16.0693 18.7069C16.0693 18.5342 16.2093 18.3944 16.3818 18.3944H16.7398C16.9124 18.3944 17.0523 18.5342 17.0523 18.7069C17.0523 18.8797 16.9124 19.0194 16.7398 19.0194Z" fill="white"/>
<path d="M18.8276 19.0194H18.4697C18.2972 19.0194 18.1572 18.8797 18.1572 18.7069C18.1572 18.5342 18.2972 18.3944 18.4697 18.3944H18.8276C19.0001 18.3944 19.1401 18.5342 19.1401 18.7069C19.1401 18.8797 19.0001 19.0194 18.8276 19.0194Z" fill="white"/>
<path d="M20.9155 19.0194H20.5576C20.385 19.0194 20.2451 18.8797 20.2451 18.7069C20.2451 18.5342 20.385 18.3944 20.5576 18.3944H20.9155C21.088 18.3944 21.228 18.5342 21.228 18.7069C21.228 18.8797 21.088 19.0194 20.9155 19.0194Z" fill="white"/>
<path d="M23.0033 19.0194H22.6455C22.4729 19.0194 22.333 18.8797 22.333 18.7069C22.333 18.5342 22.4729 18.3944 22.6455 18.3944H23.0033C23.1759 18.3944 23.3159 18.5342 23.3159 18.7069C23.3159 18.8797 23.1759 19.0194 23.0033 19.0194Z" fill="white"/>
<path d="M16.7398 20.6674H16.3818C16.2093 20.6674 16.0693 20.5276 16.0693 20.3549C16.0693 20.1821 16.2093 20.0424 16.3818 20.0424H16.7398C16.9124 20.0424 17.0523 20.1821 17.0523 20.3549C17.0523 20.5276 16.9124 20.6674 16.7398 20.6674Z" fill="white"/>
<path d="M18.8276 20.6674H18.4697C18.2972 20.6674 18.1572 20.5276 18.1572 20.3549C18.1572 20.1821 18.2972 20.0424 18.4697 20.0424H18.8276C19.0001 20.0424 19.1401 20.1821 19.1401 20.3549C19.1401 20.5276 19.0001 20.6674 18.8276 20.6674Z" fill="white"/>
<path d="M20.9155 20.6674H20.5576C20.385 20.6674 20.2451 20.5276 20.2451 20.3549C20.2451 20.1821 20.385 20.0424 20.5576 20.0424H20.9155C21.088 20.0424 21.228 20.1821 21.228 20.3549C21.228 20.5276 21.088 20.6674 20.9155 20.6674Z" fill="white"/>
<path d="M23.0033 20.6674H22.6455C22.4729 20.6674 22.333 20.5276 22.333 20.3549C22.333 20.1821 22.4729 20.0424 22.6455 20.0424H23.0033C23.1759 20.0424 23.3159 20.1821 23.3159 20.3549C23.3159 20.5276 23.1759 20.6674 23.0033 20.6674Z" fill="white"/>
<path d="M16.7398 22.3151H16.3818C16.2093 22.3151 16.0693 22.1753 16.0693 22.0026C16.0693 21.8298 16.2093 21.6901 16.3818 21.6901H16.7398C16.9124 21.6901 17.0523 21.8298 17.0523 22.0026C17.0523 22.1753 16.9124 22.3151 16.7398 22.3151Z" fill="white"/>
<path d="M18.8276 22.3151H18.4697C18.2972 22.3151 18.1572 22.1753 18.1572 22.0026C18.1572 21.8298 18.2972 21.6901 18.4697 21.6901H18.8276C19.0001 21.6901 19.1401 21.8298 19.1401 22.0026C19.1401 22.1753 19.0001 22.3151 18.8276 22.3151Z" fill="white"/>
<path d="M20.9155 22.3151H20.5576C20.385 22.3151 20.2451 22.1753 20.2451 22.0026C20.2451 21.8298 20.385 21.6901 20.5576 21.6901H20.9155C21.088 21.6901 21.228 21.8298 21.228 22.0026C21.228 22.1753 21.088 22.3151 20.9155 22.3151Z" fill="white"/>
<path d="M23.0033 22.3151H22.6455C22.4729 22.3151 22.333 22.1753 22.333 22.0026C22.333 21.8298 22.4729 21.6901 22.6455 21.6901H23.0033C23.1759 21.6901 23.3159 21.8298 23.3159 22.0026C23.3159 22.1753 23.1759 22.3151 23.0033 22.3151Z" fill="white"/>
<path d="M24.6883 17.3348H14.6973C14.5247 17.3348 14.3848 17.195 14.3848 17.0223V15.9843C14.3848 15.3474 14.9028 14.8292 15.5396 14.8292H23.8458C24.4827 14.8292 25.0008 15.3474 25.0008 15.9843V17.0223C25.0008 17.195 24.8609 17.3348 24.6883 17.3348ZM15.0098 16.7098H24.3758V15.9843C24.3758 15.692 24.138 15.4542 23.8458 15.4542H15.5396C15.2475 15.4542 15.0098 15.692 15.0098 15.9843V16.7098Z" fill="white"/>
<path d="M16.834 15.8671C16.6614 15.8671 16.5215 15.7273 16.5215 15.5546V14.7288C16.5215 14.556 16.6614 14.4163 16.834 14.4163C17.0066 14.4163 17.1465 14.556 17.1465 14.7288V15.5546C17.1465 15.7273 17.0066 15.8671 16.834 15.8671Z" fill="white"/>
<path d="M22.5513 15.8671C22.3787 15.8671 22.2388 15.7273 22.2388 15.5546V14.7288C22.2388 14.556 22.3787 14.4163 22.5513 14.4163C22.7239 14.4163 22.8638 14.556 22.8638 14.7288V15.5546C22.8638 15.7273 22.7239 15.8671 22.5513 15.8671Z" fill="white"/>
<path d="M9.25223 16.1063C9.18906 16.1063 9.12543 16.0871 9.07049 16.048L8.64629 15.7444C8.5059 15.6437 8.47355 15.4486 8.57411 15.3083C8.67452 15.1682 8.86984 15.1358 9.01007 15.2359L9.20172 15.3733L9.7744 14.7064C9.88702 14.5755 10.0843 14.5606 10.2151 14.6729C10.346 14.7855 10.3611 14.9826 10.2487 15.1136L9.48951 15.9974C9.42802 16.0691 9.34058 16.1063 9.25223 16.1063Z" fill="white"/>
<path d="M9.25223 19.7271C9.18906 19.7271 9.12543 19.7078 9.07049 19.6688L8.64629 19.3651C8.5059 19.2644 8.47355 19.0694 8.57411 18.929C8.67452 18.7889 8.86984 18.7563 9.01007 18.8567L9.20172 18.994L9.7744 18.3272C9.88702 18.1966 10.0843 18.1813 10.2151 18.2936C10.346 18.4062 10.3611 18.6034 10.2487 18.7343L9.48951 19.6181C9.42802 19.6898 9.34058 19.7271 9.25223 19.7271Z" fill="white"/>
<path d="M13.1051 15.9663H11.0737C10.9012 15.9663 10.7612 15.8266 10.7612 15.6538C10.7612 15.4811 10.9012 15.3413 11.0737 15.3413H13.1051C13.2776 15.3413 13.4176 15.4811 13.4176 15.6538C13.4176 15.8266 13.2776 15.9663 13.1051 15.9663Z" fill="white"/>
<path d="M13.1051 19.7271H11.0737C10.9012 19.7271 10.7612 19.5873 10.7612 19.4146C10.7612 19.2418 10.9012 19.1021 11.0737 19.1021H13.1051C13.2776 19.1021 13.4176 19.2418 13.4176 19.4146C13.4176 19.5873 13.2776 19.7271 13.1051 19.7271Z" fill="white"/>
<path d="M12.8926 6.02981C13.0769 6.02981 13.2262 5.88046 13.2262 5.69624C13.2262 5.51201 13.0769 5.36267 12.8926 5.36267C12.7084 5.36267 12.5591 5.51201 12.5591 5.69624C12.5591 5.88046 12.7084 6.02981 12.8926 6.02981Z" fill="white"/>
</svg>
