<svg width="11" height="6" viewBox="0 0 11 6" fill="none" xmlns="http://www.w3.org/2000/svg">
<path d="M0.0703707 0.630879C0.144332 0.444646 0.272537 0.284926 0.438363 0.172432C0.604189 0.0599376 0.799988 -0.000143262 1.00037 -2.09808e-05L9.48497 -2.09808e-05C9.68524 5.82779e-07 9.88088 0.0601519 10.0466 0.172643C10.2123 0.285133 10.3404 0.444781 10.4143 0.630908C10.4882 0.817035 10.5045 1.02107 10.4611 1.21658C10.4177 1.41209 10.3167 1.59008 10.171 1.72748L5.92827 5.72748C5.74271 5.90243 5.49731 5.99988 5.24227 5.99988C4.98723 5.99988 4.74184 5.90243 4.55627 5.72748L0.31457 1.72748C0.168589 1.59026 0.0672422 1.41232 0.023694 1.21676C-0.0198541 1.02121 -0.0035904 0.817074 0.0703707 0.630879Z" fill="white"/>
</svg>
