<svg width="11" height="7" viewBox="0 0 11 7" fill="none" xmlns="http://www.w3.org/2000/svg">
<path d="M0.0703707 1.131C0.144332 0.944767 0.272537 0.785048 0.438363 0.672554C0.604189 0.56006 0.799988 0.499979 1.00037 0.500101L9.48497 0.500101C9.68524 0.500123 9.88088 0.560274 10.0466 0.672765C10.2123 0.785255 10.3404 0.944903 10.4143 1.13103C10.4882 1.31716 10.5045 1.52119 10.4611 1.7167C10.4177 1.91221 10.3167 2.0902 10.171 2.2276L5.92827 6.2276C5.74271 6.40256 5.49731 6.5 5.24227 6.5C4.98723 6.5 4.74184 6.40256 4.55627 6.2276L0.31457 2.2276C0.16859 2.09038 0.0672426 1.91244 0.023694 1.71689C-0.0198545 1.52133 -0.00359058 1.3172 0.0703707 1.131Z" fill="black" fill-opacity="0.5"/>
</svg>
