<svg width="30" height="30" viewBox="0 0 30 30" fill="none" xmlns="http://www.w3.org/2000/svg">
<rect width="30" height="30" rx="7" fill="#FCB040"/>
<path d="M20.055 16.4542C19.8824 16.4542 19.7424 16.3144 19.7424 16.1417V8.78702C19.7424 8.47238 19.4786 8.20656 19.1663 8.20656H15.6841C15.5115 8.20656 15.3716 8.06679 15.3716 7.89405C15.3716 7.72132 15.5115 7.58154 15.6841 7.58154H19.1663C19.8287 7.58154 20.3675 8.12233 20.3675 8.78702V16.1417C20.3675 16.3144 20.2275 16.4542 20.055 16.4542Z" fill="white"/>
<path d="M16.1141 25H6.20548C5.54079 25 5 24.461 5 23.7988V8.78702C5 8.12233 5.54079 7.58154 6.20548 7.58154H10.074C10.2466 7.58154 10.3865 7.72132 10.3865 7.89405C10.3865 8.06679 10.2466 8.20656 10.074 8.20656H6.20548C5.88534 8.20656 5.62502 8.46688 5.62502 8.78702V23.7988C5.62502 24.1165 5.88534 24.375 6.20548 24.375H16.1141C16.2867 24.375 16.4266 24.5147 16.4266 24.6875C16.4266 24.8602 16.2867 25 16.1141 25Z" fill="white"/>
<path d="M18.2729 16.4542C18.1003 16.4542 17.9604 16.3144 17.9604 16.1417V10.1222C17.9604 10.0493 17.9015 9.99221 17.8264 9.99221H16.416C16.2434 9.99221 16.1035 9.85243 16.1035 9.6797C16.1035 9.50696 16.2434 9.36719 16.416 9.36719H17.8264C18.245 9.36719 18.5854 9.70594 18.5854 10.1222V16.1417C18.5854 16.3144 18.4455 16.4542 18.2729 16.4542Z" fill="white"/>
<path d="M14.6972 23.2183H7.54073C7.12217 23.2183 6.78174 22.8777 6.78174 22.4593V10.1222C6.78174 9.70594 7.12217 9.36719 7.54073 9.36719H9.3543C9.52688 9.36719 9.66681 9.50696 9.66681 9.6797C9.66681 9.85243 9.52688 9.99221 9.3543 9.99221H7.54073C7.4681 9.99221 7.40676 10.0517 7.40676 10.1222V22.4593C7.40676 22.5332 7.46688 22.5933 7.54073 22.5933H14.6972C14.8698 22.5933 15.0097 22.7331 15.0097 22.9058C15.0097 23.0785 14.8698 23.2183 14.6972 23.2183Z" fill="white"/>
<path d="M16.5887 13.6477H8.78028C8.6077 13.6477 8.46777 13.5079 8.46777 13.3352C8.46777 13.1625 8.6077 13.0227 8.78028 13.0227H16.5887C16.7613 13.0227 16.9013 13.1625 16.9013 13.3352C16.9013 13.5079 16.7613 13.6477 16.5887 13.6477Z" fill="white"/>
<path d="M16.5887 11.9711H8.78028C8.6077 11.9711 8.46777 11.8313 8.46777 11.6586C8.46777 11.4858 8.6077 11.3461 8.78028 11.3461H16.5887C16.7613 11.3461 16.9013 11.4858 16.9013 11.6586C16.9013 11.8313 16.7613 11.9711 16.5887 11.9711Z" fill="white"/>
<path d="M15.9202 10.294H9.8655C9.44755 10.294 9.10742 9.95407 9.10742 9.53597C9.10742 8.44768 9.87542 7.51625 10.9335 7.31269C11.002 7.29957 11.0499 7.24647 11.0499 7.1836V6.84515C11.0499 5.82766 11.8756 5 12.8906 5C13.9101 5 14.7358 5.82766 14.7358 6.84515V7.1839C14.7358 7.24677 14.7837 7.29987 14.8522 7.3133C15.2983 7.39937 15.7014 7.61452 16.0179 7.93558C16.4364 8.34849 16.6781 8.92956 16.6781 9.52712V9.53597C16.6781 9.95407 16.3382 10.294 15.9202 10.294ZM12.8951 5.62502C12.2203 5.62502 11.6749 6.17222 11.6749 6.84515V7.1836C11.6749 7.54463 11.4128 7.85714 11.0516 7.92673C10.2873 8.07352 9.73244 8.74676 9.73244 9.52712C9.73244 9.60799 9.79333 9.66903 9.8655 9.66903H15.9202C15.9922 9.66903 16.0531 9.60799 16.0531 9.53597V9.52712C16.0531 9.09558 15.8792 8.67656 15.576 8.37748C15.3454 8.14371 15.0552 7.98898 14.7334 7.92673C14.3725 7.85684 14.1108 7.54433 14.1108 7.1839V6.84515C14.1108 6.17222 13.5654 5.62502 12.8951 5.62502Z" fill="white"/>
<path d="M23.8458 25H15.5396C14.9028 25 14.3848 24.4821 14.3848 23.8452V16.9843C14.3848 16.3474 14.9028 15.8292 15.5396 15.8292H23.8458C24.4827 15.8292 25.0008 16.3474 25.0008 16.9843V23.8452C25.0008 24.4821 24.4827 25 23.8458 25ZM15.5396 16.4542C15.2475 16.4542 15.0098 16.692 15.0098 16.9843V23.8452C15.0098 24.1373 15.2475 24.375 15.5396 24.375H23.8458C24.138 24.375 24.3758 24.1373 24.3758 23.8452V16.9843C24.3758 16.692 24.138 16.4542 23.8458 16.4542H15.5396Z" fill="white"/>
<path d="M16.7398 20.0194H16.3818C16.2093 20.0194 16.0693 19.8797 16.0693 19.7069C16.0693 19.5342 16.2093 19.3944 16.3818 19.3944H16.7398C16.9124 19.3944 17.0523 19.5342 17.0523 19.7069C17.0523 19.8797 16.9124 20.0194 16.7398 20.0194Z" fill="white"/>
<path d="M18.8276 20.0194H18.4697C18.2972 20.0194 18.1572 19.8797 18.1572 19.7069C18.1572 19.5342 18.2972 19.3944 18.4697 19.3944H18.8276C19.0001 19.3944 19.1401 19.5342 19.1401 19.7069C19.1401 19.8797 19.0001 20.0194 18.8276 20.0194Z" fill="white"/>
<path d="M20.9155 20.0194H20.5576C20.385 20.0194 20.2451 19.8797 20.2451 19.7069C20.2451 19.5342 20.385 19.3944 20.5576 19.3944H20.9155C21.088 19.3944 21.228 19.5342 21.228 19.7069C21.228 19.8797 21.088 20.0194 20.9155 20.0194Z" fill="white"/>
<path d="M23.0033 20.0194H22.6455C22.4729 20.0194 22.333 19.8797 22.333 19.7069C22.333 19.5342 22.4729 19.3944 22.6455 19.3944H23.0033C23.1759 19.3944 23.3159 19.5342 23.3159 19.7069C23.3159 19.8797 23.1759 20.0194 23.0033 20.0194Z" fill="white"/>
<path d="M16.7398 21.6674H16.3818C16.2093 21.6674 16.0693 21.5276 16.0693 21.3549C16.0693 21.1821 16.2093 21.0424 16.3818 21.0424H16.7398C16.9124 21.0424 17.0523 21.1821 17.0523 21.3549C17.0523 21.5276 16.9124 21.6674 16.7398 21.6674Z" fill="white"/>
<path d="M18.8276 21.6674H18.4697C18.2972 21.6674 18.1572 21.5276 18.1572 21.3549C18.1572 21.1821 18.2972 21.0424 18.4697 21.0424H18.8276C19.0001 21.0424 19.1401 21.1821 19.1401 21.3549C19.1401 21.5276 19.0001 21.6674 18.8276 21.6674Z" fill="white"/>
<path d="M20.9155 21.6674H20.5576C20.385 21.6674 20.2451 21.5276 20.2451 21.3549C20.2451 21.1821 20.385 21.0424 20.5576 21.0424H20.9155C21.088 21.0424 21.228 21.1821 21.228 21.3549C21.228 21.5276 21.088 21.6674 20.9155 21.6674Z" fill="white"/>
<path d="M23.0033 21.6674H22.6455C22.4729 21.6674 22.333 21.5276 22.333 21.3549C22.333 21.1821 22.4729 21.0424 22.6455 21.0424H23.0033C23.1759 21.0424 23.3159 21.1821 23.3159 21.3549C23.3159 21.5276 23.1759 21.6674 23.0033 21.6674Z" fill="white"/>
<path d="M16.7398 23.3151H16.3818C16.2093 23.3151 16.0693 23.1753 16.0693 23.0026C16.0693 22.8298 16.2093 22.6901 16.3818 22.6901H16.7398C16.9124 22.6901 17.0523 22.8298 17.0523 23.0026C17.0523 23.1753 16.9124 23.3151 16.7398 23.3151Z" fill="white"/>
<path d="M18.8276 23.3151H18.4697C18.2972 23.3151 18.1572 23.1753 18.1572 23.0026C18.1572 22.8298 18.2972 22.6901 18.4697 22.6901H18.8276C19.0001 22.6901 19.1401 22.8298 19.1401 23.0026C19.1401 23.1753 19.0001 23.3151 18.8276 23.3151Z" fill="white"/>
<path d="M20.9155 23.3151H20.5576C20.385 23.3151 20.2451 23.1753 20.2451 23.0026C20.2451 22.8298 20.385 22.6901 20.5576 22.6901H20.9155C21.088 22.6901 21.228 22.8298 21.228 23.0026C21.228 23.1753 21.088 23.3151 20.9155 23.3151Z" fill="white"/>
<path d="M23.0033 23.3151H22.6455C22.4729 23.3151 22.333 23.1753 22.333 23.0026C22.333 22.8298 22.4729 22.6901 22.6455 22.6901H23.0033C23.1759 22.6901 23.3159 22.8298 23.3159 23.0026C23.3159 23.1753 23.1759 23.3151 23.0033 23.3151Z" fill="white"/>
<path d="M24.6883 18.3348H14.6973C14.5247 18.3348 14.3848 18.195 14.3848 18.0223V16.9843C14.3848 16.3474 14.9028 15.8292 15.5396 15.8292H23.8458C24.4827 15.8292 25.0008 16.3474 25.0008 16.9843V18.0223C25.0008 18.195 24.8609 18.3348 24.6883 18.3348ZM15.0098 17.7098H24.3758V16.9843C24.3758 16.692 24.138 16.4542 23.8458 16.4542H15.5396C15.2475 16.4542 15.0098 16.692 15.0098 16.9843V17.7098Z" fill="white"/>
<path d="M16.834 16.8671C16.6614 16.8671 16.5215 16.7273 16.5215 16.5546V15.7288C16.5215 15.556 16.6614 15.4163 16.834 15.4163C17.0066 15.4163 17.1465 15.556 17.1465 15.7288V16.5546C17.1465 16.7273 17.0066 16.8671 16.834 16.8671Z" fill="white"/>
<path d="M22.5513 16.8671C22.3787 16.8671 22.2388 16.7273 22.2388 16.5546V15.7288C22.2388 15.556 22.3787 15.4163 22.5513 15.4163C22.7239 15.4163 22.8638 15.556 22.8638 15.7288V16.5546C22.8638 16.7273 22.7239 16.8671 22.5513 16.8671Z" fill="white"/>
<path d="M9.25223 17.1063C9.18906 17.1063 9.12543 17.0871 9.07049 17.048L8.64629 16.7444C8.5059 16.6437 8.47355 16.4486 8.57411 16.3083C8.67452 16.1682 8.86984 16.1358 9.01007 16.2359L9.20172 16.3733L9.7744 15.7064C9.88702 15.5755 10.0843 15.5606 10.2151 15.6729C10.346 15.7855 10.3611 15.9826 10.2487 16.1136L9.48951 16.9974C9.42802 17.0691 9.34058 17.1063 9.25223 17.1063Z" fill="white"/>
<path d="M9.25223 20.7271C9.18906 20.7271 9.12543 20.7078 9.07049 20.6688L8.64629 20.3651C8.5059 20.2644 8.47355 20.0694 8.57411 19.929C8.67452 19.7889 8.86984 19.7563 9.01007 19.8567L9.20172 19.994L9.7744 19.3272C9.88702 19.1966 10.0843 19.1813 10.2151 19.2936C10.346 19.4062 10.3611 19.6034 10.2487 19.7343L9.48951 20.6181C9.42802 20.6898 9.34058 20.7271 9.25223 20.7271Z" fill="white"/>
<path d="M13.1051 16.9663H11.0737C10.9012 16.9663 10.7612 16.8266 10.7612 16.6538C10.7612 16.4811 10.9012 16.3413 11.0737 16.3413H13.1051C13.2776 16.3413 13.4176 16.4811 13.4176 16.6538C13.4176 16.8266 13.2776 16.9663 13.1051 16.9663Z" fill="white"/>
<path d="M13.1051 20.7271H11.0737C10.9012 20.7271 10.7612 20.5873 10.7612 20.4146C10.7612 20.2418 10.9012 20.1021 11.0737 20.1021H13.1051C13.2776 20.1021 13.4176 20.2418 13.4176 20.4146C13.4176 20.5873 13.2776 20.7271 13.1051 20.7271Z" fill="white"/>
<path d="M12.8926 7.02981C13.0769 7.02981 13.2262 6.88046 13.2262 6.69624C13.2262 6.51201 13.0769 6.36267 12.8926 6.36267C12.7084 6.36267 12.5591 6.51201 12.5591 6.69624C12.5591 6.88046 12.7084 7.02981 12.8926 7.02981Z" fill="white"/>
</svg>
