<svg width="30" height="30" viewBox="0 0 30 30" fill="none" xmlns="http://www.w3.org/2000/svg">
<rect width="30" height="30" rx="7" fill="#FD3995"/>
<path d="M20.3096 25H6.71679C6.54056 25 6.39795 24.8572 6.39795 24.6812C6.39795 24.5051 6.54056 24.3623 6.71679 24.3623C6.7635 24.3623 6.81051 24.3584 6.86095 24.3513C7.33112 24.2862 7.70694 23.9153 7.77544 23.4494C7.78821 23.3834 7.79101 23.334 7.79101 23.2879V9.52232C7.79101 9.371 7.85235 9.22278 7.95946 9.11583L11.9204 5.16767C12.0272 5.06103 12.1751 5 12.3261 5H21.5411C22.1678 5 22.6779 5.51002 22.6779 6.13681V14.2786C22.6779 14.4547 22.5353 14.5975 22.359 14.5975C22.1828 14.5975 22.0402 14.4547 22.0402 14.2786V6.13681C22.0402 5.86156 21.8163 5.63768 21.5411 5.63768H12.3519L8.4287 9.54848V23.2879C8.4287 23.386 8.42029 23.4748 8.40348 23.559C8.35957 23.8577 8.23285 24.1336 8.04696 24.3623H20.3096C21.2639 24.3623 22.0402 23.5859 22.0402 22.6316V22.3232C22.0402 22.1471 22.1828 22.0043 22.359 22.0043C22.5353 22.0043 22.6779 22.1471 22.6779 22.3232V22.6316C22.6779 23.9375 21.6155 25 20.3096 25Z" fill="white"/>
<path d="M11.7027 9.93928C11.6756 9.93928 11.6485 9.93819 11.6211 9.93616L8.67307 9.74343C8.44421 9.72832 8.2524 9.58572 8.17239 9.37103C8.09237 9.15649 8.14374 8.92297 8.30659 8.76183L11.6189 5.48234C11.7802 5.32277 12.0122 5.27248 12.2249 5.35266C12.4375 5.43237 12.5795 5.62246 12.596 5.84882L12.8062 8.74642C12.8302 9.06931 12.7125 9.38597 12.4833 9.61514C12.275 9.8236 11.9941 9.93928 11.7027 9.93928ZM8.85491 9.11617L11.6656 9.30004C11.8023 9.31109 11.9343 9.26236 12.0324 9.16428C12.1302 9.06635 12.1806 8.93106 12.1704 8.79313V8.7925L11.9702 6.03191L8.85491 9.11617Z" fill="white"/>
<path d="M6.71689 25.0001C6.59327 25.0001 6.46499 24.9843 6.33577 24.9535C6.02721 24.8875 5.73732 24.7287 5.50442 24.4958C5.17904 24.1703 5 23.7413 5 23.288V16.0641C5 15.888 5.14261 15.7452 5.31884 15.7452H8.10995C8.28619 15.7452 8.42879 15.888 8.42879 16.0641V23.288C8.42879 23.3861 8.42039 23.4748 8.40357 23.559C8.29677 24.2869 7.6977 24.8792 6.94917 24.9829C6.86852 24.9943 6.79286 25.0001 6.71689 25.0001ZM5.63768 16.3829V23.288C5.63768 23.5712 5.7504 23.8401 5.95528 24.0449C6.101 24.1907 6.28128 24.2898 6.47651 24.3315C6.62036 24.3658 6.73121 24.3697 6.86105 24.3513C7.33122 24.2862 7.70704 23.9154 7.77554 23.4494C7.78831 23.3834 7.79111 23.3341 7.79111 23.288V16.3829H5.63768Z" fill="white"/>
<path d="M20.7829 22.9393C18.2337 22.9393 16.1597 20.8653 16.1597 18.316C16.1597 15.7668 18.2337 13.6927 20.7829 13.6927C23.332 13.6927 25.4061 15.7668 25.4061 18.316C25.4061 20.8653 23.332 22.9393 20.7829 22.9393ZM20.7829 14.3304C18.5852 14.3304 16.7974 16.1183 16.7974 18.316C16.7974 20.5136 18.5852 22.3016 20.7829 22.3016C22.9805 22.3016 24.7684 20.5136 24.7684 18.316C24.7684 16.1183 22.9805 14.3304 20.7829 14.3304Z" fill="white"/>
<path d="M20.7827 15.3187C20.6065 15.3187 20.4639 15.176 20.4639 14.9999V14.0116C20.4639 13.8355 20.6065 13.6927 20.7827 13.6927C20.9589 13.6927 21.1016 13.8355 21.1016 14.0116V14.9999C21.1016 15.176 20.9589 15.3187 20.7827 15.3187Z" fill="white"/>
<path d="M20.7827 22.9393C20.6065 22.9393 20.4639 22.7966 20.4639 22.6205V21.6322C20.4639 21.4561 20.6065 21.3134 20.7827 21.3134C20.9589 21.3134 21.1016 21.4561 21.1016 21.6322V22.6205C21.1016 22.7966 20.9589 22.9393 20.7827 22.9393Z" fill="white"/>
<path d="M23.1274 16.29C23.0459 16.29 22.9643 16.2589 22.902 16.1966C22.7775 16.0722 22.7775 15.8703 22.902 15.7458L23.6007 15.0469C23.7253 14.9224 23.927 14.9224 24.0516 15.0469C24.1761 15.1713 24.1761 15.3732 24.0516 15.4978L23.3529 16.1966C23.2906 16.2589 23.209 16.29 23.1274 16.29Z" fill="white"/>
<path d="M17.7393 21.6786C17.6577 21.6786 17.5761 21.6475 17.5138 21.5852C17.3893 21.4608 17.3893 21.2589 17.5138 21.1343L18.2125 20.4355C18.3371 20.3109 18.5388 20.3109 18.6634 20.4355C18.7879 20.5598 18.7879 20.7618 18.6634 20.8863L17.9647 21.5852C17.9024 21.6475 17.8208 21.6786 17.7393 21.6786Z" fill="white"/>
<path d="M25.0869 18.6349H24.0986C23.9224 18.6349 23.7798 18.4921 23.7798 18.316C23.7798 18.14 23.9224 17.9972 24.0986 17.9972H25.0869C25.2631 17.9972 25.4058 18.14 25.4058 18.316C25.4058 18.4921 25.2631 18.6349 25.0869 18.6349Z" fill="white"/>
<path d="M17.4668 18.6349H16.4785C16.3023 18.6349 16.1597 18.4921 16.1597 18.316C16.1597 18.14 16.3023 17.9972 16.4785 17.9972H17.4668C17.643 17.9972 17.7856 18.14 17.7856 18.316C17.7856 18.4921 17.643 18.6349 17.4668 18.6349Z" fill="white"/>
<path d="M23.8261 21.6786C23.7446 21.6786 23.663 21.6475 23.6007 21.5852L22.902 20.8863C22.7775 20.7618 22.7775 20.5598 22.902 20.4355C23.0266 20.3109 23.2283 20.3109 23.3529 20.4355L24.0516 21.1343C24.1761 21.2589 24.1761 21.4608 24.0516 21.5852C23.9893 21.6475 23.9077 21.6786 23.8261 21.6786Z" fill="white"/>
<path d="M18.438 16.29C18.3564 16.29 18.2748 16.2589 18.2125 16.1966L17.5138 15.4978C17.3893 15.3732 17.3893 15.1713 17.5138 15.0469C17.6384 14.9224 17.8401 14.9224 17.9647 15.0469L18.6634 15.7458C18.7879 15.8703 18.7879 16.0722 18.6634 16.1966C18.6011 16.2589 18.5195 16.29 18.438 16.29Z" fill="white"/>
<path d="M20.7827 20.1965C20.6065 20.1965 20.4639 20.0537 20.4639 19.8777V18.316C20.4639 18.2315 20.4975 18.1503 20.5573 18.0906L21.6658 16.9821C21.7903 16.8575 21.9921 16.8575 22.1166 16.9821C22.2412 17.1066 22.2412 17.3084 22.1166 17.4329L21.1016 18.448V19.8777C21.1016 20.0537 20.9589 20.1965 20.7827 20.1965Z" fill="white"/>
<path d="M20.4186 7.60521H14.27C14.0938 7.60521 13.9512 7.46245 13.9512 7.28637C13.9512 7.11029 14.0938 6.96753 14.27 6.96753H20.4186C20.5948 6.96753 20.7375 7.11029 20.7375 7.28637C20.7375 7.46245 20.5948 7.60521 20.4186 7.60521Z" fill="white"/>
<path d="M20.4186 9.34154H14.27C14.0938 9.34154 13.9512 9.19878 13.9512 9.0227C13.9512 8.84662 14.0938 8.70386 14.27 8.70386H20.4186C20.5948 8.70386 20.7375 8.84662 20.7375 9.0227C20.7375 9.19878 20.5948 9.34154 20.4186 9.34154Z" fill="white"/>
<path d="M10.1943 18.6349C10.0181 18.6349 9.87549 18.4921 9.87549 18.3161V16.6136C9.87549 16.4376 10.0181 16.2948 10.1943 16.2948C10.3706 16.2948 10.5132 16.4376 10.5132 16.6136V18.3161C10.5132 18.4921 10.3706 18.6349 10.1943 18.6349Z" fill="white"/>
<path d="M11.7725 18.6348C11.5962 18.6348 11.4536 18.492 11.4536 18.3159V15.4652C11.4536 15.2891 11.5962 15.1464 11.7725 15.1464C11.9487 15.1464 12.0913 15.2891 12.0913 15.4652V18.3159C12.0913 18.492 11.9487 18.6348 11.7725 18.6348Z" fill="white"/>
<path d="M13.3511 18.6348C13.1748 18.6348 13.0322 18.492 13.0322 18.3159V15.8627C13.0322 15.6866 13.1748 15.5438 13.3511 15.5438C13.5273 15.5438 13.6699 15.6866 13.6699 15.8627V18.3159C13.6699 18.492 13.5273 18.6348 13.3511 18.6348Z" fill="white"/>
<path d="M14.9292 18.6348C14.753 18.6348 14.6104 18.4921 14.6104 18.316V14.9409C14.6104 14.7648 14.753 14.6221 14.9292 14.6221C15.1054 14.6221 15.248 14.7648 15.248 14.9409V18.316C15.248 18.4921 15.1054 18.6348 14.9292 18.6348Z" fill="white"/>
<path d="M9.49876 15.9037C9.4013 15.9037 9.30508 15.8592 9.2425 15.7748C9.13757 15.6334 9.16715 15.4337 9.30851 15.3288L11.5827 13.6415C11.673 13.5747 11.7923 13.5602 11.8947 13.603L13.2763 14.1761L14.5526 12.8999C14.6771 12.7754 14.8789 12.7754 15.0034 12.8999C15.128 13.0245 15.128 13.2262 15.0034 13.3508L13.5764 14.7776C13.4849 14.8689 13.3482 14.8963 13.229 14.8468L11.8175 14.2614L9.68838 15.841C9.6314 15.8833 9.56477 15.9037 9.49876 15.9037Z" fill="white"/>
</svg>
