<svg width="30" height="30" viewBox="0 0 30 30" fill="none" xmlns="http://www.w3.org/2000/svg">
<rect width="30" height="30" rx="7" fill="#0D99FF"/>
<path d="M14.3331 20.3333H10.6663C10.4821 20.3333 10.3329 20.1842 10.3329 20C10.3329 19.8158 10.4821 19.6667 10.6663 19.6667H14.3331C14.5172 19.6667 14.6664 19.8158 14.6664 20C14.6664 20.1842 14.5172 20.3333 14.3331 20.3333ZM10.6663 21.6667C10.4821 21.6667 10.3329 21.8158 10.3329 22C10.3329 22.1842 10.4821 22.3333 10.6663 22.3333H13.6662C13.8503 22.3333 13.9995 22.1842 13.9995 22C13.9995 21.8158 13.8503 21.6667 13.6662 21.6667H10.6663ZM16.3328 17.9999C16.3328 17.9116 16.2978 17.8266 16.2353 17.764C16.1728 17.7015 16.0878 17.6665 15.9995 17.6665H10.6662C10.482 17.6665 10.3328 17.8157 10.3328 17.9999C10.3328 18.184 10.482 18.3332 10.6662 18.3332H15.9995C16.0878 18.3332 16.1728 18.2982 16.2353 18.2357C16.2979 18.1732 16.3328 18.0882 16.3328 17.9999ZM10.6663 16.3332H12.6663C12.8504 16.3332 12.9996 16.184 12.9996 15.9999C12.9996 15.8157 12.8504 15.6665 12.6663 15.6665H10.6663C10.4821 15.6665 10.3329 15.8157 10.3329 15.9999C10.3329 16.184 10.4821 16.3332 10.6663 16.3332ZM18.3331 15.9999C18.3331 15.9116 18.2981 15.8265 18.2356 15.764C18.1731 15.7015 18.0881 15.6665 17.9997 15.6665H13.9997C13.8155 15.6665 13.6664 15.8157 13.6664 15.9999C13.6664 16.184 13.8155 16.3332 13.9997 16.3332H17.9997C18.0881 16.3332 18.1731 16.2982 18.2356 16.2357C18.2981 16.1732 18.3331 16.0882 18.3331 15.9999ZM20.3331 13.9999C20.3331 13.9115 20.2981 13.8265 20.2356 13.764C20.1731 13.7015 20.0881 13.6665 19.9997 13.6665H14.3332C14.149 13.6665 13.9998 13.8157 13.9998 13.9999C13.9998 14.184 14.149 14.3332 14.3332 14.3332H19.9997C20.0881 14.3332 20.1731 14.2982 20.2356 14.2357C20.2981 14.1732 20.3331 14.0882 20.3331 13.9999ZM14.6665 11.9999C14.6665 12.0882 14.7015 12.1732 14.764 12.2357C14.8265 12.2982 14.9115 12.3332 14.9998 12.3332H16.6665C16.8507 12.3332 16.9998 12.1841 16.9998 11.9999C16.9998 11.8157 16.8507 11.6666 16.6665 11.6666H14.9998C14.8157 11.6666 14.6665 11.8157 14.6665 11.9999ZM19.9998 11.6665H17.9998C17.8157 11.6665 17.6665 11.8157 17.6665 11.9999C17.6665 12.184 17.8157 12.3332 17.9998 12.3332H19.9998C20.184 12.3332 20.3332 12.184 20.3332 11.9999C20.3332 11.8157 20.184 11.6665 19.9998 11.6665ZM17.3332 10.3332C17.5173 10.3332 17.6665 10.184 17.6665 9.99988C17.6665 9.81571 17.5173 9.66654 17.3332 9.66654H15.9998C15.8157 9.66654 15.6665 9.81571 15.6665 9.99988C15.6665 10.184 15.8157 10.3332 15.9998 10.3332H17.3332ZM14.6665 7.33331C14.6665 7.14915 14.8157 6.99998 14.9998 6.99998H18.4473C18.8898 6.99915 19.314 7.17415 19.6265 7.48832L21.5123 9.37415H21.5115C21.8248 9.68581 22.0006 10.11 21.9998 10.5525V12.6667C21.9998 12.8508 21.8506 13 21.6665 13C21.4823 13 21.3331 12.8508 21.3331 12.6667V10.5525C21.3323 10.4783 21.3231 10.405 21.3065 10.3333H19.6665C19.1148 10.3325 18.6673 9.88497 18.6665 9.33332V7.69248C18.5948 7.67581 18.5215 7.66748 18.4473 7.66665H14.9998C14.8157 7.66665 14.6665 7.51748 14.6665 7.33331ZM19.3332 8.13747V9.33332C19.3332 9.51748 19.4823 9.66665 19.6665 9.66665H20.8615L19.3332 8.13747ZM21.6666 20.3333C21.4824 20.3333 21.3333 20.4825 21.3333 20.6667V23.3333C21.3324 23.885 20.8849 24.3325 20.3333 24.3333H10.3333C9.7816 24.3325 9.33409 23.885 9.33326 23.3333V16C9.33326 15.8158 9.1841 15.6667 8.99993 15.6667C8.81576 15.6667 8.6666 15.8158 8.6666 16V23.3333C8.66743 24.2533 9.41326 24.9992 10.3333 25H20.3333C21.2533 24.9992 21.9991 24.2533 21.9999 23.3333V20.6667C21.9999 20.5783 21.9649 20.4933 21.9024 20.4308C21.8399 20.3683 21.755 20.3333 21.6666 20.3333ZM24.4884 16.3167L17.9026 22.9025C17.8601 22.945 17.8059 22.9758 17.7476 22.99L15.0809 23.6567C14.9675 23.685 14.8467 23.6517 14.7642 23.5692C14.6817 23.4858 14.6484 23.3658 14.6767 23.2525L15.3434 20.5858C15.3584 20.5275 15.3884 20.4733 15.4309 20.4308L22.0167 13.845C22.6992 13.1625 23.8059 13.1625 24.4884 13.845C25.1709 14.5275 25.1709 15.6342 24.4884 16.3167ZM17.6666 22.1951L23.1949 16.6668L22.6666 16.1384L17.1383 21.6667L17.6666 22.1951ZM22.195 15.6667L21.6667 15.1383L16.1384 20.6666L16.6667 21.195L22.195 15.6667ZM15.4584 22.875L17.0151 22.4858L15.8476 21.3183L15.4584 22.875ZM24.0167 14.3167C23.5892 13.9083 22.9158 13.9083 22.4884 14.3167L22.1384 14.6667L23.6667 16.195L24.0167 15.845C24.4384 15.4225 24.4384 14.7392 24.0167 14.3167ZM8.73668 13.7925C8.55668 13.7334 8.38 13.6609 8.21 13.5759L7.55334 13.9409C7.29249 14.0842 6.96833 14.0384 6.75749 13.8292L6.17083 13.2417C5.96166 13.0309 5.91583 12.7075 6.05916 12.4467L6.42415 11.79C6.33999 11.6192 6.26665 11.4433 6.20749 11.2633L5.48416 11.0567L5.48333 11.0558C5.19834 10.9733 5.00083 10.7125 5 10.415V9.58501C5.00083 9.28751 5.19833 9.02667 5.48333 8.94417L6.20666 8.73751L6.20749 8.73667C6.26666 8.55667 6.33999 8.38083 6.42415 8.21L6.05916 7.55333C5.91583 7.29332 5.96166 6.96916 6.17083 6.75833L6.75833 6.17083C6.96916 5.96082 7.29332 5.91583 7.55334 6.05916L8.21 6.42415C8.38 6.33915 8.55666 6.26665 8.73668 6.20749L8.94334 5.48333C9.02584 5.1975 9.28751 5.00083 9.58501 5H10.4158H10.415C10.7125 5.00083 10.9742 5.19833 11.0567 5.48416L11.2633 6.20749C11.4433 6.26666 11.6192 6.33916 11.79 6.42415L12.4475 6.05916H12.4467C12.7075 5.91582 13.0317 5.96082 13.2425 6.17083L13.8292 6.75749V6.75833C14.0383 6.96916 14.0842 7.29249 13.94 7.55334L13.575 8.21H13.5759C13.66 8.38 13.7325 8.55666 13.7925 8.73668L14.5158 8.94334C14.8017 9.02584 14.9992 9.28751 15 9.58501V10.415C14.9992 10.7125 14.8017 10.9733 14.5167 11.0558L13.7933 11.2625L13.7925 11.2633C13.7333 11.4433 13.66 11.6192 13.5759 11.79L13.9408 12.4467C14.0842 12.7067 14.0383 13.0308 13.8292 13.2417L13.2417 13.8292C13.0308 14.0384 12.7067 14.0842 12.4467 13.94L11.79 13.575V13.5759C11.62 13.66 11.4433 13.7325 11.2633 13.7925L11.0567 14.5167C10.9742 14.8025 10.7125 14.9992 10.415 15H9.585C9.28751 14.9992 9.02583 14.8017 8.94334 14.5158L8.73668 13.7925ZM8.37 12.9059C8.59999 13.0342 8.84418 13.135 9.09834 13.2059C9.20917 13.2375 9.29667 13.3242 9.32834 13.4358L9.585 14.3333H10.415L10.6708 13.435H10.6717C10.7033 13.3242 10.7908 13.2375 10.9017 13.2059C11.1558 13.135 11.4 13.0342 11.63 12.9059C11.7308 12.8492 11.8542 12.8484 11.955 12.905L12.77 13.3575L13.3575 12.77L12.905 11.955V11.9559C12.8483 11.8542 12.8491 11.7317 12.9058 11.63C13.0341 11.4 13.135 11.1559 13.2058 10.9017C13.2375 10.7909 13.3241 10.7034 13.4358 10.6717L14.3333 10.415V9.58505L13.4358 9.32839C13.3241 9.29672 13.2375 9.20922 13.2058 9.09839C13.135 8.84423 13.0341 8.59923 12.9058 8.36922C12.8491 8.26838 12.8483 8.14588 12.905 8.04423L13.3575 7.22923L12.7708 6.64256L11.955 7.09506C11.8542 7.15173 11.7308 7.1509 11.63 7.09423C11.4 6.9659 11.1558 6.86507 10.9017 6.79424C10.7908 6.76257 10.7033 6.67591 10.6717 6.56508L10.415 5.66675H9.585L9.32917 6.56508H9.32834C9.29667 6.67591 9.20917 6.76258 9.09834 6.79424C8.84418 6.86507 8.60002 6.96591 8.37 7.09423C8.26916 7.15089 8.14583 7.15173 8.04501 7.09506L7.22918 6.64256L6.64251 7.22923L7.09501 8.04423C7.15168 8.14589 7.15084 8.2684 7.09418 8.37005C6.96584 8.60005 6.86501 8.84423 6.79419 9.09839C6.76252 9.20923 6.67585 9.29673 6.56419 9.32839L5.6667 9.58505V10.415L6.56419 10.6717C6.67586 10.7034 6.76253 10.7909 6.79419 10.9017C6.86502 11.1559 6.96586 11.4009 7.09418 11.6309C7.15084 11.7317 7.15168 11.8542 7.09501 11.9559L6.64251 12.7709L7.23001 13.3575L8.04501 12.905C8.14584 12.8484 8.26918 12.8492 8.37 12.9059ZM9.99999 12.3334C9.05665 12.3334 8.20582 11.765 7.84426 10.8934C7.48343 10.0209 7.68259 9.01752 8.35009 8.35C9.0176 7.68248 10.0209 7.48333 10.8935 7.84416C11.7651 8.20583 12.3335 9.05666 12.3335 9.9999C12.3318 11.2882 11.2884 12.3317 9.99999 12.3334ZM9.99999 11.6667C10.6742 11.6667 11.2817 11.2609 11.54 10.6375C11.7975 10.015 11.655 9.29837 11.1783 8.8217C10.7017 8.34503 9.985 8.20254 9.36251 8.46003C8.73917 8.71836 8.33335 9.32587 8.33335 10C8.33418 10.92 9.07999 11.6659 9.99999 11.6667Z" fill="white"/>
</svg>
