<svg width="25" height="25" viewBox="0 0 25 25" fill="none" xmlns="http://www.w3.org/2000/svg">
<rect width="25" height="25" rx="5" fill="#EA4335" fill-opacity="0.05"/>
<path d="M12.735 7.01522C12.8689 7.01576 13.0011 6.98624 13.122 6.92884C13.2429 6.87144 13.3493 6.78762 13.4335 6.68358C13.548 6.53369 13.629 6.36099 13.6711 6.17714C13.7132 5.99328 13.7154 5.80254 13.6775 5.61777C13.6184 5.35412 13.5043 5.10592 13.3427 4.88937C13.2004 4.70063 13.0991 4.48429 13.0451 4.25416L13.044 4.24877C13.0285 4.17764 12.9889 4.11405 12.9319 4.06874C12.8749 4.02342 12.804 3.99915 12.7313 4.00002C12.6585 4.0009 12.5882 4.02686 12.5323 4.07354C12.4765 4.12021 12.4384 4.18473 12.4246 4.25621C12.3701 4.48529 12.2687 4.70061 12.127 4.88863C11.9647 5.10497 11.8505 5.35351 11.7922 5.61758C11.7543 5.80231 11.7564 5.99302 11.7985 6.17685C11.8406 6.36067 11.9216 6.53334 12.036 6.68321C12.1203 6.78731 12.2268 6.87118 12.3478 6.92864C12.4688 6.98611 12.6011 7.01569 12.735 7.01522ZM12.34 5.72156C12.3866 5.53084 12.4727 5.35198 12.5925 5.19647C12.639 5.12616 12.6878 5.05268 12.7347 4.97326C12.7817 5.05343 12.8303 5.12709 12.877 5.19758C12.9966 5.35305 13.0825 5.53176 13.1292 5.7223C13.1518 5.82643 13.1524 5.93416 13.1308 6.03852C13.1092 6.14287 13.0659 6.24153 13.0038 6.32812C12.9716 6.36875 12.9306 6.40157 12.8839 6.42413C12.8372 6.4467 12.786 6.45841 12.7341 6.45841C12.6822 6.45841 12.631 6.4467 12.5843 6.42413C12.5376 6.40157 12.4966 6.36875 12.4644 6.32812C12.4023 6.24139 12.3591 6.14257 12.3377 6.03807C12.3162 5.93357 12.317 5.82574 12.34 5.72156ZM19.8218 20.1444H19.2255V15.2402C19.225 15.0367 19.1438 14.8416 18.9998 14.6978C18.8558 14.554 18.6606 14.473 18.4571 14.4727H17.8889V13.0721C17.8889 12.8896 17.8164 12.7145 17.6873 12.5855C17.5582 12.4564 17.3832 12.3839 17.2006 12.3839H16.5199V11.1938C16.5197 11.025 16.4525 10.8631 16.3331 10.7437C16.2137 10.6243 16.0518 10.5571 15.883 10.557H13.6636V7.63202C13.6634 7.52422 13.6205 7.42089 13.5443 7.34467C13.4681 7.26844 13.3648 7.22556 13.257 7.22541H12.212C12.1043 7.22571 12.0012 7.26868 11.9252 7.3449C11.8492 7.42112 11.8065 7.52437 11.8065 7.63202V10.557H9.58633C9.41761 10.5573 9.25591 10.6245 9.1367 10.7439C9.01748 10.8633 8.95048 11.0251 8.95038 11.1938V12.383H8.2696C8.08699 12.383 7.91185 12.4555 7.78261 12.5845C7.65338 12.7136 7.58061 12.8886 7.58027 13.0712V14.4727H7.01295C6.80927 14.473 6.61402 14.5541 6.47001 14.6981C6.326 14.8422 6.24499 15.0374 6.24475 15.2411V20.1444H5.64674C5.47513 20.1448 5.31066 20.2132 5.18941 20.3346C5.06817 20.4561 5.00005 20.6207 5 20.7923V21.2095C5.0001 21.3811 5.06824 21.5456 5.18948 21.667C5.31072 21.7884 5.47516 21.8568 5.64674 21.8571H19.8218C19.9936 21.857 20.1582 21.7887 20.2797 21.6673C20.4012 21.5459 20.4695 21.3812 20.4697 21.2095V20.7923C20.4695 20.6205 20.4012 20.4558 20.2798 20.3343C20.1583 20.2129 19.9936 20.1446 19.8218 20.1444ZM12.3645 7.78343H13.1056V10.557H12.3645V7.78343ZM9.5084 11.1938C9.50858 11.1731 9.51683 11.1533 9.53138 11.1386C9.54593 11.1239 9.56564 11.1154 9.58633 11.115H15.8828C15.9036 11.1153 15.9235 11.1237 15.9382 11.1384C15.9529 11.1532 15.9613 11.173 15.9617 11.1938V12.383H9.5084V11.1938ZM8.2696 12.941H17.2005C17.235 12.941 17.2681 12.9547 17.2925 12.9791C17.3169 13.0035 17.3307 13.0367 17.3307 13.0712V13.5001H8.13828V13.0712C8.13891 13.0367 8.15298 13.0037 8.1775 12.9794C8.20203 12.9551 8.23507 12.9413 8.2696 12.941ZM8.13828 14.0581H17.3308V14.4727H8.13828V14.0581ZM7.01295 15.0308H18.4571C18.5127 15.0315 18.5658 15.0539 18.6051 15.0932C18.6444 15.1325 18.6668 15.1856 18.6675 15.2411V16.1248C18.3188 16.2052 18.0085 16.4035 17.7892 16.6862C17.5487 16.9466 17.3586 17.1512 16.8753 17.1512C16.3921 17.1512 16.2022 16.9466 15.9618 16.6862C15.7215 16.4258 15.4174 16.0973 14.8051 16.0973C14.1928 16.0973 13.8909 16.4245 13.6483 16.6862C13.4058 16.9479 13.2186 17.1512 12.735 17.1512C12.2514 17.1512 12.0617 16.9466 11.821 16.6862C11.5803 16.4258 11.2762 16.0975 10.6639 16.0975C10.0515 16.0975 9.75039 16.4239 9.50765 16.686C9.26491 16.9481 9.07723 17.151 8.59381 17.151C8.11038 17.151 7.92028 16.9464 7.67978 16.686C7.4611 16.4029 7.15126 16.2041 6.80276 16.1233V15.2402C6.80306 15.1846 6.82532 15.1314 6.8647 15.0922C6.90407 15.0529 6.95736 15.0308 7.01295 15.0308ZM6.80276 16.7C6.98716 16.7801 7.14805 16.906 7.27019 17.0656C7.53581 17.3527 7.86541 17.71 8.59381 17.71C9.3222 17.71 9.65181 17.3527 9.91742 17.0656C10.1373 16.8279 10.2961 16.6564 10.6639 16.6564C11.0316 16.6564 11.1914 16.8283 11.4116 17.0656C11.6772 17.3528 12.0077 17.7092 12.735 17.7092C13.4623 17.7092 13.7927 17.3521 14.0581 17.0651C14.2779 16.8272 14.4368 16.6559 14.8051 16.6559C15.1734 16.6559 15.3324 16.8277 15.5523 17.0651C15.8177 17.3521 16.1475 17.7092 16.8753 17.7092C17.6032 17.7092 17.9331 17.3521 18.1987 17.0651C18.3211 16.9048 18.4825 16.7785 18.6675 16.6983V20.1444H6.80276V16.7ZM19.912 21.2095C19.9117 21.2332 19.9021 21.2559 19.8852 21.2727C19.8683 21.2894 19.8456 21.2989 19.8218 21.2991H5.64674C5.6232 21.2986 5.60077 21.289 5.58421 21.2723C5.56765 21.2555 5.55825 21.233 5.55802 21.2095V20.7923C5.5582 20.7687 5.56758 20.7461 5.58415 20.7293C5.60071 20.7126 5.62317 20.7029 5.64674 20.7024H19.8218C19.8456 20.7027 19.8682 20.7123 19.885 20.7291C19.9018 20.7458 19.9114 20.7685 19.9117 20.7923L19.912 21.2095Z" fill="#EA4335"/>
</svg>
