<svg width="20" height="24" viewBox="0 0 20 24" fill="none" xmlns="http://www.w3.org/2000/svg">
<path d="M14.6481 9.7297C14.6502 10.9814 14.155 12.1821 13.2718 13.0686C12.3885 13.954 11.1889 14.4536 9.93703 14.4547C8.68642 14.4558 7.48567 13.9605 6.60035 13.0762C5.71387 12.1918 5.21644 10.9922 5.21536 9.74143C5.21427 8.48974 5.71063 7.28899 6.59602 6.40476C7.48034 5.51936 8.68001 5.02192 9.93159 5.02192C11.18 5.02409 12.3775 5.52044 13.2619 6.40259C14.1451 7.28474 14.6437 8.48131 14.6481 9.7297ZM19.2171 11.3596C18.9353 11.8538 18.7869 12.4119 18.7836 12.9809C18.7869 14.1404 18.168 15.2133 17.1624 15.7899C16.6725 16.0803 16.265 16.4878 15.9746 16.9776C15.3959 17.979 14.3306 18.5999 13.1742 18.6075C12.6031 18.6043 12.0407 18.7506 11.5443 19.0323C10.5451 19.6132 9.30967 19.6132 8.31056 19.0323C7.8142 18.7506 7.25176 18.6042 6.68064 18.6075C5.52214 18.5999 4.45361 17.9801 3.87164 16.9776C3.58444 16.4867 3.17481 16.077 2.6839 15.7899C1.67821 15.2133 1.0594 14.1404 1.06264 12.9809C1.06264 12.413 0.91634 11.8549 0.637837 11.3596C0.05695 10.3539 0.05695 9.11413 0.637837 8.10838C0.916351 7.61311 1.06264 7.055 1.06264 6.48713C1.05939 5.32754 1.67821 4.25466 2.6839 3.67813C3.17698 3.39312 3.58664 2.98346 3.87164 2.49038C4.45361 1.48794 5.52214 0.868044 6.68064 0.86047C7.25176 0.864805 7.8142 0.718502 8.31056 0.435665C9.30975 -0.145222 10.5452 -0.145222 11.5443 0.435665C12.0407 0.718508 12.6031 0.864825 13.1742 0.86047C14.3306 0.868056 15.3958 1.48902 15.9746 2.49038C16.2596 2.98346 16.6693 3.39312 17.1624 3.67813C18.168 4.25466 18.7869 5.32754 18.7836 6.48713C18.7869 7.05608 18.9353 7.61419 19.2171 8.10838C19.798 9.11407 19.798 10.3539 19.2171 11.3596ZM16.382 9.7297C15.8824 0.854088 3.52804 1.52825 3.52471 9.7297C3.48136 11.4463 4.14028 13.1066 5.34969 14.3267C6.55913 15.5459 8.2139 16.2178 9.93176 16.1886C11.643 16.1853 13.2837 15.5036 14.4922 14.2931C15.7016 13.0815 16.3809 11.4409 16.382 9.7297ZM2.3717 17.8532C2.33594 17.7892 2.29584 17.7286 2.25033 17.6711L0.0568946 21.3643C-0.0135482 21.4813 -0.0189663 21.6255 0.0428065 21.7479C0.104579 21.8693 0.224871 21.9506 0.360327 21.9625L2.17229 22.1532C2.28825 22.1673 2.39229 22.2302 2.45838 22.3266L3.49875 23.8265C3.57461 23.9381 3.70249 24.0031 3.83688 23.9999C3.97235 23.9966 4.09589 23.924 4.16633 23.8091L6.23842 20.324C4.62693 20.1723 3.1868 19.2522 2.3717 17.8532ZM19.8066 21.3644L17.6045 17.6623C16.7971 19.1503 15.3092 20.1451 13.625 20.3239L15.6971 23.809C15.7676 23.9239 15.8911 23.9965 16.0266 23.9998C16.161 24.003 16.2888 23.938 16.3647 23.8264L17.4051 22.3265C17.4712 22.2301 17.5752 22.1672 17.6912 22.1531L19.5031 21.9624C19.6386 21.9505 19.7589 21.8692 19.8207 21.7478C19.8824 21.6254 19.8771 21.4814 19.8066 21.3644Z" fill="#0D99FF"/>
</svg>
