<svg width="35" height="35" viewBox="0 0 35 35" fill="none" xmlns="http://www.w3.org/2000/svg">
<circle cx="17.5" cy="17.5" r="17" fill="#FCB040" fill-opacity="0.05" stroke="#FCB040"/>
<path d="M24.6403 19.9376C24.6169 19.8476 24.5602 19.7709 24.4802 19.7275C24.4702 19.7208 23.5866 19.224 22.3795 18.077C22.693 17.8669 22.9864 17.5735 23.2565 17.2C23.3132 17.12 23.3332 17.0199 23.3098 16.9266C23.2865 16.8332 23.2231 16.7532 23.1364 16.7098C23.1298 16.7065 22.3662 16.313 21.3358 15.4161C21.5426 15.256 21.7426 15.0526 21.926 14.7959C21.9827 14.7159 21.9994 14.6158 21.9794 14.5225C21.956 14.4291 21.8927 14.3491 21.806 14.3057C21.7926 14.2991 20.6489 13.7022 19.392 12.2317C19.4453 12.0983 19.462 11.9483 19.4253 11.7982L19.1385 10.6645C19.1385 10.6645 19.1385 10.6412 19.1519 10.6312L20.0655 9.87762C20.2889 9.69422 20.3756 9.39746 20.2889 9.12404C20.1989 8.84728 19.9555 8.65389 19.662 8.63388L18.4716 8.54718C18.455 8.54718 18.4383 8.53718 18.4316 8.52051L17.9815 7.43682C17.8714 7.17339 17.6113 7 17.3246 7C17.0378 7 16.7777 7.17006 16.6677 7.43682L16.2176 8.52051C16.2176 8.52051 16.1942 8.54385 16.1775 8.54718L14.9872 8.63388C14.6937 8.65388 14.447 8.84728 14.3603 9.12404C14.2736 9.39746 14.3603 9.69424 14.5837 9.87762L15.4973 10.6312C15.4973 10.6312 15.514 10.6512 15.5107 10.6645L15.2239 11.7982C15.1872 11.945 15.2039 12.095 15.2572 12.2284C14.0002 13.6955 12.853 14.2957 12.8432 14.3024C12.7565 14.3458 12.6932 14.4258 12.6698 14.5191C12.6465 14.6125 12.6665 14.7125 12.7232 14.7926C12.9066 15.0527 13.1066 15.2561 13.3134 15.4128C12.283 16.3131 11.5194 16.7032 11.5128 16.7065C11.4261 16.7499 11.3627 16.8299 11.3394 16.9233C11.316 17.0166 11.336 17.1167 11.3927 17.1967C11.6628 17.5735 11.9529 17.8636 12.2697 18.0736C11.0626 19.2207 10.179 19.7209 10.169 19.7242C10.0889 19.7675 10.0289 19.8442 10.0089 19.9343C9.98891 20.0243 10.0022 20.1177 10.0523 20.1944C10.6691 21.1513 11.3894 21.7082 12.1995 21.8582C12.3463 21.8849 12.493 21.8983 12.6364 21.8983C13.3332 21.8983 13.9501 21.6015 14.4003 21.2947C14.487 21.3181 14.5737 21.3347 14.667 21.3347C14.7204 21.3347 14.7671 21.3281 14.8171 21.3181C15.0505 21.8816 15.3339 22.3751 15.6674 22.7919V26.3331H14.3336C14.1502 26.3331 14.0001 26.4832 14.0001 26.6666C14.0001 26.85 14.1502 27 14.3336 27H20.3356C20.519 27 20.669 26.85 20.669 26.6666C20.669 26.4832 20.519 26.3331 20.3356 26.3331H19.0018V22.7919C19.3886 22.3084 19.712 21.7315 19.9588 21.0646C20.4256 21.4447 21.2626 21.9683 22.2328 21.8882C23.1365 21.8149 23.9401 21.2447 24.617 20.1943C24.667 20.1177 24.6837 20.021 24.6603 19.9342L24.6403 19.9376ZM14.9938 9.35743C14.9938 9.35743 14.9771 9.34076 14.9804 9.32075C14.9871 9.29407 15.0104 9.29407 15.0204 9.29407L16.2108 9.20738C16.4809 9.18737 16.7143 9.02065 16.8177 8.77391L17.2679 7.69022C17.2679 7.69022 17.2779 7.66355 17.3112 7.66355C17.3445 7.66355 17.3512 7.68356 17.3546 7.69022L17.8047 8.77391C17.9081 9.02065 18.1415 9.18738 18.4116 9.20738L19.602 9.29407C19.602 9.29407 19.6353 9.29407 19.642 9.32075C19.6487 9.34076 19.642 9.34743 19.6287 9.35743L18.715 10.111C18.5083 10.2811 18.4149 10.5612 18.4816 10.8212L18.7684 11.9549C18.7684 11.9549 18.7717 11.9749 18.755 11.9883H18.7517C18.725 12.005 18.705 11.995 18.6984 11.9883L17.6847 11.3714C17.5713 11.3014 17.4413 11.2681 17.3112 11.2681C17.1812 11.2681 17.0545 11.3014 16.9378 11.3714L15.9241 11.9883C15.9241 11.9883 15.8974 12.005 15.8707 11.9883H15.8674C15.8507 11.9749 15.8541 11.9649 15.8541 11.9549L16.1408 10.8212C16.2075 10.5611 16.1142 10.2844 15.9074 10.111L14.9938 9.35743ZM15.7573 12.6451C15.9307 12.6818 16.1141 12.6585 16.2708 12.5618L17.2845 11.9449C17.2845 11.9449 17.3212 11.9349 17.3379 11.9449L18.3515 12.5618C18.4682 12.6318 18.5949 12.6651 18.725 12.6651C18.7717 12.6651 18.8183 12.6518 18.865 12.6418C19.802 13.7388 20.6756 14.3824 21.1425 14.6825C20.9791 14.8559 20.8124 14.9792 20.639 15.0493C19.8587 15.3861 19.0851 14.6258 19.0785 14.6191C18.9984 14.5358 18.8784 14.5024 18.765 14.5291C18.6516 14.5558 18.5616 14.6391 18.5249 14.7492C18.3515 15.2794 18.1148 15.6328 17.9047 15.8662C17.738 15.7428 17.5346 15.6661 17.3112 15.6661C17.0878 15.6661 16.8844 15.7428 16.7177 15.8662C16.5043 15.6328 16.2709 15.2794 16.0975 14.7492C16.0608 14.6391 15.9708 14.5558 15.8574 14.5291C15.744 14.5024 15.624 14.5358 15.544 14.6191C15.5373 14.6258 14.7737 15.3894 13.9768 15.0493C13.8067 14.9793 13.64 14.8559 13.4766 14.6858C13.9434 14.3857 14.817 13.7422 15.754 12.6452L15.7573 12.6451ZM17.648 16.6697C17.648 16.8531 17.4979 17.0032 17.3145 17.0032C17.1311 17.0032 16.9811 16.8531 16.9811 16.6697C16.9811 16.4863 17.1311 16.3363 17.3145 16.3363C17.4979 16.3363 17.648 16.4863 17.648 16.6697ZM12.1462 17.0999C12.523 16.8698 13.1665 16.4296 13.9335 15.7361C14.627 15.9361 15.2539 15.6527 15.6374 15.3993C15.8541 15.8795 16.1142 16.2129 16.3443 16.4363C16.3276 16.513 16.3143 16.5897 16.3143 16.6697C16.3143 17.2199 16.7644 17.6701 17.3146 17.6701C17.8648 17.6701 18.3149 17.2199 18.3149 16.6697C18.3149 16.5897 18.3016 16.513 18.2849 16.4363C18.515 16.2129 18.7751 15.8795 18.9918 15.3993C19.3753 15.6561 20.0022 15.9395 20.6957 15.7361C21.4627 16.4296 22.1062 16.8698 22.483 17.0999C22.1062 17.5233 21.6961 17.7567 21.2559 17.7968C20.3456 17.8734 19.562 17.1098 19.5553 17.1032C19.472 17.0198 19.3553 16.9865 19.2419 17.0132C19.1285 17.0398 19.0385 17.1232 19.0018 17.2332C18.4916 18.7604 17.5947 19.2139 17.3179 19.3206C17.0378 19.2139 16.1409 18.7571 15.634 17.2332C15.5973 17.1232 15.5073 17.0398 15.3939 17.0132C15.2806 16.9865 15.1639 17.0198 15.0805 17.0999C15.0738 17.1065 14.2869 17.8701 13.3766 17.7967C12.9364 17.7601 12.523 17.5267 12.1495 17.0999L12.1462 17.0999ZM14.6471 20.671C14.4637 20.671 14.3136 20.5209 14.3136 20.3375C14.3136 20.1541 14.4637 20.0041 14.6471 20.0041C14.8305 20.0041 14.9805 20.1541 14.9805 20.3375C14.9805 20.5209 14.8305 20.671 14.6471 20.671ZM18.3151 26.3394H16.3144V23.4717C16.8112 23.8685 17.2047 23.9852 17.2247 23.9919C17.2547 23.9985 17.2847 24.0052 17.3147 24.0052C17.3448 24.0052 17.3748 24.0019 17.4048 23.9919C17.4281 23.9852 17.8182 23.8685 18.3151 23.4717L18.3151 26.3394ZM22.163 21.2277C21.0126 21.3211 20.0423 20.2608 20.0323 20.2508C19.9522 20.1607 19.8289 20.124 19.7121 20.1507C19.5954 20.1774 19.5021 20.2641 19.4654 20.3808C19.212 21.2211 18.8519 21.9246 18.3951 22.4715C17.9349 23.0117 17.4981 23.2418 17.3147 23.3185C17.1313 23.2418 16.6978 23.0117 16.2343 22.4715C15.8976 22.0747 15.6141 21.5779 15.3874 21.0043C15.5474 20.8276 15.6475 20.5942 15.6475 20.3374C15.6475 19.7873 15.1973 19.3371 14.6471 19.3371C14.097 19.3371 13.6468 19.7873 13.6468 20.3374C13.6468 20.5342 13.7068 20.7176 13.8035 20.871C13.3901 21.1144 12.8599 21.3078 12.2964 21.2044C11.7528 21.1044 11.246 20.7409 10.7825 20.1174C11.1893 19.8506 11.9596 19.2938 12.8932 18.3768C13.0333 18.4168 13.1766 18.4468 13.3234 18.4602C14.0969 18.5268 14.7672 18.1667 15.164 17.8866C15.9175 19.6472 17.1746 19.9807 17.2313 19.994C17.258 20.0007 17.2847 20.004 17.3113 20.004C17.338 20.004 17.3647 20.004 17.3914 19.994C17.4481 19.9807 18.7051 19.6472 19.4587 17.8866C19.8555 18.1667 20.5257 18.5268 21.2993 18.4602C21.4461 18.4468 21.5894 18.4168 21.7295 18.3768C22.6664 19.2904 23.4334 19.8506 23.8402 20.1174C23.33 20.8043 22.7665 21.1777 22.1596 21.2277L22.163 21.2277Z" fill="#FCB040"/>
</svg>
