<svg width="35" height="35" viewBox="0 0 35 35" fill="none" xmlns="http://www.w3.org/2000/svg">
<circle cx="17.5" cy="17.5" r="17" fill="#029D4A" fill-opacity="0.05" stroke="#029D4A"/>
<path d="M12.4485 24.2501C12.6211 24.2501 12.761 24.1102 12.761 23.9376C12.761 23.765 12.6211 23.6251 12.4485 23.6251C12.2759 23.6251 12.136 23.765 12.136 23.9376C12.136 24.1102 12.2759 24.2501 12.4485 24.2501Z" fill="#029D4A"/>
<path d="M22.4482 24.2501C22.6208 24.2501 22.7607 24.1102 22.7607 23.9376C22.7607 23.765 22.6208 23.6251 22.4482 23.6251C22.2757 23.6251 22.1357 23.765 22.1357 23.9376C22.1357 24.1102 22.2757 24.2501 22.4482 24.2501Z" fill="#029D4A"/>
<path d="M17.4482 22.6876C17.9651 22.6876 18.3857 22.267 18.3857 21.7501C18.3857 21.5776 18.246 21.4376 18.0732 21.4376C17.9004 21.4376 17.7607 21.5776 17.7607 21.7501C17.7607 21.9223 17.6207 22.0626 17.4482 22.0626C17.2757 22.0626 17.1357 21.9223 17.1357 21.7501C17.1357 21.5779 17.2757 21.4376 17.4482 21.4376C17.621 21.4376 17.7607 21.2976 17.7607 21.1251C17.7607 20.9526 17.621 20.8126 17.4482 20.8126C16.9314 20.8126 16.5107 21.2332 16.5107 21.7501C16.5107 22.267 16.9314 22.6876 17.4482 22.6876Z" fill="#029D4A"/>
<path d="M17.7162 23.1517C17.6034 22.9633 17.2931 22.9633 17.1803 23.1517L16.2428 24.7142C16.1834 24.8132 16.1834 24.9367 16.2428 25.0357L17.1803 26.5982C17.2368 26.6926 17.3384 26.7501 17.4484 26.7501C17.5584 26.7501 17.6599 26.6926 17.7162 26.5985L18.6537 25.036C18.713 24.937 18.713 24.8135 18.6537 24.7145L17.7162 23.1517ZM17.4484 25.8301L16.8753 24.8751L17.4484 23.9201L18.0215 24.8751L17.4484 25.8301Z" fill="#029D4A"/>
<path d="M14.636 22.0626C14.1191 22.0626 13.6985 22.4832 13.6985 23.0001C13.6985 23.517 14.1191 23.9376 14.636 23.9376C15.1528 23.9376 15.5734 23.517 15.5734 23.0001C15.5734 22.4832 15.1528 22.0626 14.636 22.0626ZM14.636 23.3126C14.4635 23.3126 14.3235 23.1723 14.3235 23.0001C14.3235 22.8279 14.4635 22.6876 14.636 22.6876C14.8085 22.6876 14.9485 22.8279 14.9485 23.0001C14.9485 23.1723 14.8085 23.3126 14.636 23.3126Z" fill="#029D4A"/>
<path d="M20.2607 22.0626C19.7439 22.0626 19.3232 22.4832 19.3232 23.0001C19.3232 23.517 19.7439 23.9376 20.2607 23.9376C20.7776 23.9376 21.1982 23.517 21.1982 23.0001C21.1982 22.4832 20.7776 22.0626 20.2607 22.0626ZM20.2607 23.3126C20.0882 23.3126 19.9482 23.1723 19.9482 23.0001C19.9482 22.8279 20.0882 22.6876 20.2607 22.6876C20.4332 22.6876 20.5732 22.8279 20.5732 23.0001C20.5732 23.1723 20.4332 23.3126 20.2607 23.3126Z" fill="#029D4A"/>
<path d="M16.6135 15.3115C16.9551 15.5918 17.3807 15.7375 17.801 15.7375C18.0757 15.7375 18.3482 15.6753 18.5929 15.5478C20.4844 14.5634 20.2697 11.2441 20.2597 11.1032C20.2494 10.9544 20.1353 10.8341 19.9872 10.8154C19.8416 10.7973 19.6988 10.8851 19.6519 11.0266C19.5666 11.2829 19.4575 11.4485 19.3538 11.5554C19.2653 9.97165 17.7576 8.19325 17.6854 8.10951C17.6238 8.03763 17.5319 7.99513 17.4382 8.00045C17.3432 8.00357 17.2551 8.04951 17.1982 8.12544C17.1191 8.23075 15.2607 10.7313 15.2607 12.6878C15.2607 13.9378 15.9964 14.8047 16.6135 15.3115ZM18.3041 14.9931C17.9035 15.2015 17.3841 15.1356 17.0101 14.8284C16.9338 14.7656 16.8554 14.6944 16.777 14.6187C16.6598 13.8522 16.7032 12.7303 17.436 11.4282C17.7838 12.0847 18.3872 13.381 18.611 14.7844C18.5172 14.8644 18.4157 14.9353 18.3041 14.9931ZM17.4629 8.83605C17.9419 9.47416 18.9175 10.9357 18.7044 12.0016C18.686 12.0935 18.71 12.1888 18.7691 12.261C18.8285 12.3335 18.9169 12.3753 19.0107 12.3753C19.0307 12.3753 19.3132 12.371 19.6213 12.1475C19.575 12.75 19.4481 13.5166 19.1235 14.1291C18.7007 12.2457 17.7582 10.7191 17.7132 10.6473C17.6569 10.5573 17.5591 10.502 17.4529 10.5004C17.3482 10.5057 17.2473 10.5513 17.1882 10.6394C16.4226 11.7875 16.1535 12.841 16.1092 13.7013C15.9729 13.405 15.8857 13.0675 15.8857 12.6878C15.8857 11.3276 16.9726 9.56322 17.4629 8.83605Z" fill="#029D4A"/>
<path d="M17.4484 28C20.2864 28 22.4676 27.196 23.932 25.6101C26.1276 23.2314 25.8957 19.9871 25.8857 19.8752C25.8857 19.5246 25.5023 17.7831 18.0593 17.6924C17.9215 17.4956 17.8252 17.2803 17.7849 17.0421C17.7574 16.8756 17.6159 16.7546 17.4484 16.7546C17.2809 16.7546 17.1393 16.8756 17.1121 17.0409C17.0715 17.2793 16.9749 17.4952 16.8365 17.6924C9.39418 17.7831 9.01106 19.5243 9.012 19.8502C9.00106 19.9871 8.76919 23.2314 10.9648 25.6101C12.4288 27.196 14.6103 28 17.4484 28ZM25.0101 19.573C23.2779 19.5774 20.2886 19.3396 18.7462 18.3309C23.0436 18.4496 24.5135 19.149 25.0101 19.573ZM17.4481 17.9031C18.7008 20.0061 23.3679 20.1964 25.0154 20.1964C25.1123 20.1964 25.1948 20.1958 25.2694 20.1946C25.2691 21.0195 25.1151 23.4107 23.4685 25.1904C22.1276 26.64 20.1021 27.375 17.4484 27.375C14.7947 27.375 12.7691 26.64 11.4282 25.1907C10.3223 23.9954 9.89042 22.5245 9.72542 21.433C11.3479 21.4033 16.1165 21.1955 17.404 19.7952C17.4334 19.7636 17.4634 19.7639 17.4921 19.7952C18.4915 20.8824 21.5795 21.2617 23.9942 21.3889C24.1742 21.3952 24.3135 21.2655 24.3229 21.0933C24.3317 20.9208 24.1995 20.7739 24.0273 20.7649C20.8255 20.5964 18.6112 20.0889 17.9524 19.3721C17.6943 19.0918 17.2034 19.0915 16.9443 19.3721C15.9668 20.4349 12.0341 20.7714 9.65386 20.8092C9.63448 20.5614 9.62823 20.3517 9.62792 20.1946C10.9741 20.2117 16.1212 20.1289 17.4481 17.9031ZM9.8801 19.573C10.3748 19.1583 11.8497 18.4509 16.1484 18.3312C14.6028 19.3402 11.6088 19.578 9.8801 19.573Z" fill="#029D4A"/>
</svg>
