<svg width="16" height="4" viewBox="0 0 16 4" fill="none" xmlns="http://www.w3.org/2000/svg">
<path d="M1.8 3.6C2.79411 3.6 3.6 2.79411 3.6 1.8C3.6 0.805887 2.79411 0 1.8 0C0.805888 0 0 0.805887 0 1.8C0 2.79411 0.805888 3.6 1.8 3.6Z" fill="black" fill-opacity="0.6"/>
<path d="M7.73359 3.6C8.72771 3.6 9.53359 2.79411 9.53359 1.8C9.53359 0.805887 8.72771 0 7.73359 0C6.73948 0 5.93359 0.805887 5.93359 1.8C5.93359 2.79411 6.73948 3.6 7.73359 3.6Z" fill="black" fill-opacity="0.6"/>
<path d="M13.6652 3.6C14.6593 3.6 15.4652 2.79411 15.4652 1.8C15.4652 0.805887 14.6593 0 13.6652 0C12.6711 0 11.8652 0.805887 11.8652 1.8C11.8652 2.79411 12.6711 3.6 13.6652 3.6Z" fill="black" fill-opacity="0.6"/>
</svg>
