<svg width="35" height="35" viewBox="0 0 35 35" fill="none" xmlns="http://www.w3.org/2000/svg">
<circle cx="17.5" cy="17.5" r="17" fill="#EA4335" fill-opacity="0.05" stroke="#EA4335"/>
<path d="M25.0611 21.0697C24.9552 21.0002 24.8409 20.9446 24.7208 20.9044C24.628 20.6256 24.4539 20.3807 24.2211 20.2014C23.9882 20.022 23.707 19.9163 23.4137 19.8978C23.2813 19.6832 23.0963 19.5061 22.8762 19.3833C22.6561 19.2604 22.4083 19.1959 22.1562 19.1959C21.9041 19.1959 21.6563 19.2604 21.4362 19.3833C21.2161 19.5061 21.031 19.6832 20.8987 19.8978C20.6054 19.9163 20.3242 20.022 20.0913 20.2014C19.8584 20.3807 19.6844 20.6256 19.5916 20.9044C19.4715 20.9446 19.3572 21.0002 19.2513 21.0697C19.1512 21.0946 19.0548 21.1215 18.9602 21.1494C19.2044 21.2496 19.4278 21.3945 19.6189 21.5765C19.7067 21.5234 19.8034 21.4866 19.9043 21.4679C19.9666 21.4564 20.0239 21.4263 20.0687 21.3816C20.1135 21.3368 20.1436 21.2795 20.155 21.2172C20.1906 21.0221 20.2933 20.8456 20.4453 20.7182C20.5973 20.5908 20.7891 20.5206 20.9874 20.5198L21.0061 20.5221C21.0238 20.5245 21.0415 20.5268 21.0595 20.5282C21.1249 20.5336 21.1902 20.5182 21.2463 20.4843C21.3024 20.4504 21.3464 20.3997 21.372 20.3393C21.4375 20.1855 21.5467 20.0544 21.6861 19.9622C21.8256 19.8701 21.989 19.8209 22.1562 19.8209C22.3233 19.8209 22.4868 19.8701 22.6262 19.9622C22.7657 20.0544 22.8749 20.1855 22.9404 20.3393C22.9663 20.3995 23.0103 20.45 23.0663 20.4839C23.1224 20.5178 23.1876 20.5333 23.2528 20.5282C23.2708 20.5268 23.2885 20.5245 23.3062 20.5221L23.3211 20.5198C23.5201 20.52 23.7126 20.5898 23.8654 20.7172C24.0182 20.8446 24.1215 21.0215 24.1574 21.2172C24.1688 21.2795 24.1989 21.3368 24.2437 21.3816C24.2885 21.4263 24.3458 21.4564 24.4081 21.4679C24.6037 21.5038 24.7806 21.6071 24.908 21.7598C25.0354 21.9126 25.1053 22.1052 25.1054 22.3041C25.1054 22.387 25.1383 22.4665 25.1969 22.5251C25.2555 22.5837 25.335 22.6166 25.4179 22.6166C25.5008 22.6166 25.5803 22.5837 25.6389 22.5251C25.6975 22.4665 25.7304 22.387 25.7304 22.3041C25.7302 22.1769 25.7135 22.0503 25.6808 21.9273C26.1357 22.1184 26.3749 22.3212 26.3749 22.4688C26.3749 22.8323 24.9439 23.5308 22.3217 23.5598C22.4181 23.7536 22.4683 23.967 22.4685 24.1834C23.3445 24.1724 24.2168 24.0662 25.0698 23.8667C24.5465 24.3714 23.8484 24.6543 23.1214 24.6563H22.388C22.3021 24.8943 22.1608 25.1086 21.9758 25.2813H23.1214C23.5965 25.2807 24.0663 25.1819 24.5014 24.9912C24.9364 24.8004 25.3274 24.5218 25.6497 24.1727L26.4373 23.3177C26.7912 23.0813 26.9999 22.7982 26.9999 22.4688C26.9999 21.822 26.1978 21.353 25.0611 21.0697Z" fill="#EA4335"/>
<path d="M10.8786 24.6563H11.6119C11.5589 24.5057 11.5316 24.3472 11.5312 24.1875C11.5316 24.1353 11.5348 24.0831 11.5408 24.0313H10.8786C10.1515 24.0293 9.4534 23.7464 8.93009 23.2417C9.83108 23.4513 10.7529 23.5582 11.6779 23.5603C11.8071 23.3124 11.9912 23.0972 12.2163 22.9314C12.0939 22.9344 11.9716 22.9375 11.8437 22.9375C9.1141 22.9375 7.625 22.215 7.625 21.8438C7.625 21.6962 7.86423 21.4934 8.31915 21.3023C8.2864 21.4253 8.26972 21.5519 8.26953 21.6791C8.26953 21.762 8.30245 21.8415 8.36106 21.9001C8.41966 21.9587 8.49915 21.9916 8.58203 21.9916C8.66491 21.9916 8.7444 21.9587 8.803 21.9001C8.86161 21.8415 8.89453 21.762 8.89453 21.6791C8.89467 21.4802 8.9645 21.2876 9.0919 21.1348C9.2193 20.9821 9.3962 20.8788 9.59186 20.8429C9.65413 20.8314 9.71146 20.8013 9.75623 20.7566C9.801 20.7118 9.83111 20.6545 9.84256 20.5922C9.87813 20.3971 9.98082 20.2206 10.1328 20.0932C10.2848 19.9658 10.4766 19.8956 10.6749 19.8948L10.6937 19.8971C10.7114 19.8995 10.7291 19.9018 10.7471 19.9032C10.8124 19.9087 10.8778 19.8933 10.9339 19.8594C10.99 19.8255 11.034 19.7747 11.0595 19.7143C11.125 19.5605 11.2343 19.4294 11.3737 19.3372C11.5131 19.2451 11.6766 19.1959 11.8437 19.1959C12.0109 19.1959 12.1744 19.2451 12.3138 19.3372C12.4532 19.4294 12.5625 19.5605 12.628 19.7143C12.6538 19.7745 12.6978 19.8251 12.7538 19.859C12.8099 19.8928 12.8751 19.9083 12.9404 19.9032C12.9584 19.9018 12.9761 19.8995 12.9938 19.8971L13.0087 19.8949C13.2076 19.895 13.4002 19.9648 13.553 20.0922C13.7058 20.2196 13.8091 20.3965 13.8449 20.5922C13.8564 20.6545 13.8865 20.7118 13.9313 20.7566C13.976 20.8013 14.0334 20.8314 14.0956 20.8429C14.2286 20.8677 14.3537 20.9239 14.4605 21.0069C14.5674 21.0899 14.6528 21.1971 14.7098 21.3198C14.919 21.1852 15.1506 21.0889 15.3936 21.0354C15.4809 20.9333 15.5779 20.8399 15.6832 20.7565C15.3812 20.6258 15.0685 20.5215 14.7486 20.4447C14.6428 20.3752 14.5284 20.3196 14.4084 20.2794C14.3155 20.0006 14.1415 19.7557 13.9086 19.5764C13.6757 19.397 13.3946 19.2913 13.1012 19.2728C12.9689 19.0582 12.7839 18.8811 12.5638 18.7583C12.3437 18.6354 12.0958 18.5709 11.8437 18.5709C11.5917 18.5709 11.3438 18.6354 11.1237 18.7583C10.9036 18.8811 10.7186 19.0582 10.5863 19.2728C10.2929 19.2913 10.0118 19.397 9.77888 19.5764C9.546 19.7557 9.37198 20.0006 9.27913 20.2794C9.15907 20.3196 9.04471 20.3752 8.93889 20.4447C7.80219 20.728 7 21.197 7 21.8438C7 22.1732 7.20874 22.4563 7.56262 22.6927L8.35033 23.5477C8.67259 23.8968 9.06354 24.1754 9.49861 24.3662C9.93368 24.5569 10.4035 24.6557 10.8786 24.6563Z" fill="#EA4335"/>
<path d="M20.4935 25.8915L21.2811 25.0364C21.635 24.8001 21.8437 24.5169 21.8437 24.1875C21.8437 23.5408 21.0416 23.0717 19.9049 22.7884C19.799 22.7189 19.6847 22.6634 19.5646 22.6232C19.4718 22.3443 19.2977 22.0995 19.0649 21.9201C18.832 21.7408 18.5508 21.635 18.2575 21.6165C18.1251 21.402 17.9401 21.2249 17.72 21.102C17.4999 20.9792 17.2521 20.9147 17 20.9147C16.7479 20.9147 16.5001 20.9792 16.28 21.102C16.0599 21.2249 15.8748 21.402 15.7425 21.6165C15.4492 21.635 15.168 21.7408 14.9351 21.9201C14.7022 22.0995 14.5282 22.3443 14.4354 22.6232C14.3153 22.6634 14.201 22.7189 14.0951 22.7884C12.9584 23.0717 12.1562 23.5408 12.1562 24.1875C12.1562 24.5169 12.365 24.8001 12.7189 25.0365L13.5066 25.8915C13.8288 26.2405 14.2198 26.5192 14.6549 26.7099C15.0899 26.9007 15.5597 26.9995 16.0348 27H17.9652C18.4403 26.9994 18.9101 26.9007 19.3452 26.7099C19.7802 26.5191 20.1712 26.2405 20.4935 25.8915ZM12.7812 24.1875C12.7812 24.04 13.0205 23.8372 13.4754 23.6461C13.4426 23.769 13.426 23.8957 13.4258 24.0229C13.4258 24.1058 13.4587 24.1853 13.5173 24.2439C13.5759 24.3025 13.6554 24.3354 13.7383 24.3354C13.8212 24.3354 13.9006 24.3025 13.9593 24.2439C14.0179 24.1853 14.0508 24.1058 14.0508 24.0229C14.0509 23.824 14.1208 23.6314 14.2482 23.4786C14.3755 23.3258 14.5524 23.2225 14.7481 23.1866C14.8104 23.1752 14.8677 23.1451 14.9125 23.1003C14.9573 23.0555 14.9874 22.9982 14.9988 22.9359C15.0344 22.7408 15.1371 22.5643 15.2891 22.437C15.4411 22.3096 15.6329 22.2394 15.8312 22.2385L15.8499 22.2409C15.8676 22.2433 15.8853 22.2455 15.9033 22.247C15.9687 22.2524 16.034 22.237 16.0901 22.2031C16.1462 22.1692 16.1902 22.1184 16.2158 22.0581C16.2813 21.9043 16.3905 21.7732 16.53 21.681C16.6694 21.5888 16.8328 21.5397 17 21.5397C17.1671 21.5397 17.3306 21.5888 17.47 21.681C17.6095 21.7732 17.7187 21.9043 17.7842 22.0581C17.8101 22.1182 17.8541 22.1688 17.9101 22.2027C17.9662 22.2365 18.0314 22.252 18.0966 22.247C18.1146 22.2455 18.1324 22.2433 18.1501 22.2409L18.1649 22.2386C18.3639 22.2387 18.5564 22.3086 18.7092 22.436C18.862 22.5634 18.9653 22.7403 19.0012 22.9359C19.0126 22.9982 19.0427 23.0555 19.0875 23.1003C19.1323 23.1451 19.1896 23.1752 19.2519 23.1866C19.4475 23.2225 19.6244 23.3258 19.7518 23.4786C19.8792 23.6314 19.9491 23.824 19.9492 24.0229C19.9492 24.1058 19.9821 24.1853 20.0407 24.2439C20.0993 24.3025 20.1788 24.3354 20.2617 24.3354C20.3446 24.3354 20.4241 24.3025 20.4827 24.2439C20.5413 24.1853 20.5742 24.1058 20.5742 24.0229C20.574 23.8957 20.5573 23.769 20.5246 23.6461C20.9795 23.8372 21.2187 24.04 21.2187 24.1875C21.2187 24.5588 19.7296 25.2813 17 25.2813C14.2704 25.2813 12.7812 24.5588 12.7812 24.1875ZM17.9652 26.375H16.0348C15.3078 26.373 14.6097 26.0901 14.0863 25.5854C15.0415 25.807 16.0195 25.9147 17 25.9063C17.9805 25.9147 18.9585 25.807 19.9136 25.5854C19.3903 26.0901 18.6922 26.373 17.9652 26.375Z" fill="#EA4335"/>
<path d="M21.6069 13.4184C21.6961 13.2012 21.7113 12.9606 21.6504 12.7339C21.5894 12.5071 21.4556 12.3067 21.2695 12.1634C21.0835 12.0202 20.8555 11.9421 20.6207 11.9411C20.3859 11.9401 20.1573 12.0163 19.97 12.158C19.964 12.1626 19.9581 12.1674 19.9523 12.1724L19.2201 12.816C19.0466 12.6385 18.8521 12.4828 18.6409 12.3524L18.7313 12.1647C18.7995 12.0423 18.84 11.9064 18.8497 11.7666C18.8595 11.6268 18.8383 11.4866 18.7877 11.3559C18.7371 11.2253 18.6583 11.1073 18.557 11.0106C18.4556 10.9138 18.3342 10.8406 18.2013 10.796C18.0684 10.7515 17.9274 10.7369 17.7882 10.7531C17.649 10.7693 17.5151 10.816 17.396 10.8898C17.2769 10.9636 17.1755 11.0628 17.0991 11.1803C17.0227 11.2977 16.9731 11.4306 16.9539 11.5694C16.9528 11.577 16.9521 11.5846 16.9515 11.5922L16.9315 11.904C16.6835 11.9139 16.4376 11.954 16.1994 12.0234L15.9175 11.218C15.8747 11.0665 15.7991 10.9263 15.6959 10.8073C15.5928 10.6884 15.4647 10.5936 15.3208 10.5298C15.1768 10.466 15.0206 10.4348 14.8632 10.4383C14.7058 10.4417 14.5511 10.4799 14.4101 10.55C14.2692 10.6201 14.1454 10.7204 14.0476 10.8438C13.9498 10.9672 13.8805 11.1106 13.8445 11.2639C13.8084 11.4171 13.8067 11.5764 13.8393 11.7305C13.8718 11.8845 13.938 12.0294 14.033 12.155C14.0376 12.161 14.0424 12.1669 14.0474 12.1727L14.7426 12.9638C14.5907 13.1417 14.4597 13.3364 14.3521 13.5442L14.0397 13.3938C13.9173 13.3255 13.7814 13.285 13.6416 13.2753C13.5018 13.2655 13.3616 13.2867 13.2309 13.3373C13.1002 13.3879 12.9823 13.4667 12.8856 13.568C12.7888 13.6694 12.7155 13.7908 12.671 13.9237C12.6265 14.0566 12.6118 14.1976 12.6281 14.3368C12.6443 14.476 12.6909 14.6099 12.7648 14.729C12.8386 14.8481 12.9378 14.9495 13.0553 15.0259C13.1727 15.1023 13.3056 15.1519 13.4444 15.1711C13.4519 15.1722 13.4596 15.1729 13.4671 15.1735L14.0243 15.2093C14.0431 15.4228 14.0848 15.6336 14.1487 15.8381L13.093 16.2075C12.9415 16.2503 12.8012 16.326 12.6823 16.4291C12.5633 16.5322 12.4686 16.6603 12.4048 16.8043C12.341 16.9482 12.3098 17.1044 12.3133 17.2618C12.3167 17.4192 12.3549 17.5739 12.425 17.7149C12.4951 17.8559 12.5954 17.9797 12.7188 18.0774C12.8422 18.1752 12.9856 18.2446 13.1389 18.2806C13.2922 18.3166 13.4515 18.3184 13.6055 18.2858C13.7595 18.2532 13.9045 18.187 14.03 18.092C14.036 18.0874 14.042 18.0826 14.0477 18.0776L15.0344 17.2105C15.1842 17.3437 15.3472 17.4615 15.5206 17.5621L15.2687 18.0853C15.2005 18.2077 15.16 18.3436 15.1503 18.4834C15.1405 18.6232 15.1617 18.7634 15.2123 18.8941C15.2629 19.0248 15.3417 19.1427 15.443 19.2394C15.5444 19.3362 15.6658 19.4095 15.7987 19.454C15.9315 19.4985 16.0726 19.5132 16.2118 19.4969C16.351 19.4807 16.4849 19.4341 16.604 19.3602C16.7231 19.2864 16.8244 19.1872 16.9008 19.0697C16.9773 18.9523 17.0268 18.8194 17.0461 18.6806C17.0471 18.6731 17.0479 18.6654 17.0484 18.6578L17.0925 17.9744C17.293 17.9719 17.4927 17.9493 17.6887 17.9069L18.0825 19.032C18.1253 19.1835 18.2009 19.3238 18.304 19.4427C18.4072 19.5617 18.5353 19.6564 18.6792 19.7202C18.8232 19.784 18.9794 19.8153 19.1368 19.8118C19.2942 19.8083 19.4489 19.7702 19.5899 19.7001C19.7308 19.63 19.8546 19.5297 19.9524 19.4063C20.0502 19.2829 20.1195 19.1395 20.1555 18.9862C20.1916 18.8329 20.1933 18.6736 20.1607 18.5196C20.1281 18.3655 20.062 18.2206 19.967 18.0951C19.9624 18.089 19.9576 18.0831 19.9526 18.0774L19.134 17.146C19.2901 16.9991 19.4299 16.836 19.5511 16.6593L19.9603 16.8563C20.0826 16.9245 20.2186 16.965 20.3584 16.9747C20.4981 16.9845 20.6384 16.9633 20.769 16.9127C20.8997 16.8621 21.0176 16.7833 21.1144 16.682C21.2112 16.5806 21.2844 16.4592 21.3289 16.3263C21.3735 16.1935 21.3881 16.0524 21.3719 15.9132C21.3557 15.774 21.309 15.6401 21.2352 15.521C21.1614 15.4019 21.0622 15.3006 20.9447 15.2241C20.8273 15.1477 20.6944 15.0982 20.5556 15.0789C20.548 15.0779 20.5404 15.0771 20.5328 15.0766L20.083 15.0476C20.0912 14.8138 20.0727 14.5798 20.0277 14.3502L20.907 14.0425C21.0636 13.9989 21.2082 13.92 21.3295 13.8118C21.4508 13.7036 21.5457 13.569 21.6069 13.4184ZM20.7105 13.4491L19.5528 13.8543C19.4767 13.8809 19.4138 13.9359 19.3774 14.0078C19.3409 14.0797 19.3336 14.1629 19.357 14.24C19.4609 14.5808 19.4871 14.9405 19.4338 15.2927C19.4274 15.3355 19.4299 15.3791 19.4413 15.4208C19.4526 15.4626 19.4725 15.5015 19.4997 15.5352C19.5268 15.5688 19.5607 15.5965 19.5991 15.6164C19.6375 15.6363 19.6796 15.648 19.7228 15.6507L20.4794 15.6994C20.5268 15.7074 20.5719 15.7257 20.6114 15.753C20.651 15.7803 20.6841 15.8159 20.7084 15.8574C20.7327 15.8989 20.7476 15.9452 20.7521 15.9931C20.7565 16.0409 20.7504 16.0892 20.7342 16.1344C20.7179 16.1797 20.692 16.2208 20.6581 16.2549C20.6242 16.2891 20.5833 16.3153 20.5382 16.3319C20.493 16.3485 20.4448 16.355 20.3969 16.3509C20.349 16.3468 20.3026 16.3322 20.2609 16.3082C20.2544 16.3045 20.2476 16.3009 20.2407 16.2976L19.5688 15.9741C19.4968 15.9394 19.4143 15.9337 19.3382 15.958C19.2621 15.9823 19.1981 16.0348 19.1596 16.1048C18.9964 16.4014 18.7719 16.6599 18.501 16.8631C18.4666 16.8889 18.4379 16.9216 18.4167 16.9591C18.3955 16.9966 18.3823 17.038 18.3779 17.0808C18.3735 17.1236 18.378 17.1669 18.3911 17.2079C18.4042 17.2489 18.4257 17.2867 18.4541 17.3191L19.4746 18.4803C19.5128 18.5332 19.539 18.594 19.5512 18.6582C19.5634 18.7224 19.5613 18.7885 19.5451 18.8518C19.5289 18.9151 19.499 18.974 19.4575 19.0245C19.416 19.075 19.3639 19.1157 19.3049 19.1438C19.2459 19.1719 19.1814 19.1867 19.1161 19.1871C19.0507 19.1875 18.9861 19.1736 18.9267 19.1462C18.8674 19.1189 18.8148 19.0789 18.7726 19.029C18.7304 18.979 18.6997 18.9205 18.6827 18.8574C18.6807 18.85 18.6785 18.8427 18.6759 18.8355L18.1828 17.4266C18.1559 17.3495 18.0998 17.286 18.0266 17.2498C17.9535 17.2135 17.869 17.2073 17.7913 17.2326C17.4812 17.3336 17.1536 17.3699 16.8289 17.3391C16.7873 17.3353 16.7454 17.3398 16.7056 17.3525C16.6658 17.3651 16.6289 17.3856 16.5971 17.4128C16.5654 17.4399 16.5394 17.4731 16.5207 17.5105C16.502 17.5479 16.491 17.5886 16.4883 17.6303L16.4256 18.6044C16.4176 18.6518 16.3993 18.6969 16.372 18.7364C16.3447 18.776 16.3091 18.8091 16.2676 18.8334C16.2261 18.8577 16.1798 18.8726 16.1319 18.8771C16.0841 18.8815 16.0358 18.8754 15.9906 18.8592C15.9453 18.8429 15.9042 18.817 15.8701 18.7831C15.8359 18.7492 15.8097 18.7083 15.7931 18.6632C15.7765 18.6181 15.77 18.5698 15.7741 18.5219C15.7782 18.474 15.7928 18.4276 15.8168 18.386C15.8205 18.3794 15.8241 18.3726 15.8274 18.3657L16.2159 17.5588C16.234 17.5211 16.2444 17.4802 16.2465 17.4385C16.2485 17.3968 16.2422 17.3551 16.2278 17.3158C16.2135 17.2766 16.1914 17.2407 16.1629 17.2101C16.1344 17.1795 16.1001 17.155 16.062 17.1379C15.7641 17.0052 15.4966 16.8128 15.276 16.5727C15.2207 16.5126 15.1441 16.4765 15.0625 16.4722C14.981 16.4679 14.901 16.4956 14.8397 16.5495L13.6448 17.5996C13.5918 17.6379 13.5311 17.664 13.4669 17.6762C13.4027 17.6884 13.3366 17.6863 13.2733 17.6701C13.21 17.6539 13.151 17.624 13.1005 17.5825C13.0501 17.5409 13.0093 17.4888 12.9812 17.4298C12.9531 17.3708 12.9384 17.3064 12.9379 17.241C12.9375 17.1757 12.9515 17.111 12.9788 17.0517C13.0061 16.9923 13.0462 16.9397 13.0961 16.8975C13.146 16.8554 13.2046 16.8247 13.2677 16.8077C13.275 16.8057 13.2823 16.8034 13.2895 16.8009L14.656 16.3227C14.6966 16.3085 14.7339 16.286 14.7654 16.2567C14.7969 16.2274 14.8221 16.192 14.8393 16.1525C14.8565 16.1131 14.8653 16.0705 14.8653 16.0275C14.8652 15.9844 14.8563 15.9419 14.839 15.9024C14.7027 15.5925 14.6341 15.2571 14.6376 14.9185C14.6384 14.8386 14.6085 14.7614 14.5541 14.7029C14.4997 14.6443 14.425 14.6088 14.3453 14.6037L13.5206 14.5506C13.4732 14.5426 13.4281 14.5243 13.3885 14.497C13.349 14.4697 13.3159 14.4341 13.2916 14.3926C13.2673 14.3511 13.2524 14.3048 13.2479 14.257C13.2435 14.2091 13.2496 14.1608 13.2658 14.1156C13.2821 14.0703 13.308 14.0292 13.3419 13.9951C13.3757 13.961 13.4167 13.9347 13.4618 13.9181C13.5069 13.9015 13.5552 13.8951 13.6031 13.8991C13.651 13.9032 13.6974 13.9178 13.739 13.9418C13.7457 13.9455 13.7524 13.9491 13.7593 13.9524L14.3699 14.2464C14.4089 14.2652 14.4513 14.2756 14.4945 14.2771C14.5378 14.2786 14.5808 14.2712 14.621 14.2552C14.6612 14.2392 14.6976 14.215 14.728 14.1842C14.7583 14.1534 14.782 14.1167 14.7974 14.0763C14.9238 13.7432 15.1232 13.4428 15.381 13.1969C15.4393 13.1412 15.4737 13.0651 15.4772 12.9846C15.4807 12.9041 15.453 12.8253 15.3998 12.7648L14.5254 11.7698C14.4871 11.7168 14.461 11.6561 14.4488 11.5919C14.4366 11.5277 14.4387 11.4616 14.4549 11.3983C14.4711 11.335 14.501 11.276 14.5425 11.2255C14.584 11.1751 14.6361 11.1343 14.6951 11.1062C14.7541 11.0781 14.8186 11.0634 14.8839 11.0629C14.9492 11.0625 15.0139 11.0764 15.0732 11.1038C15.1326 11.1311 15.1852 11.1711 15.2274 11.2211C15.2696 11.271 15.3002 11.3295 15.3172 11.3926C15.3192 11.4 15.3215 11.4074 15.324 11.4145L15.7127 12.5249C15.7267 12.5651 15.7488 12.6019 15.7776 12.6332C15.8064 12.6645 15.8413 12.6896 15.8801 12.7069C15.9189 12.7243 15.9609 12.7335 16.0034 12.7341C16.0459 12.7347 16.0881 12.7266 16.1274 12.7103C16.4679 12.5695 16.8361 12.5084 17.2038 12.5316C17.2448 12.5344 17.286 12.5291 17.3249 12.5159C17.3638 12.5027 17.3997 12.4818 17.4305 12.4546C17.4928 12.3998 17.5308 12.3226 17.5362 12.2398L17.5744 11.6456C17.5824 11.5982 17.6007 11.5531 17.6279 11.5136C17.6552 11.474 17.6909 11.4409 17.7324 11.4166C17.7739 11.3923 17.8202 11.3774 17.868 11.373C17.9159 11.3685 17.9642 11.3746 18.0094 11.3908C18.0547 11.4071 18.0958 11.433 18.1299 11.4669C18.164 11.5008 18.1903 11.5417 18.2069 11.5868C18.2235 11.632 18.2299 11.6802 18.2258 11.7281C18.2218 11.776 18.2072 11.8224 18.1832 11.8641C18.1795 11.8707 18.1759 11.8774 18.1725 11.8844L17.9492 12.3483C17.9314 12.3853 17.9211 12.4254 17.9188 12.4664C17.9166 12.5074 17.9224 12.5484 17.936 12.5872C17.9495 12.6259 17.9706 12.6616 17.998 12.6922C18.0254 12.7228 18.0585 12.7477 18.0955 12.7655C18.4274 12.9256 18.7181 13.1596 18.9455 13.4496C18.9717 13.4831 19.0045 13.5109 19.0418 13.5313C19.0791 13.5517 19.1202 13.5642 19.1626 13.5682C19.2049 13.5721 19.2477 13.5674 19.2881 13.5542C19.3286 13.5411 19.3659 13.5199 19.3979 13.4918L20.3552 12.6504C20.4082 12.6122 20.4689 12.586 20.5331 12.5738C20.5973 12.5616 20.6634 12.5637 20.7267 12.5799C20.79 12.5961 20.849 12.626 20.8995 12.6675C20.9499 12.709 20.9907 12.7611 21.0188 12.8201C21.0469 12.8791 21.0616 12.9436 21.0621 13.0089C21.0625 13.0743 21.0485 13.1389 21.0212 13.1983C20.9939 13.2576 20.9539 13.3102 20.9039 13.3524C20.854 13.3946 20.7954 13.4253 20.7324 13.4423C20.725 13.4443 20.7176 13.4465 20.7105 13.4491Z" fill="#EA4335"/>
<path d="M22.7547 8.48832C22.6297 8.42049 22.4861 8.39477 22.3453 8.41497C22.2045 8.43516 22.074 8.50019 21.9731 8.60042L21.7252 8.8483C21.6359 8.93807 21.5742 9.05153 21.5474 9.17526C21.5206 9.29899 21.5298 9.42781 21.574 9.54647L19.4741 11.6463C19.4754 11.6838 19.4774 11.7214 19.476 11.7588L19.5395 11.703C19.556 11.6884 19.5742 11.6736 19.5929 11.6595C19.8866 11.4358 20.2459 11.3151 20.6151 11.3159C20.6382 11.3159 20.6608 11.3196 20.6838 11.3205L21.972 10.0323L22.7175 10.7779L21.7443 11.7511C21.8769 11.8678 21.9903 12.0045 22.0803 12.1565C22.0983 12.1872 22.1126 12.2193 22.1285 12.2508L23.2033 11.1759C23.3219 11.2208 23.451 11.2304 23.5749 11.2036C23.6988 11.1767 23.8123 11.1145 23.9016 11.0246L24.1495 10.7767C24.2499 10.6755 24.315 10.5446 24.335 10.4035C24.355 10.2623 24.3289 10.1185 24.2606 9.99341L25.6405 7.97811C25.7229 7.85783 25.7606 7.71255 25.7472 7.56739C25.7337 7.42223 25.67 7.28634 25.5669 7.18322C25.4639 7.0801 25.328 7.01625 25.1829 7.0027C25.0378 6.98916 24.8924 7.02678 24.7721 7.10905L22.7547 8.48832ZM23.7075 10.3349L23.4597 10.5826C23.4526 10.5897 23.443 10.5936 23.4329 10.5936C23.4229 10.5937 23.4133 10.5897 23.4061 10.5827L22.1672 9.34375C22.1601 9.33662 22.1561 9.32698 22.1561 9.31694C22.1561 9.30689 22.1601 9.29725 22.1672 9.29012L22.415 9.04239C22.4221 9.03527 22.4317 9.03127 22.4418 9.03125C22.4518 9.03124 22.4615 9.03522 22.4686 9.04232L23.7075 10.2813C23.7146 10.2884 23.7186 10.298 23.7186 10.3081C23.7186 10.3181 23.7146 10.3278 23.7075 10.3349ZM25.1248 7.625L23.8284 9.51834L23.2303 8.92025L25.1248 7.625Z" fill="#EA4335"/>
<path d="M9.73926 9.99341C9.67094 10.1185 9.64485 10.2624 9.66488 10.4035C9.68491 10.5447 9.74999 10.6756 9.85043 10.7768L10.0983 11.0247C10.1877 11.1146 10.3011 11.1767 10.425 11.2036C10.5489 11.2304 10.6779 11.2208 10.7965 11.1759L12.6049 12.9843C12.7804 12.847 12.9828 12.7483 13.199 12.6946L11.2824 10.7779L12.0279 10.0324L13.2173 11.2218C13.2199 11.2068 13.2209 11.1917 13.2238 11.1767C13.2666 10.9665 13.3488 10.7664 13.4663 10.5869L12.4259 9.54649C12.47 9.42781 12.4792 9.29898 12.4524 9.17523C12.4256 9.05149 12.3639 8.93801 12.2746 8.84824L12.0267 8.60036C11.9258 8.50017 11.7953 8.43517 11.6545 8.415C11.5137 8.39482 11.3702 8.42053 11.2452 8.48833L9.22776 7.10907C9.10742 7.02679 8.9621 6.98916 8.81695 7.0027C8.6718 7.01624 8.53595 7.0801 8.4329 7.18322C8.32985 7.28634 8.2661 7.42224 8.25266 7.5674C8.23923 7.71256 8.27696 7.85785 8.35932 7.97813L9.73926 9.99341ZM11.5313 9.04233C11.5384 9.03524 11.548 9.03126 11.5581 9.03126C11.5681 9.03126 11.5778 9.03524 11.5849 9.04233L11.8326 9.29013C11.8397 9.29724 11.8437 9.30688 11.8437 9.31693C11.8437 9.32698 11.8398 9.33663 11.8327 9.34376L10.5938 10.5827C10.5866 10.5898 10.577 10.5937 10.5669 10.5937C10.5569 10.5937 10.5473 10.5898 10.5401 10.5827L10.2924 10.3349C10.2853 10.3278 10.2813 10.3181 10.2813 10.3081C10.2813 10.298 10.2852 10.2884 10.2923 10.2813L11.5313 9.04233ZM10.7695 8.92028L10.1714 9.51835L8.87501 7.62502L10.7695 8.92028Z" fill="#EA4335"/>
</svg>
