<svg width="35" height="35" viewBox="0 0 35 35" fill="none" xmlns="http://www.w3.org/2000/svg">
<circle cx="17.5" cy="17.5" r="17" fill="#0D99FF" fill-opacity="0.05" stroke="#0D99FF"/>
<path fill-rule="evenodd" clip-rule="evenodd" d="M14.1444 20.9082L8.12325 15.6092C8.04441 15.5404 8 15.4416 8 15.3374C8 15.2331 8.04441 15.1344 8.12325 15.0655L17.1857 7.0904C17.3226 6.96987 17.5274 6.96987 17.6642 7.0904L26.7267 15.0655C26.8056 15.1344 26.85 15.2331 26.85 15.3374C26.85 15.4416 26.8056 15.5404 26.7267 15.6092L20.6909 20.9209L21.2338 25.4297C21.2809 25.8248 21.0888 26.21 20.7444 26.4085C20.4 26.6069 19.9705 26.5815 19.6524 26.3432L19.6505 26.3414C19.6415 26.3341 19.627 26.335 19.6188 26.3441L19.2817 26.6812C18.8567 27.1063 18.1679 27.1063 17.7429 26.6812L17.6813 26.6187C17.5399 26.4782 17.3097 26.4782 17.1683 26.6187L17.1067 26.6812C16.6817 27.1063 15.9929 27.1063 15.5679 26.6812L15.2153 26.3287L15.1936 26.345C14.8764 26.5834 14.4468 26.6096 14.1025 26.4121C13.7581 26.2136 13.565 25.8285 13.6113 25.4351L14.1444 20.9082ZM20.2681 20.3273L25.9394 15.3374L23.8686 13.5158C23.836 13.5076 23.8034 13.4958 23.7725 13.4786C22.0343 12.5017 19.9545 12.1165 17.7876 12.0775V19.1002L20.2681 20.3273ZM22.1441 11.9979L17.7878 8.16362V11.3537C19.3066 11.379 20.7848 11.5711 22.1441 11.9979ZM17.0627 8.16362L12.7064 11.9979C14.0658 11.5711 15.5438 11.3789 17.0627 11.3536V8.16362ZM10.9817 13.5159L8.91092 15.3375L14.5822 20.3283L17.0626 19.1004V12.0776C14.8957 12.1166 12.8158 12.5018 11.0776 13.4787C11.0468 13.4959 11.0144 13.5078 10.9817 13.5159ZM17.4251 22.8303L19.6799 20.8456L17.4251 19.7291L15.1703 20.8456L17.4251 22.8303ZM21.0502 13.525C22.251 13.525 23.2252 14.4992 23.2252 15.7C23.2252 16.9008 22.251 17.875 21.0502 17.875C19.8494 17.875 18.8751 16.9008 18.8751 15.7C18.8751 14.4992 19.8494 13.525 21.0502 13.525ZM13.8001 13.525C15.0009 13.525 15.9751 14.4992 15.9751 15.7C15.9751 16.9008 15.0009 17.875 13.8001 17.875C12.5993 17.875 11.6251 16.9008 11.6251 15.7C11.6251 14.4992 12.5993 13.525 13.8001 13.525Z" fill="#0D99FF"/>
</svg>
