<svg width="15" height="16" viewBox="0 0 15 16" fill="none" xmlns="http://www.w3.org/2000/svg">
<path d="M11.0329 12.8207C12.1947 12.1363 12.9553 10.9338 13.0758 9.59082L13.6212 3.45527C11.2736 2.93723 9.06168 1.92987 7.12921 0.5C5.19673 1.9298 2.98482 2.93711 0.637207 3.45527L1.18266 9.59082C1.30298 10.9337 2.06366 12.1363 3.2255 12.8207L7.12912 15.1168L11.0329 12.8207ZM3.50357 8.89556L3.16869 5.15228C4.60116 4.83811 5.95078 4.22447 7.12929 3.35208C8.30775 4.2244 9.65727 4.83803 11.0899 5.15228L10.755 8.89556C10.6801 9.71305 10.2169 10.445 9.51104 10.8635L7.12938 12.2645L4.74771 10.8635C4.04184 10.445 3.57844 9.71305 3.50357 8.89556Z" fill="#FCB040"/>
<path d="M7.13154 8.77056L8.87749 9.7692V9.76854L8.37949 7.77258L9.62681 6.5607H7.84475L7.13152 4.77795L6.41829 6.5607H4.63623L5.88355 7.77258L5.38489 9.76922L7.13154 8.77056Z" fill="#FCB040"/>
<path d="M3.0019 13.2057C2.73987 13.0526 2.49522 12.8721 2.27129 12.6676C1.50861 12.7244 0.749922 12.828 0 12.9778V15.1168C1.40708 14.83 2.84284 14.7104 4.27803 14.7598C4.8589 14.7812 5.38296 14.8314 5.87494 14.8955L3.0019 13.2057Z" fill="#FCB040"/>
<path d="M11.7656 15.4731C12.6058 15.4196 13.4401 15.3006 14.2616 15.1168V12.9778C13.3224 13.177 12.3686 13.296 11.4093 13.3341C11.2776 13.3374 11.1453 13.3414 11.021 13.3448L7.85522 15.2091C9.14264 15.4611 10.456 15.5499 11.7656 15.4731Z" fill="#FCB040"/>
</svg>
