<svg width="20" height="25" viewBox="0 0 20 25" fill="none" xmlns="http://www.w3.org/2000/svg">
<path d="M14.6481 10.2297C14.6502 11.4814 14.155 12.6821 13.2718 13.5686C12.3885 14.454 11.1889 14.9536 9.93703 14.9547C8.68642 14.9558 7.48567 14.4605 6.60035 13.5762C5.71387 12.6918 5.21644 11.4922 5.21536 10.2414C5.21427 8.98974 5.71063 7.78899 6.59602 6.90476C7.48034 6.01936 8.68001 5.52192 9.93159 5.52192C11.18 5.52409 12.3775 6.02044 13.2619 6.90259C14.1451 7.78474 14.6437 8.98131 14.6481 10.2297ZM19.2171 11.8596C18.9353 12.3538 18.7869 12.9119 18.7836 13.4809C18.7869 14.6404 18.168 15.7133 17.1624 16.2899C16.6725 16.5803 16.265 16.9878 15.9746 17.4776C15.3959 18.479 14.3306 19.0999 13.1742 19.1075C12.6031 19.1043 12.0407 19.2506 11.5443 19.5323C10.5451 20.1132 9.30967 20.1132 8.31056 19.5323C7.8142 19.2506 7.25176 19.1042 6.68064 19.1075C5.52214 19.0999 4.45361 18.4801 3.87164 17.4776C3.58444 16.9867 3.17481 16.577 2.6839 16.2899C1.67821 15.7133 1.0594 14.6404 1.06264 13.4809C1.06264 12.913 0.91634 12.3549 0.637837 11.8596C0.05695 10.8539 0.05695 9.61413 0.637837 8.60838C0.916351 8.11311 1.06264 7.555 1.06264 6.98713C1.05939 5.82754 1.67821 4.75466 2.6839 4.17813C3.17698 3.89312 3.58664 3.48346 3.87164 2.99038C4.45361 1.98794 5.52214 1.36804 6.68064 1.36047C7.25176 1.3648 7.8142 1.2185 8.31056 0.935665C9.30975 0.354778 10.5452 0.354778 11.5443 0.935665C12.0407 1.21851 12.6031 1.36483 13.1742 1.36047C14.3306 1.36806 15.3958 1.98902 15.9746 2.99038C16.2596 3.48346 16.6693 3.89312 17.1624 4.17813C18.168 4.75466 18.7869 5.82754 18.7836 6.98713C18.7869 7.55608 18.9353 8.11419 19.2171 8.60838C19.798 9.61407 19.798 10.8539 19.2171 11.8596ZM16.382 10.2297C15.8824 1.35409 3.52804 2.02825 3.52471 10.2297C3.48136 11.9463 4.14028 13.6066 5.34969 14.8267C6.55913 16.0459 8.2139 16.7178 9.93176 16.6886C11.643 16.6853 13.2837 16.0036 14.4922 14.7931C15.7016 13.5815 16.3809 11.9409 16.382 10.2297ZM2.3717 18.3532C2.33594 18.2892 2.29584 18.2286 2.25033 18.1711L0.0568946 21.8643C-0.0135482 21.9813 -0.0189663 22.1255 0.0428065 22.2479C0.10458 22.3693 0.224871 22.4506 0.360327 22.4625L2.17229 22.6532C2.28825 22.6673 2.39229 22.7302 2.45838 22.8266L3.49875 24.3265C3.57461 24.4381 3.70249 24.5031 3.83688 24.4999C3.97235 24.4966 4.09589 24.424 4.16634 24.3091L6.23842 20.824C4.62693 20.6723 3.1868 19.7522 2.3717 18.3532ZM19.8066 21.8644L17.6045 18.1623C16.7971 19.6503 15.3092 20.6451 13.625 20.8239L15.6971 24.309C15.7676 24.4239 15.8911 24.4965 16.0266 24.4998C16.161 24.503 16.2888 24.438 16.3647 24.3264L17.4051 22.8265C17.4712 22.7301 17.5752 22.6672 17.6912 22.6531L19.5031 22.4624C19.6386 22.4505 19.7589 22.3692 19.8207 22.2478C19.8824 22.1254 19.8771 21.9814 19.8066 21.8644Z" fill="#EA4335"/>
</svg>
