<svg width="25" height="25" viewBox="0 0 25 25" fill="none" xmlns="http://www.w3.org/2000/svg">
<rect width="25" height="25" rx="5" fill="#FCB040" fill-opacity="0.05"/>
<g clip-path="url(#clip0_212_6921)">
<path d="M8.94271 7.15283C8.61058 7.15302 8.29204 7.28473 8.05675 7.51914C7.82145 7.75356 7.68856 8.07161 7.68713 8.40374V8.80643C7.68713 9.13943 7.81942 9.45879 8.05488 9.69426C8.29035 9.92973 8.60971 10.062 8.94271 10.062C9.27572 10.062 9.59508 9.92973 9.83054 9.69426C10.066 9.45879 10.1983 9.13943 10.1983 8.80643V8.40374C10.1969 8.07161 10.064 7.75357 9.82867 7.51915C9.59338 7.28474 9.27485 7.15303 8.94271 7.15283ZM9.71001 8.80643C9.71001 9.00993 9.62917 9.2051 9.48528 9.34899C9.34138 9.49289 9.14621 9.57373 8.94271 9.57373C8.73921 9.57373 8.54405 9.49289 8.40015 9.34899C8.25626 9.2051 8.17542 9.00993 8.17542 8.80643V8.40374C8.17542 7.98333 8.5253 7.65199 8.94578 7.65199H8.94662C9.0462 7.65088 9.14502 7.66948 9.23738 7.70672C9.32974 7.74396 9.41382 7.7991 9.48478 7.86898C9.55574 7.93885 9.61217 8.02208 9.65083 8.11386C9.68948 8.20563 9.7096 8.30415 9.71001 8.40374V8.80643Z" fill="#FCB040"/>
<path d="M15.8833 10.0573C16.2154 10.0571 16.534 9.92539 16.7692 9.69096C17.0045 9.45654 17.1374 9.13848 17.1388 8.80634V8.40365C17.1388 8.07065 17.0066 7.75129 16.7711 7.51582C16.5356 7.28036 16.2163 7.14807 15.8833 7.14807C15.5503 7.14807 15.2309 7.28036 14.9954 7.51582C14.76 7.75129 14.6277 8.07065 14.6277 8.40365V8.80634C14.6291 9.13848 14.762 9.45654 14.9973 9.69096C15.2326 9.92539 15.5511 10.0571 15.8833 10.0573ZM15.116 8.40365C15.1159 8.30429 15.1356 8.2059 15.1738 8.11418C15.212 8.02246 15.268 7.93923 15.3386 7.86932C15.4092 7.7994 15.493 7.74419 15.5851 7.70687C15.6772 7.66955 15.7758 7.65087 15.8751 7.65191H15.8816C15.9814 7.65069 16.0806 7.66917 16.1733 7.70631C16.266 7.74344 16.3505 7.79849 16.4219 7.86832C16.4934 7.93814 16.5503 8.02136 16.5896 8.11322C16.6288 8.20508 16.6495 8.30377 16.6506 8.40365V8.80634C16.6506 9.00984 16.5697 9.20501 16.4258 9.34891C16.2819 9.4928 16.0868 9.57364 15.8833 9.57364C15.6798 9.57364 15.4846 9.4928 15.3407 9.34891C15.1968 9.20501 15.116 9.00984 15.116 8.80634V8.40365Z" fill="#FCB040"/>
<path d="M17.903 15.2348C17.9286 15.238 17.9546 15.2403 17.9809 15.2412C17.9914 15.2416 18.0016 15.2418 18.012 15.2418C18.1226 15.2415 18.232 15.2193 18.334 15.1765C18.436 15.1338 18.5285 15.0712 18.6062 14.9925C18.6839 14.9138 18.7452 14.8206 18.7867 14.718C18.8282 14.6155 18.849 14.5058 18.8478 14.3952V11.6516C18.8803 11.3176 18.789 10.9832 18.5913 10.7119C18.3937 10.4406 18.1033 10.2513 17.7753 10.1798C18.2797 9.10355 18.448 7.95197 18.2437 6.8998C17.8968 5.18052 16.6546 4.06955 15.0769 4.06955C14.2557 4.06955 13.3688 4.38379 12.5012 4.98019C11.6219 4.35714 10.7502 4.0415 9.90709 4.0415C8.32045 4.0415 7.08238 5.16455 6.75283 6.9021C6.5519 7.9495 6.71265 9.09427 7.20469 10.1639C6.88011 10.2147 6.58436 10.3798 6.37076 10.6294C6.15717 10.879 6.03979 11.1967 6.03979 11.5253C6.03979 11.5671 6.04778 11.6096 6.04778 11.6515V14.9936C6.04708 15.1053 6.06843 15.216 6.11062 15.3194C6.1528 15.4228 6.21498 15.5168 6.2936 15.5961C6.3713 15.6754 6.46397 15.7385 6.56623 15.7818C6.6685 15.8251 6.77833 15.8476 6.88937 15.8481H6.8991C7.04133 15.8458 7.18044 15.8061 7.30249 15.733L7.44646 20.131C7.45284 20.3078 7.51141 20.4787 7.61479 20.6222C7.71816 20.7657 7.86171 20.8754 8.02733 20.9374C8.19296 20.9994 8.37324 21.0111 8.54545 20.9708C8.71766 20.9305 8.87409 20.8401 8.99501 20.711C9.11621 20.84 9.27288 20.9302 9.44527 20.9703C9.61767 21.0103 9.79806 20.9984 9.9637 20.9361C10.1293 20.8737 10.2728 20.7637 10.376 20.6199C10.4792 20.4761 10.5375 20.305 10.5436 20.1281L10.6866 15.7354C10.8156 15.8061 10.9608 15.842 11.1079 15.8397C11.2551 15.8373 11.399 15.7966 11.5257 15.7218C11.6524 15.6469 11.7574 15.5403 11.8304 15.4126C11.9034 15.2848 11.9419 15.1402 11.9421 14.9931V14.3679C12.0468 14.4144 12.16 14.4599 12.2709 14.5039C12.2751 14.5056 12.2788 14.5072 12.2832 14.5086C12.4229 14.5627 12.5777 14.5627 12.7173 14.5086C12.7222 14.507 12.727 14.5051 12.7318 14.5032C12.809 14.4718 12.8857 14.4467 12.962 14.4142C12.9651 14.6371 13.0554 14.85 13.2135 15.0072C13.3717 15.1644 13.5851 15.2534 13.8081 15.2552H13.8084C13.8258 15.2552 13.8435 15.2477 13.8615 15.2466C13.8789 15.2455 13.8959 15.2403 13.913 15.2381L12.8826 19.3177C12.8508 19.4404 12.848 19.5688 12.8744 19.6927C12.9008 19.8167 12.9557 19.9328 13.0347 20.032C13.1136 20.1321 13.2147 20.2127 13.3299 20.2674C13.4452 20.3221 13.5715 20.3494 13.699 20.3473H14.4045C14.5179 20.7309 14.8576 21.0099 15.2605 21.0099H16.5653C16.9683 21.0099 17.3079 20.7309 17.4214 20.3473H18.1204C18.2479 20.3492 18.3742 20.3216 18.4894 20.2668C18.6047 20.2119 18.7057 20.1312 18.7846 20.031C18.8636 19.9308 18.9183 19.8137 18.9447 19.6888C18.971 19.564 18.9682 19.4347 18.9365 19.3111L17.903 15.2348ZM17.1737 13.9647H14.6626V11.9938C14.6617 11.9852 14.663 11.9765 14.6665 11.9686C14.6699 11.9607 14.6753 11.9537 14.6821 11.9485C14.689 11.9432 14.6972 11.94 14.7057 11.939C14.7143 11.938 14.723 11.9394 14.7309 11.9429L15.5994 12.2894C15.7993 12.3696 16.0224 12.3696 16.2224 12.2894L17.0903 11.9432C17.0993 11.9397 17.109 11.9384 17.1186 11.9393C17.1282 11.9403 17.1374 11.9435 17.1455 11.9487C17.1537 11.9533 17.1606 11.9598 17.1655 11.9677C17.1705 11.9757 17.1733 11.9847 17.1738 11.994L17.1737 13.9647ZM14.5126 14.8548C14.5909 14.7343 14.6382 14.5963 14.6502 14.453H17.1681C17.1793 14.5958 17.2256 14.7336 17.3029 14.8541L17.378 15.1506H14.4378L14.5126 14.8548ZM9.6951 11.8854L9.77881 12.2039L9.44081 12.4303L9.89028 11.0411L10.0489 11.3838L9.76611 11.6435C9.7334 11.6736 9.7095 11.712 9.69699 11.7546C9.68447 11.7972 9.68382 11.8424 9.6951 11.8854ZM8.99592 12.2341L8.50167 10.6514H9.50799L8.99592 12.2341ZM8.21749 11.6435L7.93781 11.3866L8.11304 11.0298L8.54314 12.4071L8.24669 12.1968L8.29415 11.8571C8.29962 11.8179 8.29549 11.778 8.28214 11.7409C8.26879 11.7037 8.2466 11.6703 8.21749 11.6435V11.6435ZM9.63857 20.5047C9.52944 20.5049 9.4246 20.4622 9.34663 20.3859C9.26866 20.3095 9.2238 20.2056 9.22171 20.0965V15.7784H8.73343V20.0965C8.73433 20.1496 8.72467 20.2024 8.705 20.2518C8.68534 20.3012 8.65606 20.3462 8.61888 20.3841C8.58169 20.4221 8.53734 20.4523 8.48839 20.473C8.43943 20.4937 8.38686 20.5045 8.33371 20.5047C8.22757 20.503 8.12623 20.4602 8.05096 20.3854C7.97568 20.3106 7.93233 20.2095 7.93 20.1033L7.76583 14.9413H10.2236L10.0509 20.1025C10.0468 20.2096 10.0017 20.311 9.92501 20.3859C9.84829 20.4608 9.74575 20.5033 9.63857 20.5047V20.5047ZM11.454 11.6152C11.4536 11.6234 11.4536 11.6316 11.454 11.6398V14.993C11.454 15.0902 11.4155 15.1833 11.3468 15.252C11.2781 15.3207 11.1849 15.3592 11.0878 15.3592C10.9907 15.3592 10.8975 15.3207 10.8289 15.252C10.7602 15.1833 10.7216 15.0902 10.7216 14.993V14.2524L10.7251 14.1478H10.7216V12.744H10.2332V14.2448L10.2395 14.453H7.7499L7.73211 14.1231L7.72199 14.1319V12.744H7.23371V14.9766C7.23371 15.1809 7.08852 15.3598 6.89355 15.3598H6.88947C6.84256 15.3591 6.79626 15.3491 6.75324 15.3304C6.71022 15.3117 6.67133 15.2846 6.63885 15.2508C6.57202 15.182 6.53511 15.0895 6.53617 14.9936V11.6399C6.53542 11.6316 6.53426 11.6234 6.53268 11.6153C6.52928 11.5881 6.5274 11.5606 6.52706 11.5332C6.52723 11.4169 6.55038 11.3017 6.59517 11.1944C6.63996 11.087 6.70552 10.9896 6.78807 10.9077C6.87063 10.8257 6.96856 10.7609 7.07623 10.7169C7.18391 10.673 7.29922 10.6507 7.41553 10.6514H7.76231L7.41905 11.3431C7.39583 11.3897 7.38853 11.4428 7.39829 11.494C7.40805 11.5452 7.43431 11.5918 7.47308 11.6267L7.79283 11.9184L7.74254 12.2772C7.73635 12.3214 7.74246 12.3665 7.76019 12.4075C7.77792 12.4485 7.80659 12.4838 7.84305 12.5096L8.85052 13.2242C8.85582 13.228 8.86154 13.2307 8.86705 13.234C8.87172 13.2368 8.87626 13.2399 8.881 13.2423C8.88797 13.2458 8.89547 13.2486 8.9028 13.2515C8.90744 13.2533 8.91194 13.2555 8.91675 13.257C8.92505 13.2596 8.93348 13.2616 8.942 13.2632C8.94601 13.2641 8.94992 13.2653 8.95393 13.266C8.96647 13.268 8.97914 13.269 8.99184 13.269C9.00408 13.269 9.0163 13.268 9.02839 13.2661C9.03226 13.2656 9.03599 13.2644 9.03983 13.2636C9.04806 13.2621 9.05621 13.2602 9.06424 13.2578C9.06878 13.2564 9.0731 13.2544 9.07757 13.2527C9.08472 13.25 9.09187 13.2474 9.09884 13.244C9.10352 13.2417 9.10798 13.2389 9.11255 13.2363C9.11712 13.2336 9.12277 13.231 9.12762 13.2277L10.1949 12.5127C10.237 12.4845 10.2694 12.4438 10.2873 12.3963C10.3053 12.3489 10.308 12.297 10.2951 12.2479L10.2047 11.9035L10.5105 11.6227C10.5485 11.5892 10.5745 11.5443 10.5847 11.4947C10.5949 11.4452 10.5886 11.3936 10.5669 11.3479L10.2409 10.6514H10.5682C10.5979 10.6514 10.6286 10.6453 10.6583 10.6483C10.7741 10.6593 10.8866 10.6931 10.9894 10.7477C11.0921 10.8023 11.1831 10.8767 11.257 10.9665C11.3309 11.0564 11.3864 11.1599 11.4202 11.2713C11.454 11.3826 11.4655 11.4995 11.454 11.6153V11.6152ZM12.9518 11.5331C12.9518 11.5749 12.9536 11.6098 12.9536 11.6516V13.875C12.8141 13.9341 12.6892 13.9919 12.5522 14.0475C12.535 14.0532 12.5174 14.0577 12.4995 14.0609C12.4802 14.0582 12.4613 14.0536 12.4429 14.0472C12.2726 13.9796 12.1165 13.9083 11.9421 13.8349V11.6516C11.9746 11.2907 11.8631 10.9316 11.6319 10.6526C11.4007 10.3736 11.0685 10.1974 10.7079 10.1623C10.6618 10.1577 10.6141 10.1629 10.5682 10.1629H9.9451C9.91113 10.1281 9.87371 10.1416 9.8351 10.144C9.8072 10.1458 9.78062 10.1281 9.75579 10.1629H8.25806C8.23434 10.1281 8.20895 10.1464 8.18237 10.1444C8.143 10.1414 8.1046 10.1281 8.06965 10.1629H7.73919C7.21924 9.11663 7.03917 8.01025 7.23277 7.00119C7.37409 6.25586 7.70124 5.62758 8.17875 5.19134C8.65051 4.76018 9.26851 4.52444 9.90758 4.53184C10.6891 4.53184 11.5121 4.84923 12.3539 5.47733C12.3957 5.50841 12.4464 5.52532 12.4984 5.52558C12.5505 5.52584 12.6013 5.50943 12.6434 5.47876C13.4729 4.87671 14.3149 4.55835 15.0783 4.55835C15.7366 4.55835 16.3354 4.78481 16.8098 5.21341C17.2883 5.64561 17.6195 6.26985 17.7673 7.00262C17.9626 8.00844 17.7795 9.11698 17.2524 10.1633H14.3336C13.9688 10.1618 13.6183 10.3053 13.3592 10.5622C13.1001 10.8191 12.9536 11.1683 12.9518 11.5331V11.5331ZM13.8359 14.7592C13.8278 14.7597 13.8153 14.7668 13.8078 14.7668C13.7107 14.764 13.6185 14.7238 13.5503 14.6547C13.4822 14.5855 13.4433 14.4927 13.4419 14.3956V11.6399C13.4419 11.6317 13.4453 11.6235 13.4447 11.6153C13.4423 11.588 13.4415 11.5606 13.4421 11.5332C13.4427 11.4167 13.4662 11.3015 13.5113 11.1941C13.5564 11.0867 13.6222 10.9893 13.705 10.9074C13.7878 10.8255 13.886 10.7608 13.9939 10.7168C14.1017 10.6729 14.2172 10.6507 14.3336 10.6514H17.4863C17.5159 10.6514 17.5462 10.6453 17.5759 10.6483C17.6916 10.6599 17.8039 10.6943 17.9063 10.7494C18.0087 10.8045 18.0992 10.8793 18.1726 10.9695C18.246 11.0597 18.3009 11.1635 18.3341 11.275C18.3672 11.3865 18.3781 11.5034 18.3659 11.6191C18.3651 11.6272 18.3596 11.6317 18.3596 11.64V14.3953C18.3607 14.4431 18.352 14.4907 18.334 14.535C18.3161 14.5793 18.2892 14.6195 18.2552 14.6531C18.2218 14.6864 18.182 14.7126 18.1381 14.7298C18.0942 14.7471 18.0472 14.7551 18.0001 14.7533C17.8099 14.7465 17.662 14.5795 17.662 14.3809V11.9939C17.661 11.9048 17.6383 11.8173 17.596 11.7389C17.5536 11.6605 17.4928 11.5936 17.4188 11.5439C17.3448 11.4943 17.2598 11.4634 17.1712 11.4539C17.0826 11.4444 16.993 11.4566 16.9101 11.4895L16.0414 11.8357C15.9572 11.8694 15.8633 11.8694 15.7791 11.8357L14.9095 11.4892C14.8276 11.4565 14.7389 11.4445 14.6513 11.4542C14.5636 11.4639 14.4798 11.4951 14.407 11.545C14.3343 11.5949 14.2751 11.662 14.2345 11.7403C14.1939 11.8185 14.1732 11.9056 14.1743 11.9938V14.3787C14.1743 14.5765 14.0229 14.7475 13.836 14.7593L13.8359 14.7592ZM16.5652 20.5217H15.2604C15.1987 20.5194 15.1385 20.5024 15.0847 20.4721C15.031 20.4417 14.9853 20.3989 14.9515 20.3473H16.8741C16.8403 20.3989 16.7947 20.4417 16.7409 20.4721C16.6872 20.5024 16.6269 20.5194 16.5652 20.5217ZM18.3995 19.731C18.366 19.7724 18.3234 19.8056 18.275 19.8278C18.2266 19.85 18.1737 19.8607 18.1204 19.859H13.699C13.6458 19.8609 13.5929 19.8503 13.5444 19.8282C13.496 19.806 13.4534 19.7728 13.4201 19.7313C13.3868 19.6897 13.3637 19.641 13.3525 19.5889C13.3414 19.5368 13.3426 19.4828 13.356 19.4313L14.3147 15.6388H17.5016L18.4631 19.4311C18.4765 19.4826 18.4777 19.5365 18.4667 19.5885C18.4556 19.6406 18.4326 19.6893 18.3995 19.731Z" fill="#FCB040"/>
</g>
<defs>
<clipPath id="clip0_212_6921">
<rect width="17.8571" height="17.8571" fill="white" transform="translate(3.57202 3.57141)"/>
</clipPath>
</defs>
</svg>
