<svg width="25" height="25" viewBox="0 0 25 25" fill="none" xmlns="http://www.w3.org/2000/svg">
<rect width="25" height="25" rx="5" fill="#029D4A" fill-opacity="0.05"/>
<path d="M5.59381 19.6429H6.07C6.09622 19.6429 6.12226 19.6386 6.14706 19.6301L15.1947 16.5349C15.2291 16.5231 15.2603 16.5037 15.286 16.478L15.7622 16.0018C15.7843 15.9797 15.8018 15.9534 15.8138 15.9245C15.8258 15.8956 15.8319 15.8647 15.8319 15.8334C15.8319 15.8022 15.8258 15.7712 15.8138 15.7423C15.8018 15.7134 15.7843 15.6872 15.7622 15.6651L9.80978 9.71268C9.76513 9.66803 9.70457 9.64294 9.64143 9.64294C9.57828 9.64294 9.51773 9.66803 9.47307 9.71268L8.99688 10.1889C8.97489 10.2109 8.95742 10.2369 8.94545 10.2656L5.37402 18.8371C5.36194 18.8661 5.35571 18.8972 5.35571 18.9287V19.4049C5.35571 19.4361 5.36187 19.4671 5.37383 19.496C5.3858 19.5249 5.40334 19.5511 5.42545 19.5732C5.44756 19.5953 5.4738 19.6129 5.50269 19.6248C5.53158 19.6368 5.56254 19.6429 5.59381 19.6429ZM11.8389 17.1796L10.2956 17.7076L6.89501 16.4248L7.29111 15.4742L11.8389 17.1796ZM7.47438 15.0343L7.87026 14.0842L14.0801 16.4129L12.5481 16.937L7.47438 15.0343ZM9.58809 17.9496L8.06582 18.4704L6.31608 17.8143L6.71176 16.8646L9.58809 17.9496ZM14.9883 16.1022L14.7893 16.1703L8.05353 13.6444L8.4494 12.6943L14.3191 14.8954L15.2571 15.8334L14.9883 16.1022ZM13.5053 14.0817L8.63268 12.2544L9.02856 11.3043L11.7476 12.324L13.5053 14.0817ZM9.64143 10.2178L10.9339 11.5102L9.21183 10.8644L9.3669 10.4923L9.64143 10.2178ZM5.8319 18.9763L6.1328 18.2541L7.35661 18.7131L6.0304 19.1668H5.8319V18.9763Z" fill="#029D4A"/>
<path d="M10.664 9.47453C10.6419 9.49663 10.6244 9.52288 10.6124 9.55177C10.6004 9.58065 10.5943 9.61162 10.5943 9.64288C10.5943 9.67415 10.6004 9.70511 10.6124 9.734C10.6244 9.76288 10.6419 9.78913 10.664 9.81124L11.3783 10.5255C11.4004 10.5476 11.4267 10.5652 11.4555 10.5771C11.4844 10.5891 11.5154 10.5953 11.5467 10.5953C11.5497 10.5953 11.5528 10.5952 11.5558 10.5951C11.5886 10.5938 11.6208 10.5858 11.6503 10.5715C11.6798 10.5573 11.7061 10.537 11.7274 10.5121L12.7881 9.27465C12.9766 9.05479 13.1081 8.79195 13.1711 8.5093C13.234 8.22665 13.2266 7.93285 13.1493 7.65377C13.072 7.3747 12.9272 7.11891 12.7278 6.90893C12.5284 6.69896 12.2804 6.54124 12.0057 6.44967L11.7221 6.35515C11.2449 6.1952 10.8342 5.88151 10.5543 5.46319C10.5193 5.41066 10.4648 5.37419 10.4029 5.3618C10.341 5.34942 10.2767 5.36214 10.2241 5.39716L9.50984 5.87335C9.48289 5.89131 9.4599 5.91457 9.44226 5.94172C9.42461 5.96887 9.41269 5.99934 9.40723 6.03125C9.40176 6.06316 9.40286 6.09586 9.41046 6.12733C9.41806 6.15881 9.432 6.1884 9.45143 6.2143L9.74567 6.60661C10.046 7.00679 10.4461 7.32119 10.9059 7.51845L11.5258 7.78414C11.59 7.81164 11.6465 7.85445 11.6902 7.90882C11.734 7.96319 11.7638 8.02747 11.7771 8.09603C11.7903 8.16458 11.7865 8.23533 11.766 8.30208C11.7455 8.36883 11.709 8.42954 11.6596 8.47891L10.664 9.47453ZM11.7134 7.34646L11.0935 7.08077C10.7103 6.91638 10.3769 6.65438 10.1266 6.32091L9.9834 6.12994L10.2989 5.91961C10.6294 6.33116 11.0711 6.63913 11.5715 6.8069L11.8551 6.90142C12.0557 6.9683 12.2369 7.0835 12.3825 7.23686C12.5282 7.39022 12.6339 7.57704 12.6903 7.78088C12.7468 7.98471 12.7523 8.1993 12.7063 8.40574C12.6603 8.61219 12.5642 8.80415 12.4266 8.96474L11.5332 10.007L11.1691 9.64288L11.9964 8.81562C12.1007 8.71123 12.178 8.58284 12.2213 8.4417C12.2645 8.30055 12.2726 8.15095 12.2447 8.00598C12.2167 7.86101 12.1537 7.72509 12.0611 7.61011C11.9685 7.49514 11.8491 7.40462 11.7134 7.34646Z" fill="#029D4A"/>
<path d="M13.7747 6.84286C13.7435 6.86953 13.7197 6.90382 13.7057 6.94239C13.6916 6.98097 13.6878 7.02252 13.6945 7.06301L13.9326 8.49159C13.9394 8.53253 13.9569 8.57098 13.9831 8.60313C14.0094 8.63527 14.0436 8.65998 14.0824 8.67482C14.1212 8.68966 14.1631 8.6941 14.2041 8.68771C14.2452 8.68131 14.2838 8.66431 14.3162 8.63837L15.5067 7.68599C15.5401 7.65924 15.5657 7.62397 15.5808 7.5839C15.5959 7.54382 15.5999 7.50042 15.5923 7.45827C15.5848 7.41612 15.5661 7.37677 15.5381 7.34438C15.5101 7.31198 15.4739 7.28774 15.4332 7.27419L14.0047 6.798C13.9657 6.78501 13.9241 6.78231 13.8838 6.79017C13.8435 6.79803 13.8059 6.81618 13.7747 6.84286ZM14.8675 7.58755L14.3356 8.01302L14.2293 7.37481L14.8675 7.58755Z" fill="#029D4A"/>
<path d="M12.7945 5.60247L12.679 6.06445L13.6313 6.30255L13.7468 5.84057L12.7945 5.60247Z" fill="#029D4A"/>
<path d="M15.7013 5.39722L14.9871 5.87341L15.2512 6.26962L15.9655 5.79343L15.7013 5.39722Z" fill="#029D4A"/>
<path d="M9.8714 7.44224L9.40942 7.55774L9.64752 8.51012L10.1095 8.39463L9.8714 7.44224Z" fill="#029D4A"/>
<path d="M19.5342 14.4447C19.1159 14.1648 18.8022 13.7541 18.6422 13.2769L18.5477 12.9933C18.4561 12.7186 18.2984 12.4706 18.0884 12.2712C17.8785 12.0718 17.6227 11.927 17.3436 11.8497C17.0645 11.7724 16.7707 11.7649 16.4881 11.8279C16.2054 11.8909 15.9426 12.0224 15.7227 12.2108L14.4852 13.2715C14.4603 13.2929 14.4401 13.3192 14.4258 13.3487C14.4116 13.3782 14.4035 13.4104 14.4023 13.4432C14.401 13.476 14.4065 13.5086 14.4185 13.5392C14.4305 13.5697 14.4486 13.5975 14.4718 13.6207L15.1861 14.335C15.2308 14.3796 15.2913 14.4047 15.3545 14.4047C15.4176 14.4047 15.4782 14.3796 15.5228 14.335L16.5185 13.3393C16.5678 13.29 16.6285 13.2535 16.6953 13.233C16.762 13.2125 16.8328 13.2087 16.9013 13.2219C16.9699 13.2351 17.0342 13.2649 17.0885 13.3087C17.1429 13.3525 17.1857 13.409 17.2132 13.4732L17.4789 14.0931C17.6762 14.5529 17.9906 14.953 18.3908 15.2533L18.7831 15.5476C18.809 15.567 18.8386 15.5809 18.87 15.5885C18.9015 15.5961 18.9342 15.5972 18.9661 15.5918C18.998 15.5863 19.0285 15.5744 19.0556 15.5567C19.0828 15.5391 19.1061 15.5161 19.124 15.4891L19.6002 14.7749C19.6176 14.7488 19.6296 14.7197 19.6357 14.689C19.6417 14.6583 19.6417 14.6268 19.6356 14.5961C19.6294 14.5654 19.6173 14.5363 19.5999 14.5103C19.5825 14.4843 19.5602 14.462 19.5342 14.4447ZM18.8674 15.0156L18.6765 14.8724C18.343 14.6221 18.081 14.2887 17.9166 13.9055L17.6509 13.2856C17.5927 13.1499 17.5022 13.0305 17.3873 12.9379C17.2723 12.8453 17.1364 12.7822 16.9914 12.7543C16.8464 12.7264 16.6968 12.7344 16.5557 12.7777C16.4145 12.821 16.2861 12.8982 16.1817 13.0026L15.3545 13.8299L14.9904 13.4658L16.0326 12.5724C16.1932 12.4347 16.3852 12.3387 16.5916 12.2927C16.7981 12.2467 17.0127 12.2522 17.2165 12.3086C17.4203 12.3651 17.6071 12.4708 17.7605 12.6165C17.9139 12.7621 18.0291 12.9432 18.096 13.1439L18.1905 13.4275C18.3582 13.9279 18.6662 14.3696 19.0778 14.7001L18.8674 15.0156Z" fill="#029D4A"/>
<path d="M18.9154 11.2343L18.4392 9.80574C18.4256 9.76512 18.4014 9.72891 18.369 9.70091C18.3366 9.67291 18.2973 9.65416 18.2551 9.64664C18.213 9.63913 18.1696 9.64311 18.1295 9.65819C18.0894 9.67326 18.0541 9.69886 18.0274 9.7323L17.075 10.9228C17.0491 10.9552 17.0321 10.9938 17.0257 11.0348C17.0193 11.0759 17.0237 11.1178 17.0386 11.1566C17.0534 11.1954 17.0781 11.2296 17.1102 11.2559C17.1424 11.2821 17.1808 11.2995 17.2218 11.3064L18.6504 11.5445C18.6909 11.5512 18.7324 11.5474 18.771 11.5333C18.8096 11.5193 18.8438 11.4955 18.8705 11.4643C18.8972 11.4331 18.9153 11.3955 18.9232 11.3552C18.931 11.3149 18.9284 11.2733 18.9154 11.2343ZM17.7003 10.9034L18.1258 10.3715L18.3386 11.0097L17.7003 10.9034Z" fill="#029D4A"/>
<path d="M19.16 11.9662L18.698 12.0817L18.9361 13.034L19.3981 12.9186L19.16 11.9662Z" fill="#029D4A"/>
<path d="M19.2032 9.03461L18.7271 9.7489L19.1233 10.013L19.5994 9.29875L19.2032 9.03461Z" fill="#029D4A"/>
<path d="M16.604 14.888L16.4885 15.35L17.4409 15.5881L17.5564 15.1261L16.604 14.888Z" fill="#029D4A"/>
<path d="M19.6341 7.68046L19.396 6.72808C19.3883 6.69733 19.3746 6.66843 19.3556 6.64306C19.3366 6.6177 19.3127 6.59638 19.2853 6.58037C19.258 6.56435 19.2277 6.55396 19.1963 6.54979C19.1649 6.54563 19.1329 6.54778 19.1024 6.55612L17.2606 7.05841C16.984 7.1334 16.7332 7.2827 16.5355 7.49011C16.3377 7.69752 16.2005 7.95513 16.1388 8.23498C16.0611 8.58266 15.8766 8.89734 15.6112 9.13497C15.3458 9.37261 15.0128 9.52129 14.6586 9.56021L14.6317 9.56321C14.101 9.62148 13.6125 9.87991 13.2658 10.2858L12.3175 11.3928C12.2785 11.4384 12.2581 11.497 12.2604 11.5569C12.2627 11.6168 12.2876 11.6737 12.33 11.7161L13.0443 12.4304C13.0664 12.4525 13.0926 12.47 13.1215 12.482C13.1504 12.494 13.1814 12.5001 13.2126 12.5001C13.2162 12.5001 13.2198 12.5 13.2234 12.4999C13.2565 12.4984 13.2888 12.49 13.3185 12.4753C13.3481 12.4606 13.3744 12.4399 13.3955 12.4145C13.3955 12.4145 13.7262 12.0177 14.0383 11.6424C14.3495 11.2677 14.7963 11.0314 15.2811 10.9849L15.3092 10.9821C15.7959 10.9335 16.254 10.7295 16.6158 10.4003C16.9775 10.0712 17.2238 9.63438 17.3182 9.15446L17.3249 9.12008C17.3662 8.90988 17.4679 8.71629 17.6175 8.56296C17.7671 8.40963 17.9581 8.30322 18.1672 8.25675L19.4548 7.97064C19.4858 7.96374 19.5151 7.9507 19.5411 7.93228C19.567 7.91386 19.5889 7.89043 19.6057 7.86338C19.6224 7.83634 19.6335 7.80622 19.6384 7.7748C19.6433 7.74338 19.6418 7.71131 19.6341 7.68046ZM18.0639 7.79189C17.7645 7.85845 17.4909 8.01084 17.2767 8.23042C17.0624 8.45 16.9168 8.72726 16.8577 9.02828L16.8509 9.06266C16.7779 9.44301 16.5835 9.78945 16.297 10.0501C16.0105 10.3107 15.6473 10.4715 15.2617 10.5083L15.2337 10.5111C14.6244 10.5697 14.0631 10.8669 13.6722 11.3379C13.4996 11.5454 13.3214 11.7594 13.1966 11.9093L12.8226 11.5352L13.6274 10.5956C13.8957 10.2815 14.2737 10.0816 14.6843 10.0365L14.7113 10.0335C15.1641 9.98359 15.59 9.79334 15.9293 9.48936C16.2686 9.18538 16.5044 8.7829 16.6036 8.33826C16.6467 8.14311 16.7423 7.96348 16.8802 7.81885C17.0182 7.67422 17.193 7.57012 17.3859 7.51783L18.993 7.07953L19.1128 7.55881L18.0639 7.79189Z" fill="#029D4A"/>
</svg>
