<svg width="30" height="30" viewBox="0 0 30 30" fill="none" xmlns="http://www.w3.org/2000/svg">
<rect x="0.5" y="0.5" width="29" height="29" rx="6.5" fill="white" fill-opacity="0.05" stroke="white"/>
<path d="M15 24C15.3883 24 15.7031 23.6852 15.7031 23.2969C15.7031 22.9085 15.3883 22.5938 15 22.5938C14.6117 22.5938 14.2969 22.9085 14.2969 23.2969C14.2969 23.6852 14.6117 24 15 24Z" fill="white"/>
<path d="M23.2969 15.7031C23.6852 15.7031 24 15.3883 24 15C24 14.6117 23.6852 14.2969 23.2969 14.2969C22.9085 14.2969 22.5938 14.6117 22.5938 15C22.5938 15.3883 22.9085 15.7031 23.2969 15.7031Z" fill="white"/>
<path d="M6.70312 15.7031C7.09145 15.7031 7.40625 15.3883 7.40625 15C7.40625 14.6117 7.09145 14.2969 6.70312 14.2969C6.3148 14.2969 6 14.6117 6 15C6 15.3883 6.3148 15.7031 6.70312 15.7031Z" fill="white"/>
<path d="M21.2625 21.2628C21.5371 20.9882 21.5371 20.543 21.2625 20.2685C20.9879 19.9939 20.5427 19.9939 20.2681 20.2685C19.9936 20.5431 19.9936 20.9883 20.2682 21.2629C20.5428 21.5374 20.988 21.5374 21.2625 21.2628Z" fill="white"/>
<path d="M9.5907 9.59094C9.86529 9.31635 9.86529 8.87115 9.5907 8.59656C9.31611 8.32196 8.87091 8.32196 8.59631 8.59656C8.32172 8.87115 8.32172 9.31635 8.59631 9.59094C8.87091 9.86554 9.31611 9.86554 9.5907 9.59094Z" fill="white"/>
<path d="M9.59058 21.2628C9.86518 20.9882 9.86521 20.543 9.59065 20.2684C9.3161 19.9938 8.87092 19.9938 8.59632 20.2684C8.32173 20.5429 8.32169 20.9881 8.59625 21.2627C8.87081 21.5373 9.31599 21.5373 9.59058 21.2628Z" fill="white"/>
<path d="M21.3729 13.7343C21.6683 13.7343 21.9414 13.911 22.1165 14.1737C22.2268 14.0165 22.3677 13.8829 22.5304 13.7802C22.3117 13.4888 22.0038 13.2791 21.6534 13.204C21.4825 12.5694 21.2235 11.9711 20.8898 11.423C21.0308 11.1462 21.0764 10.8264 21.0282 10.5115C20.838 10.5463 20.6425 10.5422 20.4535 10.5005C20.4699 10.5675 20.4802 10.6359 20.4838 10.7045C20.4971 10.9649 20.4145 11.1984 20.2509 11.362L19.9317 11.681L18.1792 9.92832L18.498 9.60937C18.6492 9.45817 18.8637 9.37495 19.102 9.37495C19.1889 9.37495 19.2753 9.3869 19.3598 9.40756C19.318 9.21867 19.3138 9.02339 19.3484 8.83332C19.2664 8.82076 19.184 8.81245 19.102 8.81245C18.8488 8.81245 18.6009 8.87452 18.3828 8.99852C17.8887 8.71941 17.3571 8.49899 16.7969 8.34794C16.722 7.9974 16.5121 7.68923 16.2206 7.47034C16.1178 7.633 15.9842 7.77389 15.827 7.88424C16.0897 8.05933 16.2664 8.33248 16.2664 8.62781V9.0937H13.7352V8.62781C13.7352 8.33248 13.9118 8.05933 14.1746 7.88424C14.0174 7.77389 13.8837 7.633 13.781 7.47034C13.4898 7.68902 13.2801 7.99692 13.2049 8.34704C12.6176 8.50559 12.0614 8.74001 11.5471 9.03877C11.3135 8.8866 11.0391 8.81238 10.7589 8.81238C10.6769 8.81238 10.5946 8.82069 10.5125 8.83325C10.5472 9.02332 10.5429 9.21867 10.5011 9.40749C10.5856 9.3869 10.6721 9.37488 10.759 9.37488C10.9973 9.37488 11.2117 9.45817 11.3628 9.6093L11.6818 9.92832L9.92918 11.681L9.61015 11.362C9.39612 11.1479 9.33274 10.8163 9.40958 10.4999C9.21993 10.5421 9.02369 10.5464 8.83281 10.5115C8.77732 10.8735 8.8451 11.2422 9.04099 11.5439C8.74161 12.0588 8.50678 12.6158 8.34789 13.204C7.99785 13.2792 7.68995 13.4889 7.47119 13.7802C7.63385 13.8829 7.77474 14.0165 7.88502 14.1737C8.06019 13.911 8.33326 13.7343 8.62859 13.7343H9.09455V16.2656H8.62859C8.33326 16.2656 8.06019 16.0888 7.88509 15.8261C7.77474 15.9834 7.63385 16.117 7.47119 16.2197C7.68995 16.511 7.99785 16.7207 8.34803 16.7959C8.49539 17.3426 8.70804 17.8624 8.97762 18.3464C8.7432 18.6379 8.64762 19.0108 8.68058 19.3838C8.86232 19.3295 9.05266 19.3121 9.24006 19.3309C9.23902 19.3191 9.2371 19.3073 9.23649 19.2953C9.2231 19.035 9.30583 18.8015 9.4696 18.6378L9.78848 18.3188L11.5411 20.0715L11.2222 20.3904C11.071 20.5416 10.8565 20.6249 10.6182 20.6249C10.5884 20.6249 10.5588 20.6229 10.5292 20.6204C10.5479 20.8079 10.5303 20.9985 10.476 21.1803C10.5235 21.1846 10.5709 21.1874 10.6182 21.1874C10.9245 21.1874 11.2232 21.0975 11.4699 20.9151C12.0054 21.2355 12.5878 21.486 13.2047 21.6523C13.2799 22.0026 13.4896 22.3108 13.781 22.5296C13.8838 22.3668 14.0174 22.2259 14.1746 22.1157C13.9118 21.9406 13.7352 21.6674 13.7352 21.3722V20.9062H16.2664V21.3722C16.2664 21.6674 16.0897 21.9406 15.827 22.1157C15.9842 22.2259 16.1178 22.3668 16.2206 22.5296C16.5117 22.3109 16.7215 22.003 16.7967 21.653C17.3843 21.4945 17.9405 21.2601 18.4548 20.9613C18.6884 21.1133 18.9626 21.1874 19.2426 21.1874C19.2899 21.1874 19.3374 21.1846 19.3849 21.1803C19.3305 20.9985 19.3129 20.8079 19.3318 20.6204C19.3021 20.6229 19.2724 20.6249 19.2426 20.6249C19.0044 20.6249 18.7898 20.5417 18.6386 20.3904L18.3196 20.0715L20.0724 18.3189L20.3912 18.6379C20.5549 18.8015 20.6378 19.0351 20.6244 19.2955C20.6239 19.3073 20.6218 19.3191 20.6209 19.331C20.8082 19.3121 20.9985 19.3297 21.1803 19.3838C21.2093 19.0555 21.1378 18.7276 20.9605 18.4546C21.2594 17.9402 21.4944 17.3838 21.6529 16.7961C22.0034 16.721 22.3115 16.5111 22.5304 16.2197C22.3677 16.117 22.2268 15.9834 22.1165 15.8261C21.9414 16.0888 21.6683 16.2656 21.3729 16.2656H20.9071V13.7343H21.3729ZM20.7061 16.8281H21.0581C20.9326 17.2427 20.7656 17.6391 20.5619 18.0131C20.4893 17.9403 20.4065 17.8576 20.3244 17.7754C20.2553 17.7063 20.1647 17.6718 20.0736 17.6718C19.9812 17.6718 19.8884 17.7074 19.8175 17.7782L17.779 19.8168C17.6382 19.9577 17.6371 20.1844 17.7762 20.3236L18.0144 20.5616C17.6403 20.7645 17.2434 20.9295 16.8289 21.0544V20.7053C16.8289 20.5056 16.6654 20.3437 16.4634 20.3437H13.5384C13.3364 20.3437 13.1727 20.5056 13.1727 20.7053C13.1727 20.8272 13.1727 20.9504 13.1727 21.0574C12.7246 20.9216 12.2977 20.7372 11.8974 20.5107C11.9571 20.4511 12.0209 20.3872 12.0847 20.3235C12.2238 20.1844 12.2226 19.9574 12.0818 19.8166L10.0433 17.7781C9.97236 17.7073 9.87966 17.6718 9.78738 17.6718C9.69626 17.6718 9.60556 17.7063 9.53641 17.7754L9.39276 17.919C9.21231 17.5728 9.06385 17.2079 8.94912 16.8281H9.29546C9.49514 16.8281 9.65705 16.6645 9.65705 16.4625V13.5375C9.65705 13.3355 9.49514 13.1718 9.29546 13.1718C9.17461 13.1718 9.05266 13.1718 8.94638 13.1718C9.07121 12.7574 9.23627 12.3603 9.43904 11.9863L9.67718 12.2245C9.74632 12.2935 9.83702 12.3281 9.92806 12.3281C10.0204 12.3281 10.1131 12.2926 10.1839 12.2217L12.2225 10.1831C12.3633 10.0424 12.3645 9.8155 12.2254 9.67632C12.143 9.59399 12.0601 9.51104 11.9873 9.43819C12.3613 9.23542 12.7582 9.07028 13.1727 8.94552C13.1727 9.05175 13.1727 9.17376 13.1727 9.29461C13.1727 9.49428 13.3364 9.6562 13.5384 9.6562H16.4634C16.6654 9.6562 16.8289 9.49428 16.8289 9.29461V8.94559C17.209 9.06081 17.5737 9.21063 17.92 9.39184L17.6356 9.67632C17.4965 9.8155 17.4976 10.0423 17.6384 10.1831L19.6769 12.2216C19.7479 12.2926 19.8406 12.3281 19.933 12.3281C20.024 12.3281 20.1147 12.2936 20.1837 12.2245C20.3028 12.1054 20.4231 11.9851 20.512 11.8964C20.7383 12.2967 20.9224 12.7238 21.0581 13.1718C20.9513 13.1718 20.8281 13.1718 20.7061 13.1718C20.5065 13.1718 20.3446 13.3355 20.3446 13.5375V16.4625C20.3446 16.6645 20.5065 16.8281 20.7061 16.8281Z" fill="white"/>
<path d="M21.2626 9.59094C21.5372 9.31634 21.5372 8.87113 21.2626 8.59654C20.988 8.32195 20.5428 8.32195 20.2682 8.59655C19.9936 8.87115 19.9936 9.31635 20.2682 9.59094C20.5428 9.86554 20.988 9.86553 21.2626 9.59094Z" fill="white"/>
<path d="M16.8281 11.3438H13.1719C12.5531 11.3438 12.0469 11.85 12.0469 12.4688V17.5312C12.0469 18.1501 12.5531 18.6562 13.1719 18.6562H16.8281C17.4469 18.6562 17.9531 18.1501 17.9531 17.5312V12.4688C17.9531 11.85 17.4469 11.3438 16.8281 11.3438ZM17.3906 17.5312C17.3906 17.8415 17.1384 18.0938 16.8281 18.0938H13.1719C12.8617 18.0938 12.6094 17.8415 12.6094 17.5312V12.4688C12.6094 12.1586 12.8617 11.9062 13.1719 11.9062H16.8281C17.1384 11.9062 17.3906 12.1586 17.3906 12.4688V17.5312Z" fill="white"/>
<path d="M16.5469 13.0312H13.4531C13.2978 13.0312 13.1719 13.1572 13.1719 13.3125C13.1719 13.4678 13.2978 13.5938 13.4531 13.5938H16.5469C16.7022 13.5938 16.8281 13.4678 16.8281 13.3125C16.8281 13.1572 16.7022 13.0312 16.5469 13.0312Z" fill="white"/>
<path d="M16.5469 14.1562H13.4531C13.2978 14.1562 13.1719 14.2822 13.1719 14.4375C13.1719 14.5928 13.2978 14.7188 13.4531 14.7188H16.5469C16.7022 14.7188 16.8281 14.5928 16.8281 14.4375C16.8281 14.2822 16.7022 14.1562 16.5469 14.1562Z" fill="white"/>
<path d="M16.5469 15.2812H13.4531C13.2978 15.2812 13.1719 15.4072 13.1719 15.5625C13.1719 15.7178 13.2978 15.8438 13.4531 15.8438H16.5469C16.7022 15.8438 16.8281 15.7178 16.8281 15.5625C16.8281 15.4072 16.7022 15.2812 16.5469 15.2812Z" fill="white"/>
<path d="M16.5469 16.4062H13.4531C13.2978 16.4062 13.1719 16.5322 13.1719 16.6875C13.1719 16.8428 13.2978 16.9688 13.4531 16.9688H16.5469C16.7022 16.9688 16.8281 16.8428 16.8281 16.6875C16.8281 16.5322 16.7022 16.4062 16.5469 16.4062Z" fill="white"/>
<path d="M15 7.40625C15.3883 7.40625 15.7031 7.09145 15.7031 6.70312C15.7031 6.3148 15.3883 6 15 6C14.6117 6 14.2969 6.3148 14.2969 6.70312C14.2969 7.09145 14.6117 7.40625 15 7.40625Z" fill="white"/>
</svg>
