<svg width="30" height="30" viewBox="0 0 30 30" fill="none" xmlns="http://www.w3.org/2000/svg">
<rect x="0.5" y="0.5" width="29" height="29" rx="6.5" fill="#212429" fill-opacity="0.05" stroke="#212429"/>
<path d="M15 24C15.3883 24 15.7031 23.6852 15.7031 23.2969C15.7031 22.9085 15.3883 22.5938 15 22.5938C14.6117 22.5938 14.2969 22.9085 14.2969 23.2969C14.2969 23.6852 14.6117 24 15 24Z" fill="#212429"/>
<path d="M23.2969 15.7031C23.6852 15.7031 24 15.3883 24 15C24 14.6117 23.6852 14.2969 23.2969 14.2969C22.9085 14.2969 22.5938 14.6117 22.5938 15C22.5938 15.3883 22.9085 15.7031 23.2969 15.7031Z" fill="#212429"/>
<path d="M6.70312 15.7031C7.09145 15.7031 7.40625 15.3883 7.40625 15C7.40625 14.6117 7.09145 14.2969 6.70312 14.2969C6.3148 14.2969 6 14.6117 6 15C6 15.3883 6.3148 15.7031 6.70312 15.7031Z" fill="#212429"/>
<path d="M21.2625 21.2628C21.5371 20.9882 21.5371 20.543 21.2625 20.2685C20.9879 19.9939 20.5427 19.9939 20.2681 20.2685C19.9936 20.5431 19.9936 20.9883 20.2682 21.2629C20.5428 21.5374 20.988 21.5374 21.2625 21.2628Z" fill="#212429"/>
<path d="M9.5907 9.59094C9.86529 9.31635 9.86529 8.87115 9.5907 8.59656C9.31611 8.32196 8.87091 8.32196 8.59631 8.59656C8.32172 8.87115 8.32172 9.31635 8.59631 9.59094C8.87091 9.86554 9.31611 9.86554 9.5907 9.59094Z" fill="#212429"/>
<path d="M9.59058 21.2628C9.86518 20.9882 9.86521 20.543 9.59065 20.2684C9.3161 19.9938 8.87092 19.9938 8.59632 20.2684C8.32173 20.5429 8.32169 20.9881 8.59625 21.2627C8.87081 21.5373 9.31599 21.5373 9.59058 21.2628Z" fill="#212429"/>
<path d="M21.3731 13.7343C21.6685 13.7343 21.9417 13.911 22.1168 14.1737C22.227 14.0165 22.3679 13.8829 22.5307 13.7802C22.3119 13.4888 22.004 13.2791 21.6537 13.204C21.4827 12.5694 21.2237 11.9711 20.89 11.423C21.031 11.1462 21.0766 10.8264 21.0284 10.5115C20.8382 10.5463 20.6428 10.5422 20.4537 10.5005C20.4702 10.5675 20.4805 10.6359 20.484 10.7045C20.4974 10.9649 20.4147 11.1984 20.2511 11.362L19.932 11.681L18.1794 9.92832L18.4983 9.60937C18.6495 9.45817 18.864 9.37495 19.1022 9.37495C19.1892 9.37495 19.2756 9.3869 19.36 9.40756C19.3183 9.21867 19.314 9.02339 19.3486 8.83332C19.2666 8.82076 19.1842 8.81245 19.1022 8.81245C18.849 8.81245 18.6011 8.87452 18.383 8.99852C17.8889 8.71941 17.3573 8.49899 16.7972 8.34794C16.7222 7.9974 16.5124 7.68923 16.2208 7.47034C16.1181 7.633 15.9845 7.77389 15.8272 7.88424C16.0899 8.05933 16.2667 8.33248 16.2667 8.62781V9.0937H13.7354V8.62781C13.7354 8.33248 13.9121 8.05933 14.1748 7.88424C14.0176 7.77389 13.8839 7.633 13.7813 7.47034C13.49 7.68902 13.2803 7.99692 13.2051 8.34704C12.6178 8.50559 12.0617 8.74001 11.5474 9.03877C11.3138 8.8866 11.0394 8.81238 10.7591 8.81238C10.6772 8.81238 10.5948 8.82069 10.5128 8.83325C10.5474 9.02331 10.5431 9.21867 10.5013 9.40749C10.5858 9.3869 10.6723 9.37488 10.7592 9.37488C10.9975 9.37488 11.2119 9.45817 11.3631 9.6093L11.6821 9.92832L9.92942 11.681L9.6104 11.362C9.39637 11.1479 9.33299 10.8163 9.40982 10.4999C9.22018 10.5421 9.02394 10.5464 8.83305 10.5115C8.77756 10.8735 8.84534 11.2422 9.04123 11.5439C8.74186 12.0588 8.50703 12.6158 8.34813 13.204C7.99809 13.2792 7.69019 13.4889 7.47144 13.7802C7.6341 13.8829 7.77499 14.0165 7.88527 14.1737C8.06043 13.911 8.33351 13.7343 8.62884 13.7343H9.0948V16.2656H8.62884C8.33351 16.2656 8.06043 16.0888 7.88534 15.8261C7.77499 15.9834 7.6341 16.117 7.47144 16.2197C7.69019 16.511 7.99809 16.7207 8.34827 16.7959C8.49564 17.3426 8.70829 17.8624 8.97787 18.3464C8.74344 18.6379 8.64786 19.0108 8.68082 19.3838C8.86257 19.3295 9.0529 19.3121 9.2403 19.3309C9.23926 19.3191 9.23735 19.3073 9.23673 19.2953C9.22334 19.035 9.30607 18.8015 9.46984 18.6378L9.78872 18.3188L11.5414 20.0715L11.2224 20.3904C11.0712 20.5416 10.8567 20.6249 10.6184 20.6249C10.5887 20.6249 10.559 20.6229 10.5294 20.6204C10.5482 20.8079 10.5306 20.9985 10.4763 21.1803C10.5237 21.1846 10.5711 21.1874 10.6184 21.1874C10.9247 21.1874 11.2234 21.0975 11.4701 20.9151C12.0057 21.2355 12.588 21.486 13.205 21.6523C13.2801 22.0026 13.4899 22.3108 13.7813 22.5296C13.884 22.3668 14.0176 22.2259 14.1748 22.1157C13.9121 21.9406 13.7354 21.6674 13.7354 21.3722V20.9062H16.2667V21.3722C16.2667 21.6674 16.0899 21.9406 15.8272 22.1157C15.9845 22.2259 16.1181 22.3668 16.2208 22.5296C16.5119 22.3109 16.7218 22.003 16.7969 21.653C17.3845 21.4945 17.9407 21.2601 18.455 20.9613C18.6886 21.1133 18.9629 21.1874 19.2429 21.1874C19.2901 21.1874 19.3376 21.1846 19.3851 21.1803C19.3308 20.9985 19.3132 20.8079 19.332 20.6204C19.3023 20.6229 19.2727 20.6249 19.2429 20.6249C19.0046 20.6249 18.7901 20.5417 18.6389 20.3904L18.3199 20.0715L20.0726 18.3189L20.3915 18.6379C20.5552 18.8015 20.638 19.0351 20.6247 19.2955C20.6241 19.3073 20.6221 19.3191 20.6211 19.331C20.8084 19.3121 20.9988 19.3297 21.1806 19.3838C21.2096 19.0555 21.138 18.7276 20.9607 18.4546C21.2597 17.9402 21.4947 17.3838 21.6531 16.7961C22.0036 16.721 22.3118 16.5111 22.5307 16.2197C22.3679 16.117 22.227 15.9834 22.1168 15.8261C21.9417 16.0888 21.6685 16.2656 21.3731 16.2656H20.9073V13.7343H21.3731ZM20.7064 16.8281H21.0584C20.9328 17.2427 20.7658 17.6391 20.5622 18.0131C20.4895 17.9403 20.4067 17.8576 20.3246 17.7754C20.2555 17.7063 20.1649 17.6718 20.0738 17.6718C19.9814 17.6718 19.8886 17.7074 19.8177 17.7782L17.7792 19.8168C17.6385 19.9577 17.6374 20.1844 17.7765 20.3236L18.0146 20.5616C17.6405 20.7645 17.2436 20.9295 16.8292 21.0544V20.7053C16.8292 20.5056 16.6656 20.3437 16.4636 20.3437H13.5386C13.3366 20.3437 13.1729 20.5056 13.1729 20.7053C13.1729 20.8272 13.1729 20.9504 13.1729 21.0574C12.7248 20.9216 12.2979 20.7372 11.8977 20.5107C11.9574 20.4511 12.0211 20.3872 12.0849 20.3235C12.224 20.1844 12.2228 19.9574 12.0821 19.8166L10.0435 17.7781C9.97261 17.7073 9.87991 17.6718 9.78763 17.6718C9.6965 17.6718 9.6058 17.7063 9.53665 17.7754L9.39301 17.919C9.21256 17.5728 9.0641 17.2079 8.94936 16.8281H9.29571C9.49538 16.8281 9.6573 16.6645 9.6573 16.4625V13.5375C9.6573 13.3355 9.49538 13.1718 9.29571 13.1718C9.17485 13.1718 9.0529 13.1718 8.94662 13.1718C9.07145 12.7574 9.23652 12.3603 9.43929 11.9863L9.67742 12.2245C9.74657 12.2935 9.83727 12.3281 9.92831 12.3281C10.0206 12.3281 10.1133 12.2926 10.1842 12.2217L12.2227 10.1831C12.3636 10.0424 12.3647 9.8155 12.2256 9.67632C12.1433 9.59399 12.0604 9.51104 11.9875 9.43819C12.3615 9.23542 12.7585 9.07028 13.1729 8.94552C13.1729 9.05175 13.1729 9.17376 13.1729 9.29461C13.1729 9.49428 13.3366 9.6562 13.5386 9.6562H16.4636C16.6656 9.6562 16.8292 9.49428 16.8292 9.29461V8.94559C17.2093 9.06081 17.5739 9.21063 17.9203 9.39184L17.6358 9.67632C17.4967 9.8155 17.4978 10.0423 17.6386 10.1831L19.6771 12.2216C19.7481 12.2926 19.8408 12.3281 19.9332 12.3281C20.0243 12.3281 20.1149 12.2936 20.184 12.2245C20.303 12.1054 20.4233 11.9851 20.5122 11.8964C20.7385 12.2967 20.9227 12.7238 21.0584 13.1718C20.9515 13.1718 20.8283 13.1718 20.7064 13.1718C20.5067 13.1718 20.3448 13.3355 20.3448 13.5375V16.4625C20.3448 16.6645 20.5067 16.8281 20.7064 16.8281Z" fill="#212429"/>
<path d="M21.2626 9.59094C21.5372 9.31634 21.5372 8.87113 21.2626 8.59654C20.988 8.32195 20.5428 8.32195 20.2682 8.59655C19.9936 8.87115 19.9936 9.31635 20.2682 9.59094C20.5428 9.86554 20.988 9.86553 21.2626 9.59094Z" fill="#212429"/>
<path d="M16.8281 11.3438H13.1719C12.5531 11.3438 12.0469 11.85 12.0469 12.4688V17.5312C12.0469 18.1501 12.5531 18.6562 13.1719 18.6562H16.8281C17.4469 18.6562 17.9531 18.1501 17.9531 17.5312V12.4688C17.9531 11.85 17.4469 11.3438 16.8281 11.3438ZM17.3906 17.5312C17.3906 17.8415 17.1384 18.0938 16.8281 18.0938H13.1719C12.8617 18.0938 12.6094 17.8415 12.6094 17.5312V12.4688C12.6094 12.1586 12.8617 11.9062 13.1719 11.9062H16.8281C17.1384 11.9062 17.3906 12.1586 17.3906 12.4688V17.5312Z" fill="#212429"/>
<path d="M16.5469 13.0312H13.4531C13.2978 13.0312 13.1719 13.1572 13.1719 13.3125C13.1719 13.4678 13.2978 13.5938 13.4531 13.5938H16.5469C16.7022 13.5938 16.8281 13.4678 16.8281 13.3125C16.8281 13.1572 16.7022 13.0312 16.5469 13.0312Z" fill="#212429"/>
<path d="M16.5469 14.1562H13.4531C13.2978 14.1562 13.1719 14.2822 13.1719 14.4375C13.1719 14.5928 13.2978 14.7188 13.4531 14.7188H16.5469C16.7022 14.7188 16.8281 14.5928 16.8281 14.4375C16.8281 14.2822 16.7022 14.1562 16.5469 14.1562Z" fill="#212429"/>
<path d="M16.5469 15.2812H13.4531C13.2978 15.2812 13.1719 15.4072 13.1719 15.5625C13.1719 15.7178 13.2978 15.8438 13.4531 15.8438H16.5469C16.7022 15.8438 16.8281 15.7178 16.8281 15.5625C16.8281 15.4072 16.7022 15.2812 16.5469 15.2812Z" fill="#212429"/>
<path d="M16.5469 16.4062H13.4531C13.2978 16.4062 13.1719 16.5322 13.1719 16.6875C13.1719 16.8428 13.2978 16.9688 13.4531 16.9688H16.5469C16.7022 16.9688 16.8281 16.8428 16.8281 16.6875C16.8281 16.5322 16.7022 16.4062 16.5469 16.4062Z" fill="#212429"/>
<path d="M15 7.40625C15.3883 7.40625 15.7031 7.09145 15.7031 6.70312C15.7031 6.3148 15.3883 6 15 6C14.6117 6 14.2969 6.3148 14.2969 6.70312C14.2969 7.09145 14.6117 7.40625 15 7.40625Z" fill="#212429"/>
</svg>
