<svg width="30" height="31" viewBox="0 0 30 31" fill="none" xmlns="http://www.w3.org/2000/svg">
<rect x="0.5" y="1" width="29" height="29" rx="6.5" fill="#FCB040" fill-opacity="0.05" stroke="#FCB040"/>
<path d="M15 24.5C15.3883 24.5 15.7031 24.1852 15.7031 23.7969C15.7031 23.4085 15.3883 23.0938 15 23.0938C14.6117 23.0938 14.2969 23.4085 14.2969 23.7969C14.2969 24.1852 14.6117 24.5 15 24.5Z" fill="#FCB040"/>
<path d="M23.2969 16.2031C23.6852 16.2031 24 15.8883 24 15.5C24 15.1117 23.6852 14.7969 23.2969 14.7969C22.9085 14.7969 22.5938 15.1117 22.5938 15.5C22.5938 15.8883 22.9085 16.2031 23.2969 16.2031Z" fill="#FCB040"/>
<path d="M6.70312 16.2031C7.09145 16.2031 7.40625 15.8883 7.40625 15.5C7.40625 15.1117 7.09145 14.7969 6.70312 14.7969C6.3148 14.7969 6 15.1117 6 15.5C6 15.8883 6.3148 16.2031 6.70312 16.2031Z" fill="#FCB040"/>
<path d="M21.2625 21.7628C21.5371 21.4882 21.5371 21.043 21.2625 20.7685C20.9879 20.4939 20.5427 20.4939 20.2681 20.7685C19.9936 21.0431 19.9936 21.4883 20.2682 21.7629C20.5428 22.0374 20.988 22.0374 21.2625 21.7628Z" fill="#FCB040"/>
<path d="M9.5907 10.0909C9.86529 9.81635 9.86529 9.37115 9.5907 9.09656C9.31611 8.82196 8.87091 8.82196 8.59631 9.09656C8.32172 9.37115 8.32172 9.81635 8.59631 10.0909C8.87091 10.3655 9.31611 10.3655 9.5907 10.0909Z" fill="#FCB040"/>
<path d="M9.59058 21.7628C9.86518 21.4882 9.86521 21.043 9.59065 20.7684C9.3161 20.4938 8.87092 20.4938 8.59632 20.7684C8.32173 21.0429 8.32169 21.4881 8.59625 21.7627C8.87081 22.0373 9.31599 22.0373 9.59058 21.7628Z" fill="#FCB040"/>
<path d="M21.3731 14.2343C21.6685 14.2343 21.9417 14.411 22.1168 14.6737C22.227 14.5165 22.3679 14.3829 22.5307 14.2802C22.3119 13.9888 22.004 13.7791 21.6537 13.704C21.4827 13.0694 21.2237 12.4711 20.89 11.923C21.031 11.6462 21.0766 11.3264 21.0284 11.0115C20.8382 11.0463 20.6428 11.0422 20.4537 11.0005C20.4702 11.0675 20.4805 11.1359 20.484 11.2045C20.4974 11.4649 20.4147 11.6984 20.2511 11.862L19.932 12.181L18.1794 10.4283L18.4983 10.1094C18.6495 9.95817 18.864 9.87495 19.1022 9.87495C19.1892 9.87495 19.2756 9.8869 19.36 9.90756C19.3183 9.71867 19.314 9.52339 19.3486 9.33332C19.2666 9.32076 19.1842 9.31245 19.1022 9.31245C18.849 9.31245 18.6011 9.37452 18.383 9.49852C17.8889 9.21941 17.3573 8.99899 16.7972 8.84794C16.7222 8.4974 16.5124 8.18923 16.2208 7.97034C16.1181 8.133 15.9845 8.27389 15.8272 8.38424C16.0899 8.55933 16.2667 8.83248 16.2667 9.12781V9.5937H13.7354V9.12781C13.7354 8.83248 13.9121 8.55933 14.1748 8.38424C14.0176 8.27389 13.8839 8.133 13.7813 7.97034C13.49 8.18902 13.2803 8.49692 13.2051 8.84704C12.6178 9.00559 12.0617 9.24001 11.5474 9.53877C11.3138 9.3866 11.0394 9.31238 10.7591 9.31238C10.6772 9.31238 10.5948 9.32069 10.5128 9.33325C10.5474 9.52331 10.5431 9.71867 10.5013 9.90749C10.5858 9.8869 10.6723 9.87488 10.7592 9.87488C10.9975 9.87488 11.2119 9.95817 11.3631 10.1093L11.6821 10.4283L9.92942 12.181L9.6104 11.862C9.39637 11.6479 9.33299 11.3163 9.40982 10.9999C9.22018 11.0421 9.02394 11.0464 8.83305 11.0115C8.77756 11.3735 8.84534 11.7422 9.04123 12.0439C8.74186 12.5588 8.50703 13.1158 8.34813 13.704C7.99809 13.7792 7.69019 13.9889 7.47144 14.2802C7.6341 14.3829 7.77499 14.5165 7.88527 14.6737C8.06043 14.411 8.33351 14.2343 8.62884 14.2343H9.0948V16.7656H8.62884C8.33351 16.7656 8.06043 16.5888 7.88534 16.3261C7.77499 16.4834 7.6341 16.617 7.47144 16.7197C7.69019 17.011 7.99809 17.2207 8.34827 17.2959C8.49564 17.8426 8.70829 18.3624 8.97787 18.8464C8.74344 19.1379 8.64786 19.5108 8.68082 19.8838C8.86257 19.8295 9.0529 19.8121 9.2403 19.8309C9.23926 19.8191 9.23735 19.8073 9.23673 19.7953C9.22334 19.535 9.30607 19.3015 9.46984 19.1378L9.78872 18.8188L11.5414 20.5715L11.2224 20.8904C11.0712 21.0416 10.8567 21.1249 10.6184 21.1249C10.5887 21.1249 10.559 21.1229 10.5294 21.1204C10.5482 21.3079 10.5306 21.4985 10.4763 21.6803C10.5237 21.6846 10.5711 21.6874 10.6184 21.6874C10.9247 21.6874 11.2234 21.5975 11.4701 21.4151C12.0057 21.7355 12.588 21.986 13.205 22.1523C13.2801 22.5026 13.4899 22.8108 13.7813 23.0296C13.884 22.8668 14.0176 22.7259 14.1748 22.6157C13.9121 22.4406 13.7354 22.1674 13.7354 21.8722V21.4062H16.2667V21.8722C16.2667 22.1674 16.0899 22.4406 15.8272 22.6157C15.9845 22.7259 16.1181 22.8668 16.2208 23.0296C16.5119 22.8109 16.7218 22.503 16.7969 22.153C17.3845 21.9945 17.9407 21.7601 18.455 21.4613C18.6886 21.6133 18.9629 21.6874 19.2429 21.6874C19.2901 21.6874 19.3376 21.6846 19.3851 21.6803C19.3308 21.4985 19.3132 21.3079 19.332 21.1204C19.3023 21.1229 19.2727 21.1249 19.2429 21.1249C19.0046 21.1249 18.7901 21.0417 18.6389 20.8904L18.3199 20.5715L20.0726 18.8189L20.3915 19.1379C20.5552 19.3015 20.638 19.5351 20.6247 19.7955C20.6241 19.8073 20.6221 19.8191 20.6211 19.831C20.8084 19.8121 20.9988 19.8297 21.1806 19.8838C21.2096 19.5555 21.138 19.2276 20.9607 18.9546C21.2597 18.4402 21.4947 17.8838 21.6531 17.2961C22.0036 17.221 22.3118 17.0111 22.5307 16.7197C22.3679 16.617 22.227 16.4834 22.1168 16.3261C21.9417 16.5888 21.6685 16.7656 21.3731 16.7656H20.9073V14.2343H21.3731ZM20.7064 17.3281H21.0584C20.9328 17.7427 20.7658 18.1391 20.5622 18.5131C20.4895 18.4403 20.4067 18.3576 20.3246 18.2754C20.2555 18.2063 20.1649 18.1718 20.0738 18.1718C19.9814 18.1718 19.8886 18.2074 19.8177 18.2782L17.7792 20.3168C17.6385 20.4577 17.6374 20.6844 17.7765 20.8236L18.0146 21.0616C17.6405 21.2645 17.2436 21.4295 16.8292 21.5544V21.2053C16.8292 21.0056 16.6656 20.8437 16.4636 20.8437H13.5386C13.3366 20.8437 13.1729 21.0056 13.1729 21.2053C13.1729 21.3272 13.1729 21.4504 13.1729 21.5574C12.7248 21.4216 12.2979 21.2372 11.8977 21.0107C11.9574 20.9511 12.0211 20.8872 12.0849 20.8235C12.224 20.6844 12.2228 20.4574 12.0821 20.3166L10.0435 18.2781C9.97261 18.2073 9.87991 18.1718 9.78763 18.1718C9.6965 18.1718 9.6058 18.2063 9.53665 18.2754L9.39301 18.419C9.21256 18.0728 9.0641 17.7079 8.94936 17.3281H9.29571C9.49538 17.3281 9.6573 17.1645 9.6573 16.9625V14.0375C9.6573 13.8355 9.49538 13.6718 9.29571 13.6718C9.17485 13.6718 9.0529 13.6718 8.94662 13.6718C9.07145 13.2574 9.23652 12.8603 9.43929 12.4863L9.67742 12.7245C9.74657 12.7935 9.83727 12.8281 9.92831 12.8281C10.0206 12.8281 10.1133 12.7926 10.1842 12.7217L12.2227 10.6831C12.3636 10.5424 12.3647 10.3155 12.2256 10.1763C12.1433 10.094 12.0604 10.011 11.9875 9.93819C12.3615 9.73542 12.7585 9.57028 13.1729 9.44552C13.1729 9.55175 13.1729 9.67376 13.1729 9.79461C13.1729 9.99428 13.3366 10.1562 13.5386 10.1562H16.4636C16.6656 10.1562 16.8292 9.99428 16.8292 9.79461V9.44559C17.2093 9.56081 17.5739 9.71063 17.9203 9.89184L17.6358 10.1763C17.4967 10.3155 17.4978 10.5423 17.6386 10.6831L19.6771 12.7216C19.7481 12.7926 19.8408 12.8281 19.9332 12.8281C20.0243 12.8281 20.1149 12.7936 20.184 12.7245C20.303 12.6054 20.4233 12.4851 20.5122 12.3964C20.7385 12.7967 20.9227 13.2238 21.0584 13.6718C20.9515 13.6718 20.8283 13.6718 20.7064 13.6718C20.5067 13.6718 20.3448 13.8355 20.3448 14.0375V16.9625C20.3448 17.1645 20.5067 17.3281 20.7064 17.3281Z" fill="#FCB040"/>
<path d="M21.2626 10.0909C21.5372 9.81634 21.5372 9.37113 21.2626 9.09654C20.988 8.82195 20.5428 8.82195 20.2682 9.09655C19.9936 9.37115 19.9936 9.81635 20.2682 10.0909C20.5428 10.3655 20.988 10.3655 21.2626 10.0909Z" fill="#FCB040"/>
<path d="M16.8281 11.8438H13.1719C12.5531 11.8438 12.0469 12.35 12.0469 12.9688V18.0312C12.0469 18.6501 12.5531 19.1562 13.1719 19.1562H16.8281C17.4469 19.1562 17.9531 18.6501 17.9531 18.0312V12.9688C17.9531 12.35 17.4469 11.8438 16.8281 11.8438ZM17.3906 18.0312C17.3906 18.3415 17.1384 18.5938 16.8281 18.5938H13.1719C12.8617 18.5938 12.6094 18.3415 12.6094 18.0312V12.9688C12.6094 12.6586 12.8617 12.4062 13.1719 12.4062H16.8281C17.1384 12.4062 17.3906 12.6586 17.3906 12.9688V18.0312Z" fill="#FCB040"/>
<path d="M16.5469 13.5312H13.4531C13.2978 13.5312 13.1719 13.6572 13.1719 13.8125C13.1719 13.9678 13.2978 14.0938 13.4531 14.0938H16.5469C16.7022 14.0938 16.8281 13.9678 16.8281 13.8125C16.8281 13.6572 16.7022 13.5312 16.5469 13.5312Z" fill="#FCB040"/>
<path d="M16.5469 14.6562H13.4531C13.2978 14.6562 13.1719 14.7822 13.1719 14.9375C13.1719 15.0928 13.2978 15.2188 13.4531 15.2188H16.5469C16.7022 15.2188 16.8281 15.0928 16.8281 14.9375C16.8281 14.7822 16.7022 14.6562 16.5469 14.6562Z" fill="#FCB040"/>
<path d="M16.5469 15.7812H13.4531C13.2978 15.7812 13.1719 15.9072 13.1719 16.0625C13.1719 16.2178 13.2978 16.3438 13.4531 16.3438H16.5469C16.7022 16.3438 16.8281 16.2178 16.8281 16.0625C16.8281 15.9072 16.7022 15.7812 16.5469 15.7812Z" fill="#FCB040"/>
<path d="M16.5469 16.9062H13.4531C13.2978 16.9062 13.1719 17.0322 13.1719 17.1875C13.1719 17.3428 13.2978 17.4688 13.4531 17.4688H16.5469C16.7022 17.4688 16.8281 17.3428 16.8281 17.1875C16.8281 17.0322 16.7022 16.9062 16.5469 16.9062Z" fill="#FCB040"/>
<path d="M15 7.90625C15.3883 7.90625 15.7031 7.59145 15.7031 7.20312C15.7031 6.8148 15.3883 6.5 15 6.5C14.6117 6.5 14.2969 6.8148 14.2969 7.20312C14.2969 7.59145 14.6117 7.90625 15 7.90625Z" fill="#FCB040"/>
</svg>
