<svg width="15" height="17" viewBox="0 0 15 17" fill="none" xmlns="http://www.w3.org/2000/svg">
<path d="M10.3757 6.89187C10.3773 7.77848 10.0265 8.62902 9.40083 9.25692C8.77521 9.88407 7.92544 10.238 7.03873 10.2387C6.15288 10.2395 5.30235 9.88869 4.67525 9.26228C4.04733 8.63589 3.69498 7.78613 3.69421 6.90018C3.69344 6.01357 4.04503 5.16303 4.67218 4.5367C5.29857 3.90955 6.14834 3.5572 7.03488 3.5572C7.91919 3.55873 8.76743 3.91031 9.39384 4.53517C10.0195 5.16003 10.3727 6.00759 10.3757 6.89187ZM13.6121 8.04639C13.4125 8.39642 13.3074 8.79177 13.3051 9.19478C13.3074 10.0162 12.869 10.7761 12.1567 11.1845C11.8097 11.3902 11.5211 11.6788 11.3154 12.0258C10.9054 12.7351 10.1508 13.175 9.33174 13.1803C8.92719 13.178 8.5288 13.2817 8.17721 13.4812C7.46945 13.8927 6.59435 13.8927 5.88664 13.4812C5.53506 13.2817 5.13667 13.178 4.73212 13.1803C3.91152 13.175 3.15464 12.7359 2.74241 12.0258C2.53898 11.6781 2.24883 11.3879 1.9011 11.1845C1.18873 10.7761 0.750405 10.0162 0.752704 9.19478C0.752704 8.79253 0.649074 8.39721 0.451801 8.04639C0.0403396 7.33402 0.0403396 6.45584 0.451801 5.74344C0.649082 5.39262 0.752704 4.99729 0.752704 4.59505C0.750401 3.77368 1.18873 3.01372 1.9011 2.60534C2.25036 2.40346 2.54053 2.11329 2.74241 1.76402C3.15464 1.05396 3.91152 0.614864 4.73212 0.609499C5.13667 0.61257 5.53506 0.508939 5.88664 0.308596C6.59441 -0.102865 7.46951 -0.102865 8.17721 0.308596C8.5288 0.508943 8.92719 0.612585 9.33174 0.609499C10.1508 0.614873 10.9054 1.05472 11.3154 1.76402C11.5172 2.11329 11.8074 2.40346 12.1567 2.60534C12.869 3.01372 13.3074 3.77368 13.3051 4.59505C13.3074 4.99806 13.4125 5.39339 13.6121 5.74344C14.0236 6.4558 14.0236 7.33399 13.6121 8.04639ZM11.6039 6.89187C11.2501 0.604979 2.49903 1.08251 2.49667 6.89187C2.46597 8.1078 2.9327 9.28384 3.78936 10.1481C4.64605 11.0117 5.81818 11.4876 7.03499 11.4669C8.24709 11.4646 9.40928 10.9817 10.2653 10.1243C11.122 9.26609 11.6032 8.10397 11.6039 6.89187ZM1.67996 12.646C1.65462 12.6007 1.62622 12.5577 1.59398 12.517L0.0403003 15.133C-0.00959666 15.2159 -0.0134345 15.318 0.0303213 15.4048C0.0740771 15.4908 0.159284 15.5483 0.255232 15.5568L1.53871 15.6919C1.62084 15.7019 1.69454 15.7464 1.74135 15.8147L2.47828 16.8771C2.53202 16.9562 2.6226 17.0022 2.71779 16.9999C2.81375 16.9976 2.90126 16.9462 2.95115 16.8648L4.41888 14.3962C3.27741 14.2887 2.25732 13.637 1.67996 12.646ZM14.0297 15.1331L12.4699 12.5108C11.898 13.5648 10.844 14.2695 9.65107 14.3961L11.1188 16.8647C11.1687 16.9461 11.2562 16.9975 11.3522 16.9998C11.4473 17.0021 11.5379 16.9561 11.5917 16.877L12.3286 15.8146C12.3754 15.7463 12.4491 15.7018 12.5312 15.6918L13.8147 15.5567C13.9107 15.5483 13.9959 15.4907 14.0396 15.4047C14.0834 15.318 14.0796 15.216 14.0297 15.1331Z" fill="#FFD03A"/>
</svg>
