<svg width="19" height="20" viewBox="0 0 9 10" fill="none" xmlns="http://www.w3.org/2000/svg">
<path fill-rule="evenodd" clip-rule="evenodd" d="M6.89845 0.984793L7.97475 2.06006C8.03005 2.11536 8.06065 2.19006 8.06065 2.26826V9.13822C8.06065 9.61292 7.67415 10 7.19946 10H0.861795C0.386498 10 0 9.61352 0 9.13822V0.861871C9.99994e-05 0.386574 0.386498 7.62935e-05 0.861795 7.62935e-05H5.78481C5.86356 -0.00171378 5.94173 0.0280293 5.99956 0.0858591L6.89845 0.984793ZM5.49716 0.588273H0.861795C0.711196 0.588273 0.588296 0.710672 0.588296 0.861771V9.13822C0.588296 9.28882 0.711196 9.41172 0.861795 9.41172H7.19885C7.34705 9.41172 7.47235 9.28642 7.47235 9.13822V2.56244H5.79126C5.62886 2.56244 5.49716 2.43064 5.49716 2.26835V0.588273ZM6.08536 1.00437L6.31604 1.23484L7.05535 1.97415H6.08536V1.00437Z" fill="black" fill-opacity="0.6"/>
<path d="M6.15995 8.09351H1.90347C1.74107 8.09351 1.60938 7.96171 1.60938 7.79941C1.60938 7.63701 1.74117 7.50531 1.90347 7.50531H6.15995C6.32235 7.50531 6.45404 7.63711 6.45404 7.79941C6.45404 7.96181 6.32235 8.09351 6.15995 8.09351Z" fill="black" fill-opacity="0.6"/>
<path d="M6.15995 6.32886H1.90347C1.74107 6.32886 1.60938 6.19706 1.60938 6.03476C1.60938 5.87236 1.74117 5.74066 1.90347 5.74066H6.15995C6.32235 5.74066 6.45404 5.87246 6.45404 6.03476C6.45404 6.19716 6.32235 6.32886 6.15995 6.32886Z" fill="black" fill-opacity="0.6"/>
<path d="M6.15995 4.56415H1.90347C1.74107 4.56415 1.60938 4.43235 1.60938 4.27005C1.60938 4.10765 1.74117 3.97595 1.90347 3.97595H6.15995C6.32235 3.97595 6.45404 4.10775 6.45404 4.27005C6.45404 4.43245 6.32235 4.56415 6.15995 4.56415Z" fill="black" fill-opacity="0.6"/>
</svg>
