<svg width="20" height="20" viewBox="0 0 10 10" fill="none" xmlns="http://www.w3.org/2000/svg">
<path d="M8.59073 0C9.22338 0 9.74471 0.521316 9.74471 1.15398V6.28276C9.74471 6.91541 9.22338 7.43674 8.59073 7.43674H7.86148L8.08185 9.57641C8.08986 9.65522 8.07335 9.73457 8.03457 9.80364C7.99579 9.87271 7.93664 9.92813 7.86518 9.96232C7.79373 9.99651 7.71347 10.0078 7.63535 9.99467C7.55724 9.98154 7.48508 9.94462 7.42874 9.88895L4.96852 7.43674H1.15398C0.521328 7.43674 0 6.91541 0 6.28276V1.15398C0 0.521316 0.521328 0 1.15398 0H8.59073ZM8.59073 0.769319H1.15398C0.934221 0.769319 0.769319 0.93421 0.769319 1.15398V6.28276C0.769319 6.50252 0.934221 6.66742 1.15398 6.66742H5.12879C5.17935 6.6673 5.22944 6.67715 5.27619 6.6964C5.32295 6.71565 5.36544 6.74393 5.40126 6.77962L7.20836 8.5787L7.0561 7.08814C7.0511 7.03502 7.05721 6.98143 7.07404 6.9308C7.09086 6.88016 7.11804 6.83358 7.15384 6.79402C7.18964 6.75445 7.23328 6.72276 7.28198 6.70096C7.33069 6.67917 7.38339 6.66775 7.43675 6.66742H8.59073C8.81048 6.66742 8.97539 6.50252 8.97539 6.28276V1.15398C8.97539 0.93421 8.81048 0.769319 8.59073 0.769319ZM7.43675 3.07728C7.79082 3.07728 8.07785 3.3643 8.07785 3.71837C8.07785 4.07244 7.79082 4.35947 7.43675 4.35947C7.08268 4.35947 6.79565 4.07244 6.79565 3.71837C6.79565 3.3643 7.08268 3.07728 7.43675 3.07728ZM4.86835 3.07728C5.22241 3.07728 5.50945 3.3643 5.50945 3.71837C5.50945 4.07244 5.22241 4.35947 4.86835 4.35947C4.51428 4.35947 4.22725 4.07244 4.22725 3.71837C4.22725 3.3643 4.51428 3.07728 4.86835 3.07728ZM2.30796 3.07728C2.66203 3.07728 2.94906 3.3643 2.94906 3.71837C2.94906 4.07244 2.66203 4.35947 2.30796 4.35947C1.95389 4.35947 1.66686 4.07244 1.66686 3.71837C1.66686 3.3643 1.95389 3.07728 2.30796 3.07728Z" fill="#212429" fill-opacity="0.6"/>
</svg>
