<svg width="11" height="11" viewBox="0 0 11 11" fill="none" xmlns="http://www.w3.org/2000/svg">
<path d="M10.0059 5.60239H1.05859C0.928711 5.60239 0.824219 5.49789 0.824219 5.36801C0.824219 5.23813 0.928711 5.13364 1.05859 5.13364H10.0059C10.1357 5.13364 10.2402 5.23813 10.2402 5.36801C10.2402 5.49789 10.1348 5.60239 10.0059 5.60239Z" fill="white"/>
<path d="M3.93848 7.36984H1.05859C0.928711 7.36984 0.824219 7.26535 0.824219 7.13547C0.824219 7.00558 0.928711 6.90109 1.05859 6.90109H3.93848C4.06836 6.90109 4.17285 7.00558 4.17285 7.13547C4.17285 7.26535 4.06836 7.36984 3.93848 7.36984Z" fill="white"/>
<path d="M10.001 7.36984H4.70703C4.57715 7.36984 4.47266 7.26535 4.47266 7.13547C4.47266 7.00558 4.57715 6.90109 4.70703 6.90109H10.001C10.1309 6.90109 10.2354 7.00558 10.2354 7.13547C10.2354 7.26535 10.1299 7.36984 10.001 7.36984Z" fill="white"/>
<path d="M3.0293 9.13849H1.05859C0.928711 9.13849 0.824219 9.034 0.824219 8.90411C0.824219 8.77423 0.928711 8.66974 1.05859 8.66974H3.0293C3.15918 8.66974 3.26367 8.77423 3.26367 8.90411C3.26367 9.034 3.1582 9.13849 3.0293 9.13849Z" fill="white"/>
<path d="M10.0029 9.13852H3.89062C3.76074 9.13852 3.65625 9.03403 3.65625 8.90414C3.65625 8.77426 3.76074 8.66977 3.89062 8.66977H10.0029C10.1328 8.66977 10.2373 8.77426 10.2373 8.90414C10.2373 9.03403 10.1318 9.13852 10.0029 9.13852Z" fill="white"/>
<path d="M6.4248 10.9059H1.05859C0.928711 10.9059 0.824219 10.8014 0.824219 10.6715C0.824219 10.5416 0.928711 10.4371 1.05859 10.4371H6.4248C6.55469 10.4371 6.65918 10.5416 6.65918 10.6715C6.65918 10.8014 6.55371 10.9059 6.4248 10.9059Z" fill="white"/>
<path d="M10.0029 10.9059H7.28906C7.15918 10.9059 7.05469 10.8014 7.05469 10.6715C7.05469 10.5416 7.15918 10.4371 7.28906 10.4371H10.0029C10.1328 10.4371 10.2373 10.5416 10.2373 10.6715C10.2373 10.8014 10.1318 10.9059 10.0029 10.9059Z" fill="white"/>
<path d="M10.0117 0.708923H5.80859C5.67871 0.708923 5.57422 0.604431 5.57422 0.474548C5.57422 0.344666 5.67871 0.240173 5.80859 0.240173H10.0117C10.1416 0.240173 10.2461 0.344666 10.2461 0.474548C10.2461 0.604431 10.1416 0.708923 10.0117 0.708923Z" fill="white"/>
<path d="M10.0117 2.27032H5.80859C5.67871 2.27032 5.57422 2.16583 5.57422 2.03595C5.57422 1.90607 5.67871 1.80157 5.80859 1.80157H10.0117C10.1416 1.80157 10.2461 1.90607 10.2461 2.03595C10.2461 2.16583 10.1416 2.27032 10.0117 2.27032Z" fill="white"/>
<path d="M10.0117 3.83179H5.80859C5.67871 3.83179 5.57422 3.72729 5.57422 3.59741C5.57422 3.46753 5.67871 3.36304 5.80859 3.36304H10.0117C10.1416 3.36304 10.2461 3.46753 10.2461 3.59741C10.2461 3.72729 10.1416 3.83179 10.0117 3.83179Z" fill="white"/>
<path d="M4.33203 4.08279H1.19141C1.06152 4.08279 0.957031 3.9783 0.957031 3.84842V3.55252C0.957031 2.5574 1.7666 1.74783 2.76172 1.74783C3.75684 1.74783 4.56641 2.5574 4.56641 3.55252V3.84842C4.56641 3.97733 4.46191 4.08279 4.33203 4.08279ZM1.42578 3.61404H4.09766V3.55252C4.09766 2.81619 3.49805 2.21658 2.76172 2.21658C2.02539 2.21658 1.42578 2.81619 1.42578 3.55252V3.61404Z" fill="white"/>
<path d="M2.76172 2.21655C2.14746 2.21655 1.64844 1.71753 1.64844 1.10327C1.64844 0.489013 2.14746 -0.0100098 2.76172 -0.0100098C3.37598 -0.0100098 3.875 0.489013 3.875 1.10327C3.875 1.71655 3.37598 2.21655 2.76172 2.21655ZM2.76172 0.45874C2.40625 0.45874 2.11719 0.747803 2.11719 1.10327C2.11719 1.45874 2.40625 1.7478 2.76172 1.7478C3.11719 1.7478 3.40625 1.45874 3.40625 1.10327C3.40625 0.747803 3.11719 0.45874 2.76172 0.45874Z" fill="white"/>
</svg>
