<svg width="16" height="7" viewBox="0 0 14 5" fill="none" xmlns="http://www.w3.org/2000/svg">
<path d="M1.818 0.944458C0.914268 0.944458 0.181641 1.64091 0.181641 2.50001C0.181641 3.35912 0.914268 4.05557 1.818 4.05557C2.72174 4.05557 3.45437 3.35912 3.45437 2.50001C3.45437 1.64091 2.72174 0.944458 1.818 0.944458Z" fill="#212429"/>
<path d="M7.09144 0.944458C6.18771 0.944458 5.45508 1.64088 5.45508 2.50001C5.45508 3.35915 6.18771 4.05557 7.09144 4.05557C7.99518 4.05557 8.72781 3.35915 8.72781 2.50001C8.72781 1.64088 7.99518 0.944458 7.09144 0.944458Z" fill="#212429"/>
<path d="M12.3629 0.944458C11.4592 0.944458 10.7266 1.64088 10.7266 2.50001C10.7266 3.35915 11.4592 4.05557 12.3629 4.05557C13.2667 4.05557 13.9993 3.35915 13.9993 2.50001C13.9993 1.64088 13.2667 0.944458 12.3629 0.944458Z" fill="#212429"/>
</svg>
