<svg width="15" height="18" viewBox="0 0 15 18" fill="none" xmlns="http://www.w3.org/2000/svg">
<path d="M10.9861 7.29727C10.9877 8.23604 10.6162 9.1366 9.95382 9.80144C9.2914 10.4655 8.39164 10.8402 7.45277 10.841C6.51481 10.8418 5.61425 10.4704 4.95026 9.80712C4.28541 9.14389 3.91233 8.24413 3.91152 7.30607C3.9107 6.36731 4.28297 5.46674 4.94702 4.80357C5.61025 4.13952 6.51001 3.76644 7.44869 3.76644C8.38503 3.76807 9.28316 4.14033 9.94641 4.80194C10.6088 5.46356 10.9828 6.36098 10.9861 7.29727ZM14.4128 8.51971C14.2015 8.89033 14.0901 9.30893 14.0877 9.73565C14.0902 10.6053 13.626 11.41 12.8718 11.8424C12.5044 12.0602 12.1988 12.3658 11.981 12.7332C11.5469 13.4842 10.748 13.95 9.88066 13.9556C9.45232 13.9532 9.03049 14.0629 8.65823 14.2742C7.90883 14.7099 6.98225 14.7099 6.23292 14.2742C5.86065 14.0629 5.43882 13.9532 5.01048 13.9556C4.14161 13.95 3.34021 13.485 2.90373 12.7332C2.68833 12.365 2.38111 12.0578 2.01292 11.8424C1.25866 11.41 0.794547 10.6053 0.796981 9.73565C0.796981 9.30974 0.687255 8.89116 0.478378 8.51971C0.0427125 7.76544 0.0427125 6.8356 0.478378 6.08129C0.687263 5.70983 0.796981 5.29125 0.796981 4.86534C0.794543 3.99566 1.25866 3.19099 2.01292 2.75859C2.38273 2.54484 2.68998 2.2376 2.90373 1.86779C3.34021 1.11595 4.14161 0.651033 5.01048 0.645352C5.43882 0.648603 5.86065 0.538876 6.23292 0.326749C6.98232 -0.108916 7.90889 -0.108916 8.65823 0.326749C9.03049 0.538881 9.45232 0.648619 9.88066 0.645352C10.7479 0.651042 11.5469 1.11676 11.981 1.86779C12.1947 2.2376 12.502 2.54484 12.8718 2.75859C13.626 3.19099 14.0901 3.99566 14.0877 4.86534C14.0902 5.29206 14.2015 5.71064 14.4128 6.08129C14.8485 6.83556 14.8485 7.7654 14.4128 8.51971ZM12.2865 7.29727C11.9118 0.640566 2.64603 1.14619 2.64353 7.29727C2.61102 8.58473 3.10521 9.82995 4.01227 10.7451C4.91934 11.6594 6.16042 12.1634 7.44882 12.1414C8.73222 12.139 9.96277 11.6277 10.8691 10.7199C11.7762 9.81116 12.2857 8.58067 12.2865 7.29727ZM1.77878 13.3899C1.75196 13.3419 1.72188 13.2964 1.68775 13.2533L0.0426709 16.0232C-0.0101612 16.111 -0.0142247 16.2191 0.0321049 16.3109C0.0784346 16.402 0.168653 16.4629 0.270246 16.4719L1.62922 16.6149C1.71619 16.6255 1.79422 16.6726 1.84378 16.745L2.62406 17.8699C2.68096 17.9536 2.77687 18.0024 2.87766 17.9999C2.97926 17.9975 3.07192 17.943 3.12475 17.8569L4.67881 15.243C3.4702 15.1292 2.3901 14.4392 1.77878 13.3899ZM14.855 16.0233L13.2034 13.2467C12.5979 14.3627 11.4819 15.1088 10.2188 15.243L11.7728 17.8568C11.8257 17.9429 11.9183 17.9974 12.0199 17.9998C12.1207 18.0023 12.2166 17.9535 12.2735 17.8698L13.0538 16.7449C13.1034 16.6726 13.1814 16.6254 13.2684 16.6149L14.6274 16.4718C14.729 16.4629 14.8192 16.4019 14.8655 16.3109C14.9118 16.219 14.9078 16.1111 14.855 16.0233Z" fill="white"/>
</svg>
