<svg width="15" height="15" viewBox="0 0 15 15" fill="none" xmlns="http://www.w3.org/2000/svg">
<path fill-rule="evenodd" clip-rule="evenodd" d="M9.64263 7.86133L8.76249 8.74147C8.06491 9.43844 6.93438 9.43844 6.2368 8.74147L5.35666 7.86133L0.609375 12.6086C0.752468 12.6771 0.909739 12.7135 1.07135 12.7135H13.9288C14.0904 12.7135 14.2476 12.6771 14.3907 12.6086L9.64263 7.86133Z" fill="#FF594B"/>
<path fill-rule="evenodd" clip-rule="evenodd" d="M10.1484 7.35872L14.8957 12.106C14.9642 11.9635 15.0006 11.8056 15.0006 11.6447V3.0733C15.0006 2.91171 14.9642 2.75443 14.8957 2.61133L10.1484 7.35872Z" fill="#FF594B"/>
<path fill-rule="evenodd" clip-rule="evenodd" d="M4.85214 7.35861L0.104852 2.61133C0.0363902 2.75442 0 2.91169 0 3.0733V11.6447C0 11.8062 0.0363902 11.9635 0.104852 12.1066L4.85214 7.35861Z" fill="#FF594B"/>
<path fill-rule="evenodd" clip-rule="evenodd" d="M14.3907 2.10485C14.2476 2.03639 14.0904 2 13.9288 2H1.07135C0.909755 2 0.752476 2.03639 0.609375 2.10485L6.74203 8.23751C7.1602 8.6563 7.83866 8.6563 8.25685 8.23751L14.3907 2.10485Z" fill="#FF594B"/>
</svg>
