<svg width="83" height="82" viewBox="0 0 83 82" fill="none" xmlns="http://www.w3.org/2000/svg">
<g filter="url(#filter0_d_641_1658)">
<ellipse cx="41.4986" cy="40" rx="27.8931" ry="28" fill="white"/>
</g>
<path d="M71.8805 40C71.8805 56.8465 58.2764 70.5 41.4989 70.5C24.7213 70.5 11.1172 56.8465 11.1172 40C11.1172 23.1535 24.7213 9.5 41.4989 9.5C58.2764 9.5 71.8805 23.1535 71.8805 40Z" stroke="white"/>
<path d="M27.2613 36.0476C27.3378 36.086 27.4142 36.1052 27.4971 36.1052C27.6819 36.1052 27.8603 36.0029 27.9495 35.8302C28.1216 35.4975 28.3127 35.1713 28.5166 34.8579C28.6696 34.6212 28.5995 34.3014 28.3637 34.1478C28.1279 33.9943 27.8093 34.0647 27.6564 34.3014C27.4397 34.6404 27.2294 34.9986 27.0447 35.3568C26.9172 35.6063 27.0128 35.9197 27.2613 36.0476Z" fill="#EA4335"/>
<path d="M26.1448 42.9225C26.4252 42.9034 26.6355 42.6539 26.6164 42.3724C26.5909 42.0654 26.5781 41.752 26.5781 41.4385C26.5781 41.3746 26.5781 41.3106 26.5781 41.2466C26.5845 40.9652 26.3551 40.7285 26.0747 40.7285C25.7944 40.7285 25.5586 40.9524 25.5586 41.2338C25.5586 41.3042 25.5586 41.3746 25.5586 41.4449C25.5586 41.784 25.5713 42.123 25.5968 42.4556C25.6159 42.7243 25.839 42.9289 26.1066 42.9289C26.1193 42.9225 26.1321 42.9225 26.1448 42.9225Z" fill="#EA4335"/>
<path d="M28.3107 47.6888C28.1641 47.4457 27.8519 47.369 27.6097 47.5161C27.3676 47.6632 27.2911 47.9767 27.4377 48.2197C27.648 48.5651 27.871 48.9106 28.1131 49.2368C28.2151 49.3711 28.368 49.4479 28.5273 49.4479C28.6293 49.4479 28.7376 49.4159 28.8268 49.3519C29.0562 49.1856 29.1008 48.8658 28.9352 48.6355C28.7121 48.3285 28.5018 48.0086 28.3107 47.6888Z" fill="#EA4335"/>
<path d="M38.8565 28.9218C38.8629 28.9218 38.8756 28.9218 38.882 28.9218C39.258 28.9026 39.6339 28.8962 40.0099 28.909C40.2903 28.9154 40.526 28.6979 40.5324 28.4101C40.5388 28.1286 40.3221 27.892 40.0354 27.8856C39.6339 27.8728 39.2261 27.8792 38.8247 27.8984C38.5443 27.9111 38.3276 28.1542 38.3404 28.4357C38.3659 28.7107 38.5889 28.9218 38.8565 28.9218Z" fill="#EA4335"/>
<path d="M27.3368 45.661C27.2093 45.3092 27.0882 44.951 26.9927 44.5864C26.9162 44.3114 26.6422 44.1515 26.3682 44.2282C26.0942 44.305 25.9349 44.58 26.0113 44.8551C26.1197 45.2453 26.2407 45.6355 26.3809 46.0193C26.4574 46.2239 26.6549 46.3519 26.8588 46.3519C26.9162 46.3519 26.9799 46.3391 27.0373 46.3199C27.2985 46.2239 27.4323 45.9297 27.3368 45.661Z" fill="#EA4335"/>
<path d="M29.5234 33.2396C29.6572 33.2396 29.7974 33.182 29.893 33.0796C30.1479 32.8046 30.4155 32.5423 30.6959 32.2865C30.9062 32.0946 30.9253 31.7747 30.7341 31.5637C30.543 31.3526 30.2244 31.3334 30.0141 31.5253C29.7146 31.7939 29.4215 32.0818 29.1475 32.376C28.9563 32.5807 28.9691 32.9069 29.173 33.0988C29.2749 33.1948 29.4024 33.2396 29.5234 33.2396Z" fill="#EA4335"/>
<path d="M35.4097 29.5416C35.4607 29.5416 35.5116 29.5352 35.5626 29.5161C35.9194 29.4009 36.2827 29.305 36.6522 29.2218C36.9263 29.1579 37.0983 28.8892 37.041 28.6141C36.9772 28.3391 36.7096 28.1664 36.4356 28.2239C36.0405 28.3135 35.6454 28.4158 35.2631 28.5374C34.9955 28.6205 34.8426 28.9084 34.9318 29.177C34.9955 29.4009 35.193 29.5416 35.4097 29.5416Z" fill="#EA4335"/>
<path d="M32.2313 31.0056C32.3206 31.0056 32.4161 30.98 32.499 30.9288C32.8176 30.7305 33.1426 30.545 33.4803 30.3723C33.7288 30.2444 33.8308 29.9373 33.7033 29.6815C33.5759 29.432 33.27 29.3296 33.0151 29.4576C32.6583 29.6431 32.3014 29.8414 31.9573 30.0589C31.7216 30.206 31.6451 30.5258 31.798 30.7625C31.8936 30.9224 32.0593 31.0056 32.2313 31.0056Z" fill="#EA4335"/>
<path d="M26.2226 39.4046C26.2545 39.411 26.2927 39.4174 26.3246 39.4174C26.5604 39.4174 26.777 39.2511 26.8216 39.008C26.8981 38.6434 26.9873 38.2724 27.0956 37.9142C27.1785 37.6456 27.0255 37.3577 26.7579 37.2746C26.4903 37.1914 26.2035 37.3449 26.1207 37.6136C25.9996 38.0038 25.904 38.4004 25.8212 38.797C25.7702 39.0784 25.9486 39.3471 26.2226 39.4046Z" fill="#EA4335"/>
<path d="M50.3185 49.4294C50.1082 49.2439 49.7833 49.2631 49.5985 49.4806C49.3563 49.762 49.0951 50.0371 48.8211 50.2994C48.6172 50.4976 48.6108 50.8175 48.8083 51.0222C48.9103 51.1245 49.0441 51.1821 49.1779 51.1821C49.3053 51.1821 49.4328 51.1373 49.5284 51.0414C49.8215 50.7599 50.1019 50.4657 50.3695 50.1586C50.5479 49.9411 50.5288 49.6149 50.3185 49.4294Z" fill="#EA4335"/>
<path d="M47.0699 51.7123C46.7577 51.9234 46.439 52.1217 46.1077 52.3008C45.8592 52.4351 45.77 52.7485 45.9102 52.998C46.0057 53.1643 46.1778 53.2603 46.3562 53.2603C46.439 53.2603 46.5219 53.2411 46.6047 53.1963C46.9552 52.998 47.3057 52.7869 47.637 52.563C47.8728 52.4031 47.9301 52.0897 47.7772 51.853C47.6179 51.6163 47.3057 51.5588 47.0699 51.7123Z" fill="#EA4335"/>
<path d="M52.1311 46.4228C51.8762 46.3013 51.5703 46.41 51.4492 46.6659C51.2899 47.0049 51.1115 47.3375 50.9204 47.6573C50.7738 47.9004 50.8566 48.2138 51.0988 48.361C51.1816 48.4121 51.2708 48.4313 51.36 48.4313C51.5321 48.4313 51.7041 48.3418 51.7997 48.1819C52.01 47.8301 52.2012 47.4718 52.3732 47.1072C52.4943 46.845 52.386 46.5443 52.1311 46.4228Z" fill="#EA4335"/>
<path d="M53.0494 43.0262C52.7691 42.9814 52.5078 43.1669 52.4632 43.4484C52.3995 43.8194 52.323 44.1904 52.2274 44.5486C52.1573 44.8236 52.3166 45.1051 52.5906 45.1754C52.6353 45.1882 52.6799 45.1946 52.7245 45.1946C52.9475 45.1946 53.1578 45.0411 53.2151 44.8172C53.3171 44.427 53.4063 44.0241 53.47 43.6211C53.5146 43.3396 53.3298 43.0774 53.0494 43.0262Z" fill="#EA4335"/>
<path d="M53.0054 39.5081C52.725 39.5401 52.5275 39.7959 52.553 40.071C52.5976 40.442 52.6167 40.8194 52.6295 41.1968C52.6358 41.4782 52.8589 41.6957 53.1392 41.6957C53.1456 41.6957 53.1456 41.6957 53.152 41.6957C53.4324 41.6893 53.6554 41.459 53.649 41.1712C53.6426 40.7618 53.6171 40.3524 53.5662 39.9494C53.5407 39.6808 53.2858 39.4825 53.0054 39.5081Z" fill="#EA4335"/>
<path d="M44.0563 53.2275C43.7058 53.349 43.3426 53.4578 42.9794 53.5537C42.7054 53.6241 42.5397 53.9055 42.6098 54.1742C42.6672 54.4045 42.8775 54.558 43.1005 54.558C43.1451 54.558 43.1833 54.5516 43.2279 54.5388C43.6166 54.4364 44.0117 54.3213 44.3877 54.187C44.6553 54.091 44.7955 53.8032 44.6999 53.5345C44.6107 53.2723 44.3176 53.1315 44.0563 53.2275Z" fill="#EA4335"/>
<path d="M34.1487 52.8249C33.8046 52.6714 33.4669 52.5051 33.1355 52.326C32.887 52.1916 32.5812 52.2812 32.441 52.5307C32.3071 52.7801 32.3964 53.0872 32.6449 53.2279C32.9953 53.4198 33.3649 53.6053 33.7345 53.7716C33.8046 53.8036 33.8747 53.8164 33.9384 53.8164C34.136 53.8164 34.3208 53.7012 34.4036 53.5093C34.5183 53.2407 34.4036 52.94 34.1487 52.8249Z" fill="#EA4335"/>
<path d="M37.3772 53.7972C37.0076 53.7332 36.638 53.6565 36.2748 53.5669C36.0008 53.4966 35.7268 53.6629 35.6567 53.9379C35.5866 54.213 35.7523 54.488 36.0263 54.5584C36.415 54.6543 36.8164 54.7439 37.2115 54.8079C37.237 54.8143 37.2689 54.8143 37.2943 54.8143C37.5365 54.8143 37.7531 54.6351 37.7978 54.3857C37.8424 54.1042 37.6576 53.842 37.3772 53.7972Z" fill="#EA4335"/>
<path d="M40.7587 53.9251C40.3892 53.9571 40.0068 53.9698 39.6309 53.9762C39.3505 53.9762 39.1211 54.2065 39.1211 54.488C39.1211 54.7694 39.3505 54.9997 39.6309 54.9997C40.0323 54.9997 40.4401 54.9805 40.8416 54.9485C41.122 54.9229 41.3322 54.6799 41.3067 54.3984C41.2813 54.1106 41.0391 53.9059 40.7587 53.9251Z" fill="#EA4335"/>
<path d="M31.261 51.0727C30.9679 50.836 30.6811 50.5866 30.4135 50.3307C30.2096 50.1388 29.8846 50.1452 29.6934 50.3499C29.5023 50.5546 29.5086 50.8808 29.7126 51.0727C30.0057 51.3541 30.3115 51.6228 30.6301 51.8723C30.7257 51.949 30.8341 51.9874 30.9488 51.9874C31.0953 51.9874 31.2482 51.9234 31.3502 51.7955C31.5159 51.5716 31.484 51.2454 31.261 51.0727Z" fill="#EA4335"/>
<path d="M47.3789 29.6366L49.0102 30.8264L50.6415 29.6366V28.0566H47.3789V29.6366Z" fill="#EA4335"/>
<path d="M50.6478 34.3203H47.3789V34.864H50.6478V34.3203Z" fill="#EA4335"/>
<path d="M47.3789 33.2835V33.2963H50.6415V33.2835L49.0102 32.0938L47.3789 33.2835Z" fill="#EA4335"/>
<path d="M55.3194 31.3774C55.3194 27.8593 52.471 25 48.9663 25C45.4616 25 42.6133 27.8593 42.6133 31.3774C42.6133 34.8955 45.4616 37.7548 48.9663 37.7548C52.471 37.7548 55.3194 34.8955 55.3194 31.3774ZM51.4579 32.6119C51.5917 32.7079 51.6681 32.8614 51.6681 33.0277V34.8635H52.1333C52.4137 34.8635 52.6431 35.0938 52.6431 35.3753C52.6431 35.6567 52.4137 35.887 52.1333 35.887H51.1584H46.8699H45.895C45.6146 35.887 45.3852 35.6567 45.3852 35.3753C45.3852 35.0938 45.6146 34.8635 45.895 34.8635H46.3601V33.0277C46.3601 32.8614 46.4366 32.7079 46.5704 32.6119L48.1507 31.4606L46.5704 30.3092C46.4366 30.2132 46.3601 30.0597 46.3601 29.8934V28.0576H45.895C45.6146 28.0576 45.3852 27.8273 45.3852 27.5458C45.3852 27.2644 45.6146 27.0341 45.895 27.0341H46.8699H51.1584H52.1333C52.4137 27.0341 52.6431 27.2644 52.6431 27.5458C52.6431 27.8273 52.4137 28.0576 52.1333 28.0576H51.6681V29.8934C51.6681 30.0597 51.5917 30.2132 51.4579 30.3092L49.8776 31.4606L51.4579 32.6119Z" fill="#EA4335"/>
<path d="M53.0566 37.5312C52.7762 37.7168 52.4831 37.8895 52.1836 38.0366C52.2792 38.1581 52.4257 38.2349 52.585 38.2349C52.636 38.2349 52.687 38.2285 52.738 38.2093C53.0056 38.1261 53.1585 37.8383 53.0757 37.5696C53.0693 37.5568 53.063 37.544 53.0566 37.5312Z" fill="#EA4335"/>
<path d="M42.3337 28.1543C42.1171 28.1735 41.9323 28.3398 41.8813 28.5637C41.8494 28.7236 41.894 28.8771 41.9896 28.9859C42.0852 28.7044 42.1999 28.423 42.3337 28.1543Z" fill="#EA4335"/>
<path d="M48.9662 38.7775C44.9008 38.7775 41.5936 35.4577 41.5936 31.3767C41.5936 31.2359 41.6 31.0888 41.6063 30.9481C40.95 30.833 40.2809 30.7754 39.6055 30.7754C33.5201 30.7754 28.5625 35.56 28.5625 41.4385C28.5625 47.317 33.5137 52.1016 39.6055 52.1016C45.6909 52.1016 50.6485 47.317 50.6485 41.4385C50.6485 40.4918 50.521 39.5643 50.2661 38.6624C49.8456 38.7391 49.4123 38.7775 48.9662 38.7775ZM38.7771 40.9588L40.6378 41.3426C42.1225 41.6496 43.1994 42.9417 43.1994 44.4129C43.1994 46.1656 41.8549 47.6176 40.1153 47.8607V48.8713C40.1153 49.1528 39.8859 49.3831 39.6055 49.3831C39.3251 49.3831 39.0957 49.1528 39.0957 48.8713V47.8607C37.3561 47.6176 36.0116 46.1656 36.0116 44.4129C36.0116 44.1315 36.241 43.9012 36.5213 43.9012C36.8017 43.9012 37.0311 44.1315 37.0311 44.4129C37.0311 45.769 38.1845 46.8756 39.6055 46.8756C41.0265 46.8756 42.1798 45.7754 42.1798 44.4129C42.1798 43.4278 41.447 42.5579 40.4339 42.3468L38.5732 41.963C37.0885 41.656 36.0116 40.3639 36.0116 38.8927V38.4705C36.0116 36.7178 37.3561 35.2658 39.0957 35.0227V34.0121C39.0957 33.7306 39.3251 33.5003 39.6055 33.5003C39.8859 33.5003 40.1153 33.7306 40.1153 34.0121V35.0227C41.8549 35.2658 43.1994 36.7178 43.1994 38.4705C43.1994 38.7519 42.97 38.9822 42.6896 38.9822C42.4092 38.9822 42.1798 38.7519 42.1798 38.4705C42.1798 37.1144 41.0265 36.0078 39.6055 36.0078C38.1845 36.0078 37.0311 37.108 37.0311 38.4705V38.8927C37.0375 39.8777 37.7703 40.7477 38.7771 40.9588Z" fill="#EA4335"/>
<defs>
<filter id="filter0_d_641_1658" x="0.605469" y="0" width="81.7871" height="82" filterUnits="userSpaceOnUse" color-interpolation-filters="sRGB">
<feFlood flood-opacity="0" result="BackgroundImageFix"/>
<feColorMatrix in="SourceAlpha" type="matrix" values="0 0 0 0 0 0 0 0 0 0 0 0 0 0 0 0 0 0 127 0" result="hardAlpha"/>
<feOffset dy="1"/>
<feGaussianBlur stdDeviation="6.5"/>
<feComposite in2="hardAlpha" operator="out"/>
<feColorMatrix type="matrix" values="0 0 0 0 0 0 0 0 0 0 0 0 0 0 0 0 0 0 0.1 0"/>
<feBlend mode="normal" in2="BackgroundImageFix" result="effect1_dropShadow_641_1658"/>
<feBlend mode="normal" in="SourceGraphic" in2="effect1_dropShadow_641_1658" result="shape"/>
</filter>
</defs>
</svg>
