<svg width="15" height="15" viewBox="0 0 15 15" fill="none" xmlns="http://www.w3.org/2000/svg">
<path d="M5.68456 4.19203C6.22328 3.63307 6.22762 2.95501 5.68716 2.40039C5.02855 1.72406 4.35514 1.06079 3.68783 0.393167C3.52795 0.234953 3.34114 0.112386 3.12304 0.0506523C2.64253 -0.0875666 2.23762 0.0662995 1.89269 0.40011C1.51212 0.766949 1.15673 1.16163 0.764863 1.51543C0.224406 2.00745 -0.0249694 2.60815 0.00196784 3.23579C0.00196784 3.89211 0.108843 4.47108 0.326927 5.1161C0.902996 6.81645 1.81535 8.32026 2.94924 9.70091C4.65054 11.7681 6.71334 13.3615 9.18195 14.4168C9.95354 14.7463 10.7564 14.9645 11.6018 14.9975C12.2466 15.0219 12.8383 14.8706 13.3127 14.4081C13.7506 13.9804 14.1799 13.5423 14.6074 13.1042C14.8098 12.8947 14.9523 12.6504 14.9897 12.354C15.0453 11.9219 14.8715 11.5751 14.5778 11.2795C14.1173 10.8144 13.6524 10.3537 13.1876 9.89121C12.9521 9.65736 12.7271 9.41047 12.4734 9.20097C11.9859 8.79848 11.3942 8.81152 10.9094 9.21662C10.8155 9.29486 10.7312 9.38092 10.6443 9.46785C10.2907 9.82165 9.93879 10.1755 9.58516 10.5293C9.51391 10.6005 9.44266 10.6649 9.33405 10.6049C9.01603 10.4336 8.68671 10.2824 8.38435 10.0885C7.20962 9.33658 6.23556 8.36382 5.3701 7.27537C5.00343 6.81464 4.68281 6.32262 4.44211 5.78191C4.33785 5.54633 4.33958 5.53676 4.52031 5.35681C4.90958 4.96996 5.30318 4.58485 5.68551 4.19107L5.68456 4.19203Z" fill="#029D4A"/>
</svg>
