<svg width="24" height="24" viewBox="0 0 24 24" fill="none" xmlns="http://www.w3.org/2000/svg">
<path d="M12 0C14.3734 0 16.6934 0.703788 18.6668 2.02236C20.6402 3.34094 22.1783 5.21508 23.0865 7.4078C23.9948 9.60051 24.2324 12.0133 23.7694 14.3411C23.3064 16.6689 22.1635 18.807 20.4853 20.4853C18.807 22.1635 16.6689 23.3064 14.3411 23.7694C12.0133 24.2324 9.60051 23.9948 7.4078 23.0865C5.21508 22.1783 3.34094 20.6402 2.02236 18.6668C0.703787 16.6934 0 14.3734 0 12C0 8.8174 1.26428 5.76515 3.51472 3.51472C5.76515 1.26428 8.8174 0 12 0Z" fill="#F4B844"/>
<path d="M12.0005 2.73438C13.8332 2.7343 15.6249 3.27771 17.1488 4.29589C18.6727 5.31408 19.8605 6.7613 20.5619 8.45455C21.2633 10.1478 21.4469 12.011 21.0893 13.8086C20.7318 15.6061 19.8492 17.2573 18.5533 18.5533C17.2573 19.8492 15.6061 20.7318 13.8086 21.0893C12.011 21.4469 10.1478 21.2633 8.45455 20.5619C6.7613 19.8605 5.31408 18.6727 4.29589 17.1488C3.27771 15.6249 2.7343 13.8332 2.73438 12.0005C2.7344 9.54295 3.71065 7.1861 5.44837 5.44837C7.1861 3.71065 9.54295 2.7344 12.0005 2.73438Z" fill="#FEDB41"/>
<path d="M15.2177 9.22077H13.9685C13.863 8.65591 13.6257 8.09106 13.2907 7.68759H15.2177C15.3889 7.68759 15.5531 7.61957 15.6742 7.49851C15.7953 7.37745 15.8633 7.21325 15.8633 7.04204C15.8633 6.87083 15.7953 6.70663 15.6742 6.58556C15.5531 6.4645 15.3889 6.39648 15.2177 6.39648H8.78238C8.61117 6.39648 8.44698 6.4645 8.32591 6.58556C8.20485 6.70663 8.13683 6.87083 8.13683 7.04204C8.13683 7.21325 8.20485 7.37745 8.32591 7.49851C8.44698 7.61957 8.61117 7.68759 8.78238 7.68759H10.6238C11.5654 7.68759 12.365 8.33314 12.6386 9.22077H8.78238C8.61117 9.22077 8.44698 9.28879 8.32591 9.40985C8.20485 9.53091 8.13683 9.69511 8.13683 9.86632C8.13683 10.0375 8.20485 10.2017 8.32591 10.3228C8.44698 10.4439 8.61117 10.5119 8.78238 10.5119H12.6392C12.538 10.754 12.3624 11.1112 12.1205 11.3534C11.9239 11.5492 11.6904 11.704 11.4334 11.8089C11.1765 11.9138 10.9013 11.9666 10.6238 11.9644H8.78238C8.65409 11.9619 8.52808 11.9984 8.42102 12.0692C8.31395 12.1399 8.23089 12.2415 8.18283 12.3604C8.13477 12.4794 8.12397 12.6102 8.15187 12.7354C8.17977 12.8607 8.24504 12.9745 8.33905 13.0618L12.9418 17.4084C13.0666 17.5255 13.2328 17.5883 13.4038 17.583C13.5749 17.5778 13.7369 17.5049 13.8543 17.3804C13.9125 17.3198 13.958 17.2483 13.9883 17.17C14.0185 17.0917 14.0328 17.0081 14.0304 16.9242C14.028 16.8402 14.0089 16.7576 13.9743 16.6812C13.9396 16.6047 13.89 16.5359 13.8285 16.4788L10.4059 13.2555H10.6238C11.0709 13.2582 11.5141 13.1721 11.9277 13.0023C12.3414 12.8326 12.7172 12.5824 13.0334 12.2663C13.5118 11.7868 13.8375 11.1763 13.9695 10.5119H15.2177C15.3889 10.5119 15.5531 10.4439 15.6742 10.3228C15.7953 10.2017 15.8633 10.0375 15.8633 9.86632C15.8633 9.69511 15.7953 9.53091 15.6742 9.40985C15.5531 9.28879 15.3889 9.22077 15.2177 9.22077Z" fill="#00ACEA"/>
</svg>
