<svg width="16" height="16" viewBox="0 0 16 16" fill="none" xmlns="http://www.w3.org/2000/svg">
<path d="M8.00058 0C3.58147 0 0 3.58147 0 7.99988C0 12.4185 3.5817 16 8.00058 16C12.4192 16 16.0007 12.4183 16.0007 7.99988C16.0007 3.58147 12.4192 0 8.00058 0ZM10.8279 4.19373H8.42472C8.66051 4.5554 8.94951 5.08413 9.07123 5.64918H10.8279V6.22766H9.12907C9.11773 6.62218 8.99186 7.01277 8.67902 7.35592C7.88257 8.22989 6.61478 8.44462 5.83383 8.48858L9.39286 12.3331L8.96826 12.726L4.95964 8.39579C4.87865 8.30833 4.85991 8.18014 4.91174 8.073C4.96403 7.96587 5.07811 7.90386 5.19519 7.91103C5.21625 7.91265 7.25318 8.0619 8.25141 6.96649C8.44948 6.74922 8.53486 6.49422 8.54782 6.22789H5.17205V5.64941H8.47748C8.30925 5.0191 7.89321 4.42559 7.71712 4.19396H5.17205V3.61549H10.8279V4.19373Z" fill="#FCB040"/>
</svg>
