<svg width="83" height="82" viewBox="0 0 83 82" fill="none" xmlns="http://www.w3.org/2000/svg">
<g filter="url(#filter0_d_641_1657)">
<ellipse cx="41.4283" cy="40" rx="27.8931" ry="28" fill="white"/>
</g>
<path d="M71.8102 40C71.8102 56.8465 58.2061 70.5 41.4286 70.5C24.651 70.5 11.0469 56.8465 11.0469 40C11.0469 23.1535 24.651 9.5 41.4286 9.5C58.2061 9.5 71.8102 23.1535 71.8102 40Z" stroke="white"/>
<path d="M41.2745 55V52.9396C37.1505 52.9259 33.4162 52.4307 30.7024 51.6413C28.6172 51.0325 27.1248 50.2404 26.4884 49.3401V50.7602C26.4884 51.8944 28.1362 52.941 30.798 53.7195C33.4816 54.4966 37.1819 54.9863 41.2745 55ZM41.6165 52.9383V54.9986C43.6554 54.9932 45.5989 54.8687 47.3678 54.6484V52.5894C45.5947 52.8083 43.6527 52.9314 41.6165 52.9383ZM55.4459 50.2308V52.2309C56.066 51.7685 56.404 51.2732 56.404 50.7575L56.4026 49.3374C56.1832 49.6493 55.8602 49.9489 55.4459 50.2308ZM53.6441 51.1474V53.1872C54.2111 52.9601 54.7017 52.718 55.1052 52.4649V50.451C54.6881 50.6945 54.2002 50.9285 53.6441 51.1474ZM50.8502 54.0396V51.986C49.8907 52.2077 48.8359 52.3951 47.7074 52.5442V54.6033C48.8372 54.4555 49.8921 54.264 50.8502 54.0396ZM51.1909 51.9067L51.1937 53.9589C51.9133 53.781 52.6383 53.5676 53.3048 53.3186V51.2774C52.6302 51.5209 51.9133 51.7302 51.1909 51.9067ZM37.7419 38.2734V37.7385C37.7419 37.4676 38.1508 37.4676 38.1508 37.7385V38.2638C38.7981 38.3322 39.4973 38.8193 39.5518 39.5129C39.5736 39.7824 39.1675 39.8125 39.1456 39.543C39.1048 39.0286 38.486 38.6674 37.9981 38.6674C36.6883 38.6674 36.1446 40.3776 37.9872 40.5171C40.2523 40.6908 39.8243 42.9934 38.1507 43.1753V43.7061C38.1507 43.9757 37.7419 43.9757 37.7419 43.7061V43.1726C37.1095 43.085 36.4444 42.6089 36.3899 41.9317C36.3708 41.6622 36.7769 41.6293 36.7974 41.8989C36.8383 42.4147 37.457 42.7745 37.9449 42.7745C39.2547 42.7745 39.7985 41.0671 37.9558 40.9248C35.7152 40.7551 36.1078 38.4978 37.7419 38.2734ZM39.2233 30.9513C38.1112 29.835 36.2032 30.6285 36.2032 32.2073C36.2032 33.7833 38.1113 34.5795 39.2233 33.4618C39.913 32.7709 39.913 31.6463 39.2233 30.9513ZM35.9102 31.5L34.1602 31.1046C33.8904 31.3878 33.9094 31.7011 34.1112 32.0814C34.1466 32.1443 34.1411 32.2169 34.1112 32.2757C33.9081 32.6533 33.8904 32.9707 34.1602 33.2525L35.8938 32.8612C35.7548 32.4194 35.7602 31.9391 35.9102 31.5ZM39.8597 31.1183L40.8028 30.9048C41.0958 29.7406 43.1538 27.501 43.3296 26.349C43.3923 25.9385 42.9684 25.8838 42.6618 25.9673C41.9504 26.1574 41.0209 26.8429 40.3667 26.9113C39.6553 26.9824 39.3554 26.4694 39.0311 25.9481C38.2406 24.684 37.7009 24.684 36.9104 25.9481C36.5861 26.4707 36.2862 26.9838 35.5748 26.9113C34.9915 26.8511 33.9039 26.1342 33.2797 25.9673C32.9717 25.8838 32.5492 25.9372 32.6119 26.349C32.7877 27.5009 34.8456 29.7405 35.1387 30.9048L36.0818 31.1155C36.9186 29.6571 39.0243 29.6571 39.8597 31.1183ZM40.0505 32.8613L41.7814 33.2525C42.0512 32.9693 42.0349 32.6533 41.8318 32.2757C41.7991 32.2182 41.7964 32.1444 41.8318 32.0814C42.0349 31.7011 42.0526 31.3864 41.7814 31.1046L40.0342 31.5C40.1813 31.9391 40.1895 32.4194 40.0505 32.8613ZM38.5295 31.6478C38.0334 31.1497 37.183 31.5041 37.183 32.2087C37.183 32.9105 38.0334 33.2649 38.5295 32.7669C38.8375 32.4577 38.8375 31.9556 38.5295 31.6478ZM37.9707 31.0061C39.0351 31.0061 39.5707 32.3017 38.8171 33.0583C38.0648 33.8135 36.7727 33.2745 36.7727 32.2087C36.7741 31.5424 37.3084 31.0061 37.9707 31.0061ZM39.5653 44.9308C39.1673 42.6652 39.9673 40.189 41.4256 38.4133C40.1281 35.8549 37.0372 35.3186 35.1562 37.4666C33.5821 39.2615 33.5821 42.1825 35.1562 43.9761C36.2915 45.2757 38.036 45.697 39.5653 44.9308ZM53.1208 46.5863C54.1429 47.0459 54.7221 47.5823 54.7221 48.1623C54.7221 49.0981 53.2066 49.9231 50.7534 50.4977C45.6071 51.7016 37.2852 51.7016 32.1403 50.4977C29.6871 49.9231 28.1715 49.0995 28.1715 48.1623C28.1715 47.4701 28.9961 46.8407 30.4162 46.3263C30.2609 46.1102 30.1232 45.8831 29.9965 45.6505C27.809 46.3947 26.4883 47.3414 26.4883 48.3552C26.4883 49.4894 28.136 50.536 30.7979 51.3131C36.672 53.0273 46.2231 53.0273 52.0972 51.3131C54.7589 50.5374 56.404 49.4908 56.404 48.3552C56.404 47.4263 55.3001 46.5548 53.4356 45.8434C53.3525 46.0883 53.2393 46.3564 53.1208 46.5863ZM42.2393 48.8163C41.0672 49.2664 39.6525 49.5168 37.9722 49.5017C34.3852 49.5304 32.0053 48.3593 30.6237 46.6068C29.2881 47.0637 28.5112 47.6 28.5112 48.161C28.5112 48.9175 29.9286 49.6276 32.2183 50.1639C37.3101 51.3541 45.5853 51.3541 50.6772 50.1639C52.9668 49.6276 54.3842 48.9162 54.3842 48.161C54.3842 47.7054 53.8704 47.2662 52.9641 46.8736C51.9406 48.6152 49.9044 49.8396 46.6159 49.8123C44.7801 49.83 43.3368 49.4538 42.2396 48.8163L42.2393 48.8163ZM43.2478 34.7739C42.8198 34.3662 42.351 33.9982 41.8495 33.6821C41.8318 33.6821 41.8168 33.6794 41.7991 33.6767L39.891 33.2471C39.0678 34.7753 36.8776 34.7753 36.0545 33.2471L34.1464 33.6767C34.1301 33.6808 34.111 33.6821 34.096 33.6821C32.3569 34.778 31.0363 36.4758 30.2731 38.3515C29.3736 40.5651 29.2019 43.1795 30.2813 45.3125C31.4043 47.5315 33.8505 49.1293 37.9707 49.0954H37.9748C39.4658 49.1063 40.7374 48.9052 41.8046 48.5386C40.6844 47.7451 39.9702 46.6314 39.6526 45.3454C37.9722 46.1334 36.082 45.6546 34.8483 44.2482C33.1392 42.2972 33.1392 39.1466 34.8483 37.1968C36.8749 34.882 40.2276 35.3759 41.7132 38.0806C42.1466 37.6059 42.6345 37.1804 43.1743 36.8261C42.978 36.5333 42.9807 36.1954 43.1415 35.8465C42.9589 35.4538 42.9807 35.0817 43.2478 34.7739ZM47.5927 34.8888C46.7258 34.016 45.2349 34.6371 45.2349 35.8698C45.2349 37.1038 46.7258 37.7236 47.5927 36.8507C48.1337 36.3117 48.1337 35.4306 47.5927 34.8888ZM44.8941 36.3664C44.7974 36.0298 44.8014 35.6646 44.9077 35.3307L43.5666 35.027C43.3772 35.2377 43.3976 35.4689 43.5489 35.7494C43.6511 35.9409 43.3799 36.0791 43.4344 36.4115C43.4508 36.5046 43.4944 36.5894 43.5653 36.6674L44.8941 36.3664ZM48.1787 36.7508C47.4959 37.9726 45.7391 37.9726 45.0536 36.7508L43.549 37.0901C43.5381 37.0942 43.5244 37.0942 43.5122 37.0956C42.1275 37.9712 41.074 39.3284 40.4647 40.8225C39.7465 42.5956 39.6061 44.6831 40.4702 46.3867C41.3642 48.1543 43.3214 49.4307 46.614 49.4048H46.6181C49.9135 49.4321 51.868 48.1557 52.7646 46.3867C53.6287 44.682 53.4897 42.5943 52.7687 40.8225C52.1609 39.3285 51.1074 37.9713 49.7227 37.0956C49.709 37.0929 49.6981 37.0929 49.6845 37.0901L48.1787 36.7508ZM48.3259 35.3321C48.4295 35.6659 48.4363 36.0312 48.3395 36.3678L49.667 36.6674C49.8564 36.4567 49.836 36.2255 49.6833 35.945C49.5798 35.7507 49.8496 35.6153 49.7951 35.2829C49.7787 35.1898 49.7351 35.1064 49.6656 35.027L48.3259 35.3321ZM46.6155 34.0734C47.2615 34.0734 47.838 34.4168 48.1556 34.949L48.8615 34.7903C49.1205 33.8409 50.7477 32.0623 50.8868 31.1566C50.9304 30.8584 50.6142 30.8337 50.4002 30.8939C49.4626 31.1443 48.4431 32.2374 47.7017 31.2579C47.6118 31.1402 47.5245 31.0007 47.4373 30.8611C46.8186 29.872 46.4179 29.872 45.7991 30.8611C45.5129 31.3208 45.2703 31.7148 44.6897 31.6546C44.1745 31.6026 43.3745 31.039 42.8376 30.8939C41.5237 30.5437 43.3105 32.9475 43.41 33.0938C43.8379 33.7286 44.2522 34.3416 44.3749 34.7903L45.0808 34.949C45.3957 34.4155 45.9709 34.0734 46.6155 34.0734ZM48.8506 40.1245C47.6144 38.7126 45.6192 38.7126 44.3805 40.1245C43.1307 41.5528 43.1307 43.8759 44.3805 45.3055C45.6194 46.7174 47.6133 46.7174 48.8506 45.3055C50.1031 43.8772 50.1031 41.5541 48.8506 40.1245ZM46.6155 38.6551C48.7007 38.6551 50.1973 40.5965 50.1973 42.7158C50.1973 44.8351 48.7008 46.7736 46.6155 46.7736C44.533 46.7736 43.0337 44.8336 43.0337 42.7158C43.035 40.5966 44.5329 38.6551 46.6155 38.6551ZM46.3906 40.7128V40.3174C46.3906 40.0465 46.7995 40.0465 46.7995 40.3174V40.7059C47.3269 40.7757 47.8816 41.1752 47.9252 41.7416C47.947 42.0097 47.5382 42.0412 47.5177 41.7717C47.4877 41.3818 47.0094 41.1041 46.6373 41.1041C45.6369 41.1041 45.1981 42.401 46.6291 42.5118C48.4813 42.6528 48.1637 44.5421 46.7995 44.7241V45.114C46.7995 45.3835 46.3906 45.3835 46.3906 45.114V44.72C45.8768 44.6365 45.3466 44.2439 45.3057 43.6912C45.2839 43.4216 45.6928 43.3915 45.7119 43.6611C45.7419 44.051 46.2216 44.3287 46.595 44.3287C47.5954 44.3287 48.0315 43.0317 46.6005 42.9209C44.7674 42.78 45.0577 40.9276 46.3906 40.7128ZM47.0366 35.447C46.6632 35.0721 46.0227 35.3402 46.0227 35.8697C46.0227 36.3991 46.6632 36.6659 47.0366 36.2911C47.2683 36.0585 47.2683 35.6823 47.0366 35.447ZM46.6155 34.8641C47.5068 34.8641 47.9566 35.9504 47.3242 36.5825C46.6945 37.2173 45.6124 36.7644 45.6124 35.8711C45.6138 35.3142 46.0635 34.8641 46.6155 34.8641Z" fill="#029D4A"/>
<defs>
<filter id="filter0_d_641_1657" x="0.535156" y="0" width="81.7871" height="82" filterUnits="userSpaceOnUse" color-interpolation-filters="sRGB">
<feFlood flood-opacity="0" result="BackgroundImageFix"/>
<feColorMatrix in="SourceAlpha" type="matrix" values="0 0 0 0 0 0 0 0 0 0 0 0 0 0 0 0 0 0 127 0" result="hardAlpha"/>
<feOffset dy="1"/>
<feGaussianBlur stdDeviation="6.5"/>
<feComposite in2="hardAlpha" operator="out"/>
<feColorMatrix type="matrix" values="0 0 0 0 0 0 0 0 0 0 0 0 0 0 0 0 0 0 0.1 0"/>
<feBlend mode="normal" in2="BackgroundImageFix" result="effect1_dropShadow_641_1657"/>
<feBlend mode="normal" in="SourceGraphic" in2="effect1_dropShadow_641_1657" result="shape"/>
</filter>
</defs>
</svg>
