<svg width="15" height="15" viewBox="0 0 15 15" fill="none" xmlns="http://www.w3.org/2000/svg">
<g clip-path="url(#clip0_663_1416)">
<path d="M12.7573 2.17981C11.3534 0.774957 9.48665 0.000857132 7.49776 0C3.39935 0 0.0640645 3.33422 0.0624237 7.43245C0.0619461 8.74246 0.404236 10.0212 1.05484 11.1484L0 15L3.94156 13.9665C5.02753 14.5587 6.25027 14.8708 7.49456 14.8713H7.49772H7.49776C11.5955 14.8713 14.9313 11.5365 14.933 7.43847C14.9337 5.45228 14.161 3.58476 12.7573 2.17981ZM7.49776 13.6159H7.49535C6.38624 13.6154 5.29862 13.3176 4.34994 12.7547L4.12417 12.6208L1.78517 13.2341L2.40965 10.9544L2.26256 10.7207C1.64389 9.73699 1.31729 8.6002 1.31775 7.43292C1.31911 4.02661 4.09127 1.25542 7.5001 1.25542C9.15084 1.2561 10.7023 1.89954 11.8692 3.06721C13.036 4.23487 13.6781 5.78711 13.6776 7.43794C13.6761 10.8444 10.9039 13.6159 7.49776 13.6159Z" fill="#E0E0E0"/>
<path d="M0.34375 14.5723L1.3504 10.8967C0.729361 9.82095 0.40277 8.60051 0.403161 7.35058C0.40479 3.43963 3.58775 0.257812 7.49861 0.257812C9.39674 0.25867 11.1782 0.99737 12.5177 2.33808C13.8574 3.67878 14.5948 5.46087 14.594 7.35612C14.5924 11.2672 11.4093 14.4493 7.49889 14.4493C7.49908 14.4493 7.49861 14.4493 7.49889 14.4493H7.49573C6.30827 14.4489 5.14148 14.1508 4.10519 13.586L0.34375 14.5723Z" fill="url(#paint0_linear_663_1416)"/>
<path fill-rule="evenodd" clip-rule="evenodd" d="M5.65946 4.2767C5.5219 3.97086 5.37707 3.96474 5.2462 3.95939C5.13915 3.9548 5.01661 3.95508 4.89426 3.95508C4.77181 3.95508 4.57283 4.0011 4.40457 4.18487C4.2362 4.36864 3.76172 4.81289 3.76172 5.71641C3.76172 6.62004 4.41987 7.49315 4.51161 7.61578C4.60345 7.73823 5.7821 9.65166 7.64875 10.3878C9.2001 10.9995 9.51579 10.8779 9.85252 10.8472C10.1893 10.8166 10.939 10.4031 11.0921 9.97423C11.2452 9.54547 11.2452 9.17794 11.1992 9.10112C11.1533 9.02459 11.0309 8.97867 10.8472 8.88683C10.6635 8.795 9.76069 8.35065 9.59232 8.28943C9.42395 8.2282 9.30151 8.19759 9.17906 8.38146C9.05661 8.56513 8.70486 8.97867 8.59772 9.10112C8.49058 9.22385 8.38343 9.23915 8.19976 9.14732C8.01609 9.0552 7.42461 8.86147 6.72294 8.23584C6.17699 7.74911 5.8084 7.14797 5.70126 6.96412C5.59412 6.78044 5.68978 6.68096 5.7819 6.5894C5.86436 6.50713 5.96558 6.37502 6.05741 6.26778C6.14905 6.16054 6.17966 6.08401 6.24089 5.96157C6.30211 5.83892 6.2715 5.73169 6.22558 5.63986C6.17966 5.54802 5.82275 4.63983 5.65946 4.2767Z" fill="white"/>
<path d="M12.6968 2.15675C11.309 0.768021 9.46368 0.0028225 7.49764 0.00195312C3.44626 0.00195312 0.149267 3.29789 0.147639 7.34908C0.147161 8.64407 0.48552 9.90814 1.12865 11.0224L0.0859375 14.8298L3.98225 13.8081C5.05577 14.3935 6.26446 14.702 7.49448 14.7025H7.4976H7.49764C11.5483 14.7025 14.8458 11.406 14.8475 7.355C14.8482 5.39165 14.0844 3.54557 12.6968 2.15675ZM7.49764 13.4616H7.49525C6.39887 13.461 5.32372 13.1667 4.38595 12.6102L4.16276 12.4779L1.85061 13.0841L2.46792 10.8306L2.32251 10.5996C1.71095 9.62719 1.38809 8.50344 1.38857 7.34957C1.3899 3.98236 4.13024 1.24298 7.49994 1.24298C9.13175 1.24366 10.6654 1.87971 11.8189 3.03397C12.9723 4.18823 13.607 5.72265 13.6065 7.35455C13.6051 10.7218 10.8647 13.4616 7.49764 13.4616Z" fill="white"/>
</g>
<defs>
<linearGradient id="paint0_linear_663_1416" x1="7.4689" y1="14.5723" x2="7.4689" y2="0.257836" gradientUnits="userSpaceOnUse">
<stop stop-color="#20B038"/>
<stop offset="1" stop-color="#60D66A"/>
</linearGradient>
<clipPath id="clip0_663_1416">
<rect width="14.934" height="15" fill="white"/>
</clipPath>
</defs>
</svg>
