<svg width="18" height="18" viewBox="0 0 18 18" fill="none" xmlns="http://www.w3.org/2000/svg">
<path d="M15.534 9.08275V2.81281C15.534 1.85386 14.754 1.07384 13.7951 1.07384H11.972V0.642857C11.972 0.287842 11.6841 0 11.3291 0C10.9741 0 10.6862 0.287842 10.6862 0.642857V1.07384H4.8478V0.642857C4.8478 0.287842 4.55995 0 4.20494 0C3.84992 0 3.56208 0.287842 3.56208 0.642857V1.07384H1.73898C0.780029 1.07384 0 1.85386 0 2.81281V13.7951C0 14.754 0.780029 15.534 1.73898 15.534H9.08275C9.89248 17.0024 11.4551 18 13.247 18C15.8677 18 18 15.8677 18 13.247C18 11.4551 17.0024 9.89248 15.534 9.08275ZM9.77972 13.247C9.77972 11.3351 11.3351 9.77972 13.247 9.77972C15.1589 9.77972 16.7143 11.3351 16.7143 13.247C16.7143 15.1589 15.1589 16.7143 13.247 16.7143C11.3351 16.7143 9.77972 15.1589 9.77972 13.247ZM1.28571 2.81281C1.28571 2.56295 1.48912 2.35955 1.73898 2.35955H3.56208V3.40733C3.39634 3.52379 3.28805 3.7162 3.28805 3.93405C3.28805 4.28906 3.57589 4.5769 3.93091 4.5769H4.20494C4.55995 4.5769 4.8478 4.28906 4.8478 3.93405V2.35955H10.6862V3.40733C10.5205 3.52379 10.4122 3.7162 10.4122 3.93405C10.4122 4.28906 10.7001 4.5769 11.0551 4.5769H11.3291C11.6841 4.5769 11.972 4.28906 11.972 3.93405V2.35955H13.7951C14.0449 2.35955 14.2483 2.56295 14.2483 2.81281V5.66298H1.28571V2.81281ZM1.73898 14.2483C1.48912 14.2483 1.28571 14.0449 1.28571 13.7951V6.9487H14.2483V8.60226C13.9252 8.53265 13.5907 8.494 13.247 8.494C10.6263 8.494 8.494 10.6263 8.494 13.247C8.494 13.5907 8.53265 13.9252 8.60226 14.2483H1.73898Z" fill="white"/>
<path d="M15.3986 11.7601C15.1478 11.5083 14.741 11.5089 14.4896 11.7594L12.7942 13.4523L12.0255 12.6848C11.7738 12.434 11.367 12.4337 11.1165 12.6854C10.8657 12.9365 10.866 13.3437 11.1171 13.5945L12.34 14.8155C12.4656 14.9408 12.6298 15.0035 12.7942 15.0035C12.9587 15.0035 13.1229 14.9408 13.2484 14.8155L15.398 12.6691C15.6491 12.4183 15.6494 12.0112 15.3986 11.7601Z" fill="white"/>
</svg>
