<svg width="30" height="30" viewBox="0 0 30 30" fill="none" xmlns="http://www.w3.org/2000/svg">
<rect width="30" height="30" fill="white"/>
<path fill-rule="evenodd" clip-rule="evenodd" d="M10.5013 13.6275H25.2667C25.6715 13.6275 26 13.956 26 14.3609V25.2544C26 25.6592 25.6715 25.9877 25.2667 25.9877H5.95627C5.55144 25.9877 5.22296 25.6592 5.22296 25.2544V14.4772L4.03706 10.8984C3.91007 10.5136 4.12013 10.1002 4.50398 9.97318L22.426 4.03706C22.8108 3.91007 23.2242 4.12013 23.3512 4.50398L24.5744 8.19545C24.7014 8.58024 24.4913 8.99368 24.1075 9.12069L10.5013 13.6275ZM17.334 9.81972L20.3865 6.25634L17.1764 7.32003L14.1238 10.8834L17.334 9.81972ZM22.367 6.19328L20.0229 8.92876L22.9512 7.95864L22.367 6.19328ZM11.4351 11.7742L14.4876 8.21085L11.2774 9.27453L8.22488 12.8379L11.4351 11.7742ZM6.2447 12.9L8.58879 10.1645L5.66045 11.1346L6.2447 12.9ZM15.052 17.3964C14.7464 17.1834 14.2938 17.3735 14.2938 17.7268V21.8871C14.2938 22.2403 14.7464 22.4304 15.052 22.2174L18.0378 20.1369C18.2793 19.9688 18.2793 19.6451 18.0378 19.4761L15.052 17.3964ZM24.5334 15.0943H6.68958V24.5212H24.5324L24.5334 15.0943Z" fill="#0D99FF"/>
</svg>
