<svg width="29" height="30" viewBox="0 0 29 30" fill="none" xmlns="http://www.w3.org/2000/svg">
<circle cx="14.5" cy="15" r="14.5" fill="#FCB040"/>
<path d="M17.5713 14.4908V15.8914H19.8747C20.2654 15.8914 20.6202 15.7317 20.8781 15.4738C21.1359 15.2159 21.2957 14.8605 21.2957 14.4704C21.2957 14.0797 21.1359 13.7244 20.8781 13.4665C20.6202 13.2086 20.2648 13.0489 19.8747 13.0489H17.5707V14.4914L17.5713 14.4908ZM10.123 14.139H11.5996V12.6277L10.123 11.7751V14.139ZM11.5996 14.842H10.123V17.2053L11.5996 16.3527V14.8414V14.842ZM10.123 10.9655L11.5996 11.8181V10.1895L10.123 9.42788V10.9661V10.9655ZM11.5996 17.1633L10.123 18.0159V19.5542L11.5996 18.7919V17.1633ZM19.9926 16.5914V20.0944C19.9926 20.524 19.8173 20.9147 19.5343 21.1977C19.2513 21.4806 18.8606 21.656 18.4304 21.656C18.0008 21.656 17.6102 21.4807 17.3272 21.1977C17.0442 20.9147 16.8689 20.524 16.8689 20.0944V16.8612L12.1352 19.3053C12.1202 19.3143 12.1053 19.322 12.0897 19.3286L9.93344 20.4421C9.76113 20.5306 9.54993 20.463 9.46079 20.2907C9.43447 20.2392 9.4219 20.1842 9.4219 20.1297H9.42071V16.4281H8.93729C8.4042 16.4281 7.91958 16.2103 7.56898 15.8591C7.21777 15.5079 7 15.0239 7 14.4908C7 13.9577 7.21778 13.4731 7.56898 13.1225C7.92018 12.7713 8.4042 12.5535 8.93729 12.5535H9.42071V8.8518C9.42071 8.65736 9.57805 8.5 9.77251 8.5C9.83952 8.5 9.90234 8.51855 9.95559 8.55145L12.0898 9.65352C12.1053 9.6607 12.1203 9.66788 12.1347 9.67685L17.3033 12.3453H19.8754C20.46 12.3453 20.9913 12.584 21.376 12.9693C21.7613 13.3546 22 13.8853 22 14.4698C22 15.055 21.7613 15.5857 21.376 15.971C21.017 16.33 20.5306 16.5621 19.9927 16.592L19.9926 16.5914ZM17.5712 16.5944V20.0945C17.5712 20.3302 17.6681 20.545 17.8237 20.7006C17.9792 20.8561 18.194 20.953 18.4298 20.953C18.6655 20.953 18.8803 20.8561 19.0364 20.7006C19.192 20.545 19.2889 20.3302 19.2889 20.0945V16.5944H17.5712ZM9.41994 13.2558H8.93652C8.59729 13.2558 8.28916 13.3952 8.0654 13.619C7.84164 13.8428 7.70283 14.1509 7.70283 14.4901C7.70283 14.8294 7.84163 15.1375 8.0654 15.3612C8.28916 15.585 8.59789 15.7244 8.93652 15.7244H9.41994V13.2558ZM12.3025 10.5522V18.4282L16.8682 16.0708V12.9088L12.3025 10.5514V10.5522Z" fill="white"/>
</svg>
