<svg width="14" height="12" viewBox="0 0 14 12" fill="none" xmlns="http://www.w3.org/2000/svg">
<path d="M6.49066 1.2769C3.88212 1.2769 1.76756 3.39147 1.76756 6.00001C1.76756 8.60854 3.88212 10.7231 6.49066 10.7231C8.34451 10.7231 9.94986 9.65499 10.7232 8.09883L11.4922 8.48111C10.5795 10.3177 8.68287 11.5816 6.4906 11.5816C3.40774 11.5816 0.909027 9.08277 0.909027 6.00003C0.909027 2.91729 3.40786 0.418457 6.4906 0.418457C8.68287 0.418457 10.5795 1.68186 11.4922 3.51895L10.7232 3.90123C9.94979 2.34513 8.34439 1.2769 6.49066 1.2769Z" fill="white"/>
<path d="M6.92032 3.33982V2.56494H6.0618V3.33982C5.40106 3.52678 4.91644 4.13438 4.91644 4.85512C4.91644 5.72446 5.62147 6.42948 6.49081 6.42948C6.88637 6.42948 7.20666 6.74977 7.20666 7.14484C7.20666 7.5404 6.88637 7.86069 6.49081 7.86069C6.09574 7.86069 5.77546 7.5404 5.77546 7.14484V6.91606H4.91644V7.14484C4.91644 7.86561 5.40106 8.47323 6.0618 8.66014V9.43502H6.92032V8.66014C7.58107 8.47318 8.06518 7.86557 8.06518 7.14484C8.06518 6.2755 7.36064 5.57047 6.49081 5.57047C6.09574 5.57047 5.77546 5.25018 5.77546 4.85512C5.77546 4.45956 6.09574 4.13927 6.49081 4.13927C6.88637 4.13927 7.20666 4.45956 7.20666 4.85512V5.08389H8.06518V4.85512C8.06518 4.13435 7.58105 3.52673 6.92032 3.33982Z" fill="white"/>
<path d="M11.7508 6.42954L11.0354 7.1449L11.6426 7.7525L13.091 6.30358V5.69646L11.6426 4.24805L11.0354 4.85516L11.7508 5.57052H8.78015V6.42953L11.7508 6.42954Z" fill="white"/>
</svg>
