<svg width="30" height="30" viewBox="0 0 30 30" fill="none" xmlns="http://www.w3.org/2000/svg">
<rect width="30" height="30" fill="white"/>
<path d="M23.9187 16.7622L22.0052 15.7606C20.2503 14.8415 19.203 15.1912 18.0937 15.5615C17.5997 15.7265 17.0885 15.8969 16.4698 15.974C16.1031 16.0197 15.6054 15.9749 15.3095 15.714C15.1364 15.5615 15.053 15.3526 15.053 15.0737V12.0293C15.053 11.2797 14.4433 10.669 13.6927 10.669C12.9431 10.669 12.3324 11.2788 12.3324 12.0293V15.0136C12.3324 16.8249 13.3394 18.265 14.8979 18.6828C15.2333 18.7725 15.4584 19.0666 15.4584 19.4136V24.6709C15.4584 24.852 15.6054 25 15.7875 25H21.6933C21.8744 25 22.0224 24.8529 22.0224 24.6709V22.5179C22.2528 22.4605 22.4599 22.3422 22.633 22.1664L24.5905 20.182C25.1025 19.6628 25.3052 18.9858 25.1608 18.2783C25.0299 17.6363 24.6112 17.126 23.918 16.7629L23.9187 16.7622ZM24.1232 19.7205L22.1657 21.7049C22.0365 21.8358 21.8823 21.8995 21.694 21.8995C21.5075 21.8995 21.3524 21.8358 21.2205 21.7031C20.9641 21.4466 20.8502 21.0387 21.1748 20.7087L22.6463 19.2103C22.7638 19.0901 22.8131 18.9207 22.7781 18.7565C22.7432 18.5942 22.6302 18.4615 22.475 18.4014L20.6789 17.7056C20.5095 17.6401 20.3194 17.7235 20.2539 17.893C20.1884 18.0625 20.2718 18.2526 20.4413 18.3181L22.0052 18.9242L20.7058 20.2469C20.1687 20.7939 20.1902 21.6009 20.756 22.1667C20.93 22.3407 21.1372 22.459 21.3658 22.5155V24.3403H16.1184V19.4111C16.1184 18.7618 15.6969 18.213 15.0701 18.0454C13.8084 17.7073 12.9924 16.5165 12.9924 15.0109V12.0266C12.9924 11.6393 13.3072 11.3245 13.6946 11.3245C14.0819 11.3245 14.3967 11.6393 14.3967 12.0266V15.071C14.3967 15.5355 14.5626 15.9274 14.8755 16.2036C15.2656 16.5488 15.8924 16.7057 16.5524 16.6232C17.2357 16.5389 17.8033 16.3488 18.3036 16.182C19.36 15.8296 20.1939 15.5507 21.7013 16.3407L23.6149 17.3424C24.1322 17.6132 24.4282 17.9611 24.5187 18.4067C24.6183 18.8937 24.4775 19.359 24.1242 19.7177L24.1232 19.7205ZM20.8304 13.1735C20.8304 12.0222 19.8934 11.0851 18.742 11.0851C17.5906 11.0851 16.6535 12.0222 16.6535 13.1735C16.6535 14.3249 17.5906 15.262 18.742 15.262C19.8934 15.262 20.8304 14.3249 20.8304 13.1735ZM17.3108 13.1735C17.3108 12.3844 17.9529 11.7424 18.742 11.7424C19.5311 11.7424 20.1731 12.3844 20.1731 13.1735C20.1731 13.9626 19.5311 14.6047 18.742 14.6047C17.9529 14.6047 17.3108 13.9626 17.3108 13.1735ZM24.801 7.30723H24.619V6.34596C24.619 6.01687 24.3509 5.74875 24.0218 5.74875H23.0605V5.69225C23.0605 5.31114 22.7512 5.00179 22.3701 5.00179H20.9918C20.6107 5.00179 20.3014 5.31117 20.3014 5.69225V7.30813L10.4977 7.30633V5.69046C10.4977 5.30935 10.1883 5 9.80725 5H8.42902C8.04791 5 7.73856 5.30937 7.73856 5.69046V5.74695H6.77729C6.4482 5.74695 6.18007 6.01507 6.18007 6.34417V7.30543H5.99804C5.44747 7.30543 5 7.75289 5 8.30348C5 8.85407 5.44745 9.30152 5.99804 9.30152H6.18007V10.2628C6.18007 10.5919 6.4482 10.86 6.77729 10.86H7.73856V10.9165C7.73856 11.2976 8.04793 11.607 8.42902 11.607H9.80725C10.1884 11.607 10.4977 11.2976 10.4977 10.9165V9.30062H20.3014V10.9165C20.3014 11.2976 20.6108 11.607 20.9918 11.607H22.3701C22.7512 11.607 23.0605 11.2976 23.0605 10.9165V10.86H24.0218C24.3509 10.86 24.619 10.5919 24.619 10.2628V9.30152H24.801C25.3516 9.30152 25.7991 8.85407 25.7991 8.30348C25.7991 7.75289 25.3516 7.30543 24.801 7.30543V7.30723ZM5.99716 8.64421C5.80974 8.64421 5.6573 8.49177 5.6573 8.30435C5.6573 8.11694 5.80974 7.96449 5.99716 7.96449H6.17919V8.64508H5.99716V8.64421ZM6.83646 10.2027L6.83736 6.40606H7.73855V10.2036H6.83736L6.83646 10.2027ZM9.8386 10.9174C9.8386 10.9344 9.82336 10.9505 9.80542 10.9505H8.42719C8.41015 10.9505 8.39401 10.9353 8.39401 10.9174L8.3958 5.69129C8.3958 5.67425 8.41105 5.65811 8.42898 5.65811H9.80722C9.82425 5.65811 9.84039 5.67335 9.84039 5.69129V10.9183L9.8386 10.9174ZM10.4959 8.64423V7.96364H20.2996V8.64423H10.4959ZM22.4005 10.9174C22.4005 10.9344 22.3852 10.9505 22.3673 10.9505H20.989C20.972 10.9505 20.9559 10.9353 20.9559 10.9174L20.9586 5.69129C20.9586 5.67425 20.9738 5.65811 20.9917 5.65811H22.37C22.387 5.65811 22.4032 5.67335 22.4032 5.69129V10.9183L22.4005 10.9174ZM23.9589 10.2027H23.0577L23.0595 6.40606H23.9607V10.2036L23.9589 10.2027ZM24.7982 8.64421H24.6162V7.96362H24.7982C24.9857 7.96362 25.1381 8.11606 25.1381 8.30348C25.1381 8.4909 24.9857 8.64334 24.7982 8.64334V8.64421Z" fill="#029D4A"/>
</svg>
