<svg width="30" height="30" viewBox="0 0 30 30" fill="none" xmlns="http://www.w3.org/2000/svg">
<rect width="30" height="30" fill="white"/>
<path d="M11.1789 7.85718H9.25028C9.19868 7.85715 9.14758 7.86729 9.0999 7.88702C9.05223 7.90675 9.00891 7.93569 8.97242 7.97218C8.93593 8.00866 8.907 8.05198 8.88727 8.09966C8.86753 8.14734 8.85739 8.19844 8.85742 8.25003V10.1786C8.85739 10.2302 8.86753 10.2813 8.88726 10.329C8.907 10.3767 8.93593 10.42 8.97242 10.4565C9.00891 10.493 9.05223 10.5219 9.0999 10.5417C9.14758 10.5614 9.19868 10.5715 9.25028 10.5715H11.1789C11.2305 10.5715 11.2816 10.5614 11.3293 10.5417C11.3769 10.5219 11.4203 10.493 11.4567 10.4565C11.4932 10.42 11.5222 10.3767 11.5419 10.329C11.5616 10.2813 11.5718 10.2302 11.5717 10.1786V8.25003C11.5718 8.19844 11.5616 8.14734 11.5419 8.09966C11.5222 8.05198 11.4932 8.00866 11.4567 7.97218C11.4203 7.93569 11.3769 7.90675 11.3293 7.88702C11.2816 7.86729 11.2305 7.85715 11.1789 7.85718ZM10.786 9.78578H9.64314V8.64289H10.786V9.78578Z" fill="#FD3995"/>
<path d="M11.1789 11.7144H9.25028C9.19868 11.7143 9.14758 11.7245 9.0999 11.7442C9.05223 11.7639 9.00891 11.7929 8.97242 11.8294C8.93593 11.8658 8.907 11.9092 8.88727 11.9568C8.86753 12.0045 8.85739 12.0556 8.85742 12.1072V14.0358C8.85739 14.0874 8.86753 14.1385 8.88726 14.1862C8.907 14.2339 8.93593 14.2772 8.97242 14.3137C9.00891 14.3502 9.05223 14.3791 9.0999 14.3988C9.14758 14.4186 9.19868 14.4287 9.25028 14.4287H11.1789C11.2305 14.4287 11.2816 14.4186 11.3293 14.3988C11.3769 14.3791 11.4203 14.3502 11.4567 14.3137C11.4932 14.2772 11.5222 14.2339 11.5419 14.1862C11.5616 14.1385 11.5718 14.0874 11.5717 14.0358V12.1072C11.5718 12.0556 11.5616 12.0045 11.5419 11.9568C11.5222 11.9092 11.4932 11.8658 11.4567 11.8294C11.4203 11.7929 11.3769 11.7639 11.3293 11.7442C11.2816 11.7245 11.2305 11.7143 11.1789 11.7144ZM10.786 13.643H9.64314V12.5001H10.786V13.643Z" fill="#FD3995"/>
<path d="M15.0363 11.7144H13.1077C13.0561 11.7143 13.005 11.7245 12.9573 11.7442C12.9096 11.7639 12.8663 11.7929 12.8298 11.8294C12.7934 11.8658 12.7644 11.9092 12.7447 11.9568C12.725 12.0045 12.7148 12.0556 12.7148 12.1072V14.0358C12.7148 14.0874 12.725 14.1385 12.7447 14.1862C12.7644 14.2339 12.7934 14.2772 12.8298 14.3137C12.8663 14.3502 12.9096 14.3791 12.9573 14.3988C13.005 14.4186 13.0561 14.4287 13.1077 14.4287H15.0363C15.0879 14.4287 15.139 14.4186 15.1867 14.3988C15.2344 14.3791 15.2777 14.3502 15.3142 14.3137C15.3506 14.2772 15.3796 14.2339 15.3993 14.1862C15.419 14.1385 15.4292 14.0874 15.4292 14.0358V12.1072C15.4292 12.0556 15.419 12.0045 15.3993 11.9568C15.3796 11.9092 15.3506 11.8658 15.3142 11.8294C15.2777 11.7929 15.2344 11.7639 15.1867 11.7442C15.139 11.7245 15.0879 11.7143 15.0363 11.7144ZM14.6434 13.643H13.5006V12.5001H14.6434V13.643Z" fill="#FD3995"/>
<path d="M18.8938 11.7144H16.9652C16.9136 11.7143 16.8625 11.7245 16.8149 11.7442C16.7672 11.7639 16.7239 11.7929 16.6874 11.8294C16.6509 11.8658 16.622 11.9092 16.6022 11.9568C16.5825 12.0045 16.5724 12.0556 16.5724 12.1072V14.0358C16.5724 14.0874 16.5825 14.1385 16.6022 14.1862C16.622 14.2339 16.6509 14.2772 16.6874 14.3137C16.7239 14.3502 16.7672 14.3791 16.8149 14.3988C16.8625 14.4186 16.9136 14.4287 16.9652 14.4287H18.8938C18.9454 14.4287 18.9965 14.4186 19.0442 14.3988C19.0919 14.3791 19.1352 14.3502 19.1717 14.3137C19.2082 14.2772 19.2371 14.2339 19.2569 14.1862C19.2766 14.1385 19.2867 14.0874 19.2867 14.0358V12.1072C19.2867 12.0556 19.2766 12.0045 19.2569 11.9568C19.2371 11.9092 19.2082 11.8658 19.1717 11.8294C19.1352 11.7929 19.0919 11.7639 19.0442 11.7442C18.9965 11.7245 18.9454 11.7143 18.8938 11.7144ZM18.501 13.643H17.3581V12.5001H18.501V13.643Z" fill="#FD3995"/>
<path d="M18.8938 15.5712H16.9652C16.9136 15.5711 16.8625 15.5813 16.8149 15.601C16.7672 15.6207 16.7239 15.6497 16.6874 15.6862C16.6509 15.7227 16.622 15.766 16.6022 15.8136C16.5825 15.8613 16.5724 15.9124 16.5724 15.964V17.8926C16.5724 17.9442 16.5825 17.9953 16.6022 18.043C16.622 18.0907 16.6509 18.134 16.6874 18.1705C16.7239 18.207 16.7672 18.2359 16.8149 18.2556C16.8625 18.2754 16.9136 18.2855 16.9652 18.2855H18.8938C18.9454 18.2855 18.9965 18.2754 19.0442 18.2556C19.0919 18.2359 19.1352 18.207 19.1717 18.1705C19.2082 18.134 19.2371 18.0907 19.2569 18.043C19.2766 17.9953 19.2867 17.9442 19.2867 17.8926V15.964C19.2867 15.9124 19.2766 15.8613 19.2569 15.8136C19.2371 15.766 19.2082 15.7227 19.1717 15.6862C19.1352 15.6497 19.0919 15.6207 19.0442 15.601C18.9965 15.5813 18.9454 15.5711 18.8938 15.5712ZM18.501 17.4998H17.3581V16.3569H18.501V17.4998Z" fill="#FD3995"/>
<path d="M15.0363 15.5713H13.1077C13.0561 15.5713 13.005 15.5814 12.9573 15.6011C12.9096 15.6209 12.8663 15.6498 12.8298 15.6863C12.7934 15.7228 12.7644 15.7661 12.7447 15.8138C12.725 15.8614 12.7148 15.9125 12.7148 15.9641V17.8927C12.7148 17.9443 12.725 17.9954 12.7447 18.0431C12.7644 18.0908 12.7934 18.1341 12.8298 18.1706C12.8663 18.2071 12.9096 18.236 12.9573 18.2558C13.005 18.2755 13.0561 18.2856 13.1077 18.2856H15.0363C15.0879 18.2856 15.139 18.2755 15.1867 18.2558C15.2344 18.236 15.2777 18.2071 15.3142 18.1706C15.3506 18.1341 15.3796 18.0908 15.3993 18.0431C15.419 17.9954 15.4292 17.9443 15.4292 17.8927V15.9641C15.4292 15.9125 15.419 15.8614 15.3993 15.8138C15.3796 15.7661 15.3506 15.7228 15.3142 15.6863C15.2777 15.6498 15.2344 15.6209 15.1867 15.6011C15.139 15.5814 15.0879 15.5713 15.0363 15.5713ZM14.6434 17.4999H13.5006V16.357H14.6434V17.4999Z" fill="#FD3995"/>
<path d="M11.1789 15.5713H9.25028C9.19868 15.5713 9.14758 15.5814 9.0999 15.6011C9.05223 15.6209 9.00891 15.6498 8.97242 15.6863C8.93593 15.7228 8.907 15.7661 8.88726 15.8138C8.86753 15.8614 8.85739 15.9125 8.85742 15.9641V17.8927C8.85739 17.9443 8.86753 17.9954 8.88727 18.0431C8.907 18.0908 8.93593 18.1341 8.97242 18.1706C9.00891 18.2071 9.05223 18.236 9.0999 18.2558C9.14758 18.2755 9.19868 18.2856 9.25028 18.2856H11.1789C11.2305 18.2856 11.2816 18.2755 11.3293 18.2558C11.3769 18.236 11.4203 18.2071 11.4567 18.1706C11.4932 18.1341 11.5222 18.0908 11.5419 18.0431C11.5616 17.9954 11.5718 17.9443 11.5717 17.8927V15.9641C11.5718 15.9125 11.5616 15.8614 11.5419 15.8138C11.5222 15.7661 11.4932 15.7228 11.4567 15.6863C11.4203 15.6498 11.3769 15.6209 11.3293 15.6011C11.2816 15.5814 11.2305 15.5713 11.1789 15.5713ZM10.786 17.4999H9.64314V16.357H10.786V17.4999Z" fill="#FD3995"/>
<path d="M15.0363 7.85718H13.1077C13.0561 7.85715 13.005 7.86729 12.9573 7.88702C12.9096 7.90675 12.8663 7.93569 12.8298 7.97218C12.7934 8.00866 12.7644 8.05198 12.7447 8.09966C12.725 8.14734 12.7148 8.19844 12.7148 8.25003V10.1786C12.7148 10.2302 12.725 10.2813 12.7447 10.329C12.7644 10.3767 12.7934 10.42 12.8298 10.4565C12.8663 10.493 12.9096 10.5219 12.9573 10.5417C13.005 10.5614 13.0561 10.5715 13.1077 10.5715H15.0363C15.0879 10.5715 15.139 10.5614 15.1867 10.5417C15.2344 10.5219 15.2777 10.493 15.3142 10.4565C15.3506 10.42 15.3796 10.3767 15.3993 10.329C15.419 10.2813 15.4292 10.2302 15.4292 10.1786V8.25003C15.4292 8.19844 15.419 8.14734 15.3993 8.09966C15.3796 8.05198 15.3506 8.00866 15.3142 7.97218C15.2777 7.93569 15.2344 7.90675 15.1867 7.88702C15.139 7.86729 15.0879 7.85715 15.0363 7.85718ZM14.6434 9.78578H13.5006V8.64289H14.6434V9.78578Z" fill="#FD3995"/>
<path d="M18.8938 7.85718H16.9652C16.9136 7.85715 16.8625 7.86729 16.8149 7.88702C16.7672 7.90675 16.7239 7.93569 16.6874 7.97218C16.6509 8.00866 16.622 8.05198 16.6022 8.09966C16.5825 8.14734 16.5724 8.19844 16.5724 8.25003V10.1786C16.5724 10.2302 16.5825 10.2813 16.6022 10.329C16.622 10.3767 16.6509 10.42 16.6874 10.4565C16.7239 10.493 16.7672 10.5219 16.8149 10.5417C16.8625 10.5614 16.9136 10.5715 16.9652 10.5715H18.8938C18.9454 10.5715 18.9965 10.5614 19.0442 10.5417C19.0919 10.5219 19.1352 10.493 19.1717 10.4565C19.2082 10.42 19.2371 10.3767 19.2569 10.329C19.2766 10.2813 19.2867 10.2302 19.2867 10.1786V8.25003C19.2867 8.19844 19.2766 8.14734 19.2569 8.09966C19.2371 8.05198 19.2082 8.00866 19.1717 7.97218C19.1352 7.93569 19.0919 7.90675 19.0442 7.88702C18.9965 7.86729 18.9454 7.85715 18.8938 7.85718ZM18.501 9.78578H17.3581V8.64289H18.501V9.78578Z" fill="#FD3995"/>
<path d="M24.6789 7.85681H22.7503C22.6987 7.85678 22.6476 7.86692 22.5999 7.88665C22.5522 7.90639 22.5089 7.93532 22.4724 7.97181C22.4359 8.0083 22.407 8.05161 22.3873 8.09929C22.3675 8.14697 22.3574 8.19807 22.3574 8.24967V9.7858H21.2145V6.7143H22.7503C22.8019 6.71433 22.853 6.70419 22.9007 6.68446C22.9483 6.66473 22.9917 6.63579 23.0282 6.5993C23.0646 6.56282 23.0936 6.5195 23.1133 6.47182C23.133 6.42414 23.1432 6.37304 23.1431 6.32144V4.39286C23.1432 4.34126 23.133 4.29016 23.1133 4.24248C23.0936 4.19481 23.0646 4.15149 23.0281 4.115C22.9917 4.07851 22.9483 4.04958 22.9007 4.02984C22.853 4.01011 22.8019 3.99997 22.7503 4H5.39286C5.34126 3.99997 5.29016 4.01011 5.24248 4.02984C5.19481 4.04958 5.15149 4.07851 5.115 4.115C5.07851 4.15149 5.04958 4.19481 5.02984 4.24248C5.01011 4.29016 4.99997 4.34126 5 4.39286V6.32144C4.99997 6.37304 5.01011 6.42414 5.02984 6.47182C5.04958 6.5195 5.07851 6.56282 5.115 6.5993C5.15148 6.63579 5.1948 6.66473 5.24248 6.68446C5.29016 6.70419 5.34126 6.71433 5.39286 6.7143H6.9286V25.6071C6.92857 25.6587 6.93871 25.7098 6.95845 25.7575C6.97818 25.8052 7.00712 25.8485 7.0436 25.885C7.08009 25.9215 7.12341 25.9504 7.17109 25.9701C7.21876 25.9899 7.26986 26 7.32146 26H11.1787C13.0561 26.0001 18.8554 25.9999 20.8217 26C20.8733 26 20.9244 25.9899 20.9721 25.9701C21.0197 25.9504 21.0631 25.9215 21.0995 25.885C21.136 25.8485 21.165 25.8052 21.1847 25.7575C21.2044 25.7098 21.2146 25.6587 21.2145 25.6071V12.5001H22.3574V14.0359C22.3574 14.0875 22.3675 14.1386 22.3873 14.1862C22.407 14.2339 22.4359 14.2772 22.4724 14.3137C22.5089 14.3502 22.5522 14.3791 22.5999 14.3989C22.6476 14.4186 22.6987 14.4287 22.7503 14.4287H24.6789C24.7305 14.4287 24.7816 14.4186 24.8293 14.3989C24.8769 14.3791 24.9203 14.3502 24.9568 14.3137C24.9932 14.2772 25.0222 14.2339 25.0419 14.1862C25.0616 14.1386 25.0718 14.0875 25.0718 14.0359V8.24967C25.0718 8.19807 25.0616 8.14697 25.0419 8.09929C25.0222 8.05161 24.9932 8.0083 24.9568 7.97181C24.9203 7.93532 24.8769 7.90639 24.8293 7.88665C24.7816 7.86692 24.7305 7.85678 24.6789 7.85681ZM5.78571 4.78571H22.3574V5.92859H20.8217C19.9625 5.9288 6.21911 5.92843 5.78571 5.92859L5.78571 4.78571ZM16.5716 22.1427V25.2143H14.4646V22.1427H16.5716ZM13.6789 25.2143H11.5715V22.1427H13.6789V25.2143ZM20.4288 25.2143H17.3573V21.7499C17.3574 21.6983 17.3472 21.6472 17.3275 21.5995C17.3078 21.5518 17.2788 21.5085 17.2423 21.472C17.2059 21.4355 17.1625 21.4066 17.1149 21.3869C17.0672 21.3671 17.0161 21.357 16.9645 21.357H11.1787C11.1271 21.357 11.076 21.3671 11.0283 21.3869C10.9806 21.4066 10.9373 21.4355 10.9008 21.472C10.8643 21.5085 10.8354 21.5518 10.8157 21.5995C10.7959 21.6472 10.7858 21.6983 10.7858 21.7499V25.2143H7.71432V6.7143H20.4288V25.2143ZM21.2145 11.7144V10.5715H22.3574V11.7144L21.2145 11.7144ZM24.286 13.643H23.1431V8.64252H24.286V13.643Z" fill="#FD3995"/>
</svg>
