<svg width="29" height="30" viewBox="0 0 29 30" fill="none" xmlns="http://www.w3.org/2000/svg">
<circle cx="14.5" cy="15" r="14.5" fill="#029D4A"/>
<path d="M10.5289 12.6959C10.5289 12.8491 10.4109 12.9738 10.2645 12.9738C10.1187 12.9738 10 12.8498 10 12.6959V12.6208C10 12.4676 10.1181 12.3428 10.2645 12.3428C10.4103 12.3428 10.5289 12.4669 10.5289 12.6208V12.6959ZM16.752 8.93402C16.6062 8.93402 16.4876 8.80993 16.4876 8.65606C16.4876 8.5028 16.6056 8.37809 16.752 8.37809H17.6222C17.768 8.37809 17.8866 8.50218 17.8866 8.65606C17.8866 8.80931 17.7686 8.93402 17.6222 8.93402H16.752ZM14.5 20.1872C14.6836 20.1872 14.8507 20.266 14.9729 20.3938L14.9741 20.3951C15.0951 20.5229 15.1706 20.6985 15.1706 20.8908C15.1706 21.0838 15.0957 21.2593 14.9741 21.3878L14.9729 21.389C14.8513 21.5162 14.6842 21.595 14.5012 21.595C14.317 21.595 14.1506 21.5162 14.0284 21.3884L14.0272 21.3872C13.9062 21.2593 13.8312 21.0838 13.8312 20.8914C13.8312 20.6985 13.9062 20.5229 14.0278 20.3944L14.029 20.3932C14.1506 20.266 14.3176 20.1866 14.5012 20.1866L14.5 20.1872ZM14.6004 20.7859C14.575 20.7593 14.5402 20.7431 14.5 20.7431C14.4605 20.7431 14.4251 20.7593 14.4003 20.7853C14.3743 20.8126 14.359 20.8498 14.359 20.8908C14.359 20.9324 14.3743 20.9696 14.3991 20.9956C14.4251 21.0229 14.4605 21.0391 14.4995 21.0391C14.539 21.0391 14.5744 21.0229 14.5992 20.9969C14.6252 20.9696 14.6405 20.9324 14.6405 20.8914C14.6405 20.8498 14.6252 20.8126 14.5998 20.7859L14.6004 20.7859ZM10.5295 19.295H15.938C16.0838 19.295 16.2024 19.4191 16.2024 19.573C16.2024 19.7262 16.0844 19.8509 15.938 19.8509H10.5295V21.3226C10.5295 21.4939 10.5962 21.649 10.7031 21.7613C10.8093 21.8742 10.9575 21.9437 11.1204 21.9437H17.879C18.0366 21.9437 18.1806 21.8785 18.2863 21.7724L18.2969 21.7613C18.4037 21.649 18.4704 21.4932 18.4704 21.3226V19.8509H17.729C17.5832 19.8509 17.4646 19.7268 17.4646 19.573C17.4646 19.4197 17.5826 19.295 17.729 19.295H18.4704V9.86778H10.5296V11.7179C10.5296 11.8711 10.4115 11.9959 10.2651 11.9959C10.1193 11.9959 10.0006 11.8718 10.0006 11.7179V8.67762C10.0006 8.35436 10.127 8.06028 10.33 7.84683C10.5331 7.63215 10.8135 7.5 11.1216 7.5H17.8802C18.1877 7.5 18.4675 7.63278 18.6706 7.84621C18.8743 8.05902 19 8.35312 19 8.677V21.3224C19 21.6463 18.8737 21.941 18.6706 22.1544L18.6553 22.1693C18.4534 22.3741 18.1795 22.5 17.8796 22.5H11.1211C10.8135 22.5 10.5337 22.3672 10.3306 22.1538C10.127 21.941 10.0012 21.6463 10.0012 21.323V13.5996C10.0012 13.4464 10.1193 13.3217 10.2657 13.3217C10.4115 13.3217 10.5301 13.4457 10.5301 13.5996V19.2947L10.5295 19.295ZM16.7975 19.8509C16.6517 19.8509 16.5331 19.7268 16.5331 19.573C16.5331 19.4197 16.6511 19.295 16.7975 19.295H16.869C17.0148 19.295 17.1334 19.4191 17.1334 19.573C17.1334 19.7262 17.0154 19.8509 16.869 19.8509H16.7975ZM10.5295 9.31138H18.4704V8.6779C18.4704 8.50727 18.4037 8.35154 18.2969 8.23924C18.1906 8.12632 18.0425 8.05683 17.8795 8.05683H11.121C10.9581 8.05683 10.8105 8.12694 10.7037 8.23924C10.5968 8.35092 10.5301 8.50727 10.5301 8.6779V9.31138H10.5295Z" fill="white" stroke="white" stroke-width="0.2"/>
</svg>
