<svg width="13" height="13" viewBox="0 0 13 13" fill="none" xmlns="http://www.w3.org/2000/svg">
<mask id="path-1-outside-1_1_1318" maskUnits="userSpaceOnUse" x="-0.5" y="-0.5" width="14" height="14" fill="black">
<rect fill="white" x="-0.5" y="-0.5" width="14" height="14"/>
<path d="M6.21927 5.3862C6.23641 4.72925 6.20365 4.07691 5.99649 3.43587C5.7848 3.83456 5.81051 4.36442 5.76918 4.80558C5.76162 4.99723 5.75809 5.18735 5.75859 5.37798C5.47079 5.47227 5.26061 5.74387 5.26061 6.06721C5.26061 6.22606 5.31252 6.37211 5.39771 6.49152C5.35587 6.53559 5.31303 6.57863 5.2717 6.62373C4.99801 6.93836 4.69358 7.19817 4.58522 7.63375C4.78884 7.63119 4.9955 7.46054 5.14518 7.35036C5.36041 7.16025 5.57059 6.96398 5.77421 6.76105C5.83873 6.78052 5.90525 6.79385 5.97582 6.79385C6.36997 6.79385 6.69104 6.46793 6.69104 6.06669C6.69104 5.75308 6.49347 5.48762 6.21928 5.38565L6.21927 5.3862ZM5.97583 6.40084C5.79489 6.40084 5.64771 6.25121 5.64771 6.06724C5.64771 5.88328 5.79488 5.73363 5.97583 5.73363C6.15679 5.73363 6.30396 5.88327 6.30396 6.06724C6.30396 6.2512 6.15679 6.40084 5.97583 6.40084ZM11.3171 7.29044C11.4053 6.89073 11.4516 6.48026 11.4516 6.06724C11.4516 2.99777 8.99503 0.5 5.97583 0.5C4.78481 0.5 3.65224 0.882287 2.70064 1.60483C2.61496 1.66991 2.59732 1.79341 2.66133 1.88053C2.72534 1.96764 2.84681 1.98558 2.932 1.9205C3.81606 1.2492 4.86849 0.893567 5.97532 0.893567C8.78122 0.893567 11.064 3.21489 11.064 6.06725C11.064 6.40546 11.0303 6.74213 10.9668 7.07112C10.7727 6.96914 10.5661 6.89023 10.3493 6.83539C10.3922 6.58224 10.4194 6.325 10.4194 6.06673C10.4194 3.57526 8.42598 1.54897 5.97582 1.54897C3.52565 1.54897 1.53225 3.57565 1.53225 6.06673C1.53225 8.5582 3.52565 10.5845 5.97582 10.5845C6.3105 10.5845 6.64265 10.544 6.96673 10.4687C7.03175 10.6839 7.12348 10.8868 7.23387 11.0774C6.82459 11.1835 6.40323 11.2399 5.97582 11.2399C3.16991 11.2399 0.887096 8.91857 0.887096 6.06621C0.887096 4.91014 1.25352 3.81757 1.94656 2.90544C2.01208 2.81935 1.99645 2.69584 1.91178 2.62923C1.8271 2.56261 1.70563 2.57901 1.64061 2.66458C0.894654 3.64592 0.5 4.82192 0.5 6.06622C0.5 9.13569 2.95662 11.6335 5.97581 11.6335C6.48286 11.6335 6.98336 11.5607 7.46625 11.4218C7.98539 12.0783 8.77978 12.5 9.67087 12.5C11.2309 12.5 12.5 11.2097 12.5 9.62363C12.5 8.66229 12.0323 7.8117 11.3175 7.28945L11.3171 7.29044ZM6.16938 10.1852V9.90589C6.16938 9.79725 6.08269 9.70911 5.97583 9.70911C5.86898 9.70911 5.78229 9.79725 5.78229 9.90589V10.1816C4.8085 10.1344 3.92489 9.73833 3.24851 9.11162L3.43803 8.91893C3.51363 8.84206 3.51363 8.71754 3.43803 8.64067C3.36242 8.56381 3.23994 8.56381 3.16434 8.64067L2.97482 8.83283C2.36041 8.14462 1.97282 7.2468 1.92795 6.25727H2.19307C2.29993 6.25727 2.38662 6.16913 2.38662 6.0605C2.38662 5.95186 2.29993 5.86372 2.19307 5.86372H1.92846C1.97634 4.87625 2.36545 3.98055 2.98036 3.29432L3.16382 3.48086C3.20163 3.51929 3.25102 3.53825 3.30092 3.53825C3.35031 3.53825 3.39971 3.51878 3.43801 3.48086C3.51362 3.40399 3.51362 3.27946 3.43801 3.2026L3.25505 3.01658C3.93045 2.39345 4.81142 1.99989 5.78225 1.95275V2.21563C5.78225 2.32426 5.86894 2.41241 5.97579 2.41241C6.08265 2.41241 6.16934 2.32426 6.16934 2.21563V1.95275C7.14009 1.99989 8.02068 2.39345 8.69654 3.01658L8.51357 3.2026C8.43797 3.27947 8.43797 3.404 8.51357 3.48086C8.55138 3.51929 8.60077 3.53825 8.65067 3.53825C8.70006 3.53825 8.74946 3.51878 8.78776 3.48086L8.97123 3.29432C9.58665 3.98049 9.97576 4.87629 10.0231 5.86372H9.75852C9.65166 5.86372 9.56497 5.95186 9.56497 6.0605C9.56497 6.16913 9.65166 6.25727 9.75852 6.25727H10.0236C10.0161 6.42792 9.99843 6.59702 9.97021 6.76459C9.87192 6.75383 9.77264 6.7482 9.67132 6.7482C8.11134 6.7482 6.84219 8.03852 6.84219 9.62456C6.84219 9.78188 6.85781 9.93511 6.88201 10.0858C6.64864 10.1401 6.41075 10.1734 6.16982 10.1852L6.16938 10.1852ZM9.67037 12.1073C8.32355 12.1073 7.22833 10.9932 7.22833 9.62448C7.22833 8.25572 8.32359 7.14167 9.67037 7.14167C11.0167 7.14167 12.1124 8.25572 12.1124 9.62448C12.1124 10.9932 11.0167 12.1073 9.67037 12.1073ZM10.7601 8.90297H10.38V8.51659C10.38 8.11894 10.0615 7.79507 9.67037 7.79507C9.27925 7.79507 8.9607 8.11894 8.9607 8.51659V8.90297H8.58067C8.18955 8.90297 7.871 9.22684 7.871 9.62448C7.871 10.0221 8.18955 10.346 8.58067 10.346H8.9607V10.7324C8.9607 11.13 9.27925 11.4539 9.67037 11.4539C10.0615 11.4539 10.38 11.13 10.38 10.7324V10.346H10.7601C11.1512 10.346 11.4697 10.0221 11.4697 9.62448C11.4697 9.22684 11.1512 8.90297 10.7601 8.90297ZM10.7601 9.95245H10.1865C10.0796 9.95245 9.99295 10.0406 9.99295 10.1492V10.7324C9.99295 10.9133 9.84829 11.0603 9.67037 11.0603C9.49245 11.0603 9.3478 10.9133 9.3478 10.7324V10.1492C9.3478 10.0406 9.2611 9.95245 9.15425 9.95245H8.58067C8.40275 9.95245 8.25809 9.80538 8.25809 9.62448C8.25809 9.44359 8.40275 9.29652 8.58067 9.29652H9.15425C9.2611 9.29652 9.3478 9.20838 9.3478 9.09974V8.51659C9.3478 8.33569 9.49245 8.18862 9.67037 8.18862C9.84829 8.18862 9.99295 8.33569 9.99295 8.51659V9.09974C9.99295 9.20838 10.0796 9.29652 10.1865 9.29652H10.7601C10.938 9.29652 11.0827 9.44359 11.0827 9.62448C11.0827 9.80538 10.938 9.95245 10.7601 9.95245ZM2.06159 2.23403C2.06159 2.12642 2.14929 2.03725 2.25514 2.03725C2.3635 2.03725 2.44868 2.12642 2.44868 2.23403C2.44868 2.34421 2.3635 2.43081 2.25514 2.43081C2.14929 2.43081 2.06159 2.34421 2.06159 2.23403Z"/>
</mask>
<path d="M6.21927 5.3862C6.23641 4.72925 6.20365 4.07691 5.99649 3.43587C5.7848 3.83456 5.81051 4.36442 5.76918 4.80558C5.76162 4.99723 5.75809 5.18735 5.75859 5.37798C5.47079 5.47227 5.26061 5.74387 5.26061 6.06721C5.26061 6.22606 5.31252 6.37211 5.39771 6.49152C5.35587 6.53559 5.31303 6.57863 5.2717 6.62373C4.99801 6.93836 4.69358 7.19817 4.58522 7.63375C4.78884 7.63119 4.9955 7.46054 5.14518 7.35036C5.36041 7.16025 5.57059 6.96398 5.77421 6.76105C5.83873 6.78052 5.90525 6.79385 5.97582 6.79385C6.36997 6.79385 6.69104 6.46793 6.69104 6.06669C6.69104 5.75308 6.49347 5.48762 6.21928 5.38565L6.21927 5.3862ZM5.97583 6.40084C5.79489 6.40084 5.64771 6.25121 5.64771 6.06724C5.64771 5.88328 5.79488 5.73363 5.97583 5.73363C6.15679 5.73363 6.30396 5.88327 6.30396 6.06724C6.30396 6.2512 6.15679 6.40084 5.97583 6.40084ZM11.3171 7.29044C11.4053 6.89073 11.4516 6.48026 11.4516 6.06724C11.4516 2.99777 8.99503 0.5 5.97583 0.5C4.78481 0.5 3.65224 0.882287 2.70064 1.60483C2.61496 1.66991 2.59732 1.79341 2.66133 1.88053C2.72534 1.96764 2.84681 1.98558 2.932 1.9205C3.81606 1.2492 4.86849 0.893567 5.97532 0.893567C8.78122 0.893567 11.064 3.21489 11.064 6.06725C11.064 6.40546 11.0303 6.74213 10.9668 7.07112C10.7727 6.96914 10.5661 6.89023 10.3493 6.83539C10.3922 6.58224 10.4194 6.325 10.4194 6.06673C10.4194 3.57526 8.42598 1.54897 5.97582 1.54897C3.52565 1.54897 1.53225 3.57565 1.53225 6.06673C1.53225 8.5582 3.52565 10.5845 5.97582 10.5845C6.3105 10.5845 6.64265 10.544 6.96673 10.4687C7.03175 10.6839 7.12348 10.8868 7.23387 11.0774C6.82459 11.1835 6.40323 11.2399 5.97582 11.2399C3.16991 11.2399 0.887096 8.91857 0.887096 6.06621C0.887096 4.91014 1.25352 3.81757 1.94656 2.90544C2.01208 2.81935 1.99645 2.69584 1.91178 2.62923C1.8271 2.56261 1.70563 2.57901 1.64061 2.66458C0.894654 3.64592 0.5 4.82192 0.5 6.06622C0.5 9.13569 2.95662 11.6335 5.97581 11.6335C6.48286 11.6335 6.98336 11.5607 7.46625 11.4218C7.98539 12.0783 8.77978 12.5 9.67087 12.5C11.2309 12.5 12.5 11.2097 12.5 9.62363C12.5 8.66229 12.0323 7.8117 11.3175 7.28945L11.3171 7.29044ZM6.16938 10.1852V9.90589C6.16938 9.79725 6.08269 9.70911 5.97583 9.70911C5.86898 9.70911 5.78229 9.79725 5.78229 9.90589V10.1816C4.8085 10.1344 3.92489 9.73833 3.24851 9.11162L3.43803 8.91893C3.51363 8.84206 3.51363 8.71754 3.43803 8.64067C3.36242 8.56381 3.23994 8.56381 3.16434 8.64067L2.97482 8.83283C2.36041 8.14462 1.97282 7.2468 1.92795 6.25727H2.19307C2.29993 6.25727 2.38662 6.16913 2.38662 6.0605C2.38662 5.95186 2.29993 5.86372 2.19307 5.86372H1.92846C1.97634 4.87625 2.36545 3.98055 2.98036 3.29432L3.16382 3.48086C3.20163 3.51929 3.25102 3.53825 3.30092 3.53825C3.35031 3.53825 3.39971 3.51878 3.43801 3.48086C3.51362 3.40399 3.51362 3.27946 3.43801 3.2026L3.25505 3.01658C3.93045 2.39345 4.81142 1.99989 5.78225 1.95275V2.21563C5.78225 2.32426 5.86894 2.41241 5.97579 2.41241C6.08265 2.41241 6.16934 2.32426 6.16934 2.21563V1.95275C7.14009 1.99989 8.02068 2.39345 8.69654 3.01658L8.51357 3.2026C8.43797 3.27947 8.43797 3.404 8.51357 3.48086C8.55138 3.51929 8.60077 3.53825 8.65067 3.53825C8.70006 3.53825 8.74946 3.51878 8.78776 3.48086L8.97123 3.29432C9.58665 3.98049 9.97576 4.87629 10.0231 5.86372H9.75852C9.65166 5.86372 9.56497 5.95186 9.56497 6.0605C9.56497 6.16913 9.65166 6.25727 9.75852 6.25727H10.0236C10.0161 6.42792 9.99843 6.59702 9.97021 6.76459C9.87192 6.75383 9.77264 6.7482 9.67132 6.7482C8.11134 6.7482 6.84219 8.03852 6.84219 9.62456C6.84219 9.78188 6.85781 9.93511 6.88201 10.0858C6.64864 10.1401 6.41075 10.1734 6.16982 10.1852L6.16938 10.1852ZM9.67037 12.1073C8.32355 12.1073 7.22833 10.9932 7.22833 9.62448C7.22833 8.25572 8.32359 7.14167 9.67037 7.14167C11.0167 7.14167 12.1124 8.25572 12.1124 9.62448C12.1124 10.9932 11.0167 12.1073 9.67037 12.1073ZM10.7601 8.90297H10.38V8.51659C10.38 8.11894 10.0615 7.79507 9.67037 7.79507C9.27925 7.79507 8.9607 8.11894 8.9607 8.51659V8.90297H8.58067C8.18955 8.90297 7.871 9.22684 7.871 9.62448C7.871 10.0221 8.18955 10.346 8.58067 10.346H8.9607V10.7324C8.9607 11.13 9.27925 11.4539 9.67037 11.4539C10.0615 11.4539 10.38 11.13 10.38 10.7324V10.346H10.7601C11.1512 10.346 11.4697 10.0221 11.4697 9.62448C11.4697 9.22684 11.1512 8.90297 10.7601 8.90297ZM10.7601 9.95245H10.1865C10.0796 9.95245 9.99295 10.0406 9.99295 10.1492V10.7324C9.99295 10.9133 9.84829 11.0603 9.67037 11.0603C9.49245 11.0603 9.3478 10.9133 9.3478 10.7324V10.1492C9.3478 10.0406 9.2611 9.95245 9.15425 9.95245H8.58067C8.40275 9.95245 8.25809 9.80538 8.25809 9.62448C8.25809 9.44359 8.40275 9.29652 8.58067 9.29652H9.15425C9.2611 9.29652 9.3478 9.20838 9.3478 9.09974V8.51659C9.3478 8.33569 9.49245 8.18862 9.67037 8.18862C9.84829 8.18862 9.99295 8.33569 9.99295 8.51659V9.09974C9.99295 9.20838 10.0796 9.29652 10.1865 9.29652H10.7601C10.938 9.29652 11.0827 9.44359 11.0827 9.62448C11.0827 9.80538 10.938 9.95245 10.7601 9.95245ZM2.06159 2.23403C2.06159 2.12642 2.14929 2.03725 2.25514 2.03725C2.3635 2.03725 2.44868 2.12642 2.44868 2.23403C2.44868 2.34421 2.3635 2.43081 2.25514 2.43081C2.14929 2.43081 2.06159 2.34421 2.06159 2.23403Z" fill="white"/>
<path d="M6.21927 5.3862C6.23641 4.72925 6.20365 4.07691 5.99649 3.43587C5.7848 3.83456 5.81051 4.36442 5.76918 4.80558C5.76162 4.99723 5.75809 5.18735 5.75859 5.37798C5.47079 5.47227 5.26061 5.74387 5.26061 6.06721C5.26061 6.22606 5.31252 6.37211 5.39771 6.49152C5.35587 6.53559 5.31303 6.57863 5.2717 6.62373C4.99801 6.93836 4.69358 7.19817 4.58522 7.63375C4.78884 7.63119 4.9955 7.46054 5.14518 7.35036C5.36041 7.16025 5.57059 6.96398 5.77421 6.76105C5.83873 6.78052 5.90525 6.79385 5.97582 6.79385C6.36997 6.79385 6.69104 6.46793 6.69104 6.06669C6.69104 5.75308 6.49347 5.48762 6.21928 5.38565L6.21927 5.3862ZM5.97583 6.40084C5.79489 6.40084 5.64771 6.25121 5.64771 6.06724C5.64771 5.88328 5.79488 5.73363 5.97583 5.73363C6.15679 5.73363 6.30396 5.88327 6.30396 6.06724C6.30396 6.2512 6.15679 6.40084 5.97583 6.40084ZM11.3171 7.29044C11.4053 6.89073 11.4516 6.48026 11.4516 6.06724C11.4516 2.99777 8.99503 0.5 5.97583 0.5C4.78481 0.5 3.65224 0.882287 2.70064 1.60483C2.61496 1.66991 2.59732 1.79341 2.66133 1.88053C2.72534 1.96764 2.84681 1.98558 2.932 1.9205C3.81606 1.2492 4.86849 0.893567 5.97532 0.893567C8.78122 0.893567 11.064 3.21489 11.064 6.06725C11.064 6.40546 11.0303 6.74213 10.9668 7.07112C10.7727 6.96914 10.5661 6.89023 10.3493 6.83539C10.3922 6.58224 10.4194 6.325 10.4194 6.06673C10.4194 3.57526 8.42598 1.54897 5.97582 1.54897C3.52565 1.54897 1.53225 3.57565 1.53225 6.06673C1.53225 8.5582 3.52565 10.5845 5.97582 10.5845C6.3105 10.5845 6.64265 10.544 6.96673 10.4687C7.03175 10.6839 7.12348 10.8868 7.23387 11.0774C6.82459 11.1835 6.40323 11.2399 5.97582 11.2399C3.16991 11.2399 0.887096 8.91857 0.887096 6.06621C0.887096 4.91014 1.25352 3.81757 1.94656 2.90544C2.01208 2.81935 1.99645 2.69584 1.91178 2.62923C1.8271 2.56261 1.70563 2.57901 1.64061 2.66458C0.894654 3.64592 0.5 4.82192 0.5 6.06622C0.5 9.13569 2.95662 11.6335 5.97581 11.6335C6.48286 11.6335 6.98336 11.5607 7.46625 11.4218C7.98539 12.0783 8.77978 12.5 9.67087 12.5C11.2309 12.5 12.5 11.2097 12.5 9.62363C12.5 8.66229 12.0323 7.8117 11.3175 7.28945L11.3171 7.29044ZM6.16938 10.1852V9.90589C6.16938 9.79725 6.08269 9.70911 5.97583 9.70911C5.86898 9.70911 5.78229 9.79725 5.78229 9.90589V10.1816C4.8085 10.1344 3.92489 9.73833 3.24851 9.11162L3.43803 8.91893C3.51363 8.84206 3.51363 8.71754 3.43803 8.64067C3.36242 8.56381 3.23994 8.56381 3.16434 8.64067L2.97482 8.83283C2.36041 8.14462 1.97282 7.2468 1.92795 6.25727H2.19307C2.29993 6.25727 2.38662 6.16913 2.38662 6.0605C2.38662 5.95186 2.29993 5.86372 2.19307 5.86372H1.92846C1.97634 4.87625 2.36545 3.98055 2.98036 3.29432L3.16382 3.48086C3.20163 3.51929 3.25102 3.53825 3.30092 3.53825C3.35031 3.53825 3.39971 3.51878 3.43801 3.48086C3.51362 3.40399 3.51362 3.27946 3.43801 3.2026L3.25505 3.01658C3.93045 2.39345 4.81142 1.99989 5.78225 1.95275V2.21563C5.78225 2.32426 5.86894 2.41241 5.97579 2.41241C6.08265 2.41241 6.16934 2.32426 6.16934 2.21563V1.95275C7.14009 1.99989 8.02068 2.39345 8.69654 3.01658L8.51357 3.2026C8.43797 3.27947 8.43797 3.404 8.51357 3.48086C8.55138 3.51929 8.60077 3.53825 8.65067 3.53825C8.70006 3.53825 8.74946 3.51878 8.78776 3.48086L8.97123 3.29432C9.58665 3.98049 9.97576 4.87629 10.0231 5.86372H9.75852C9.65166 5.86372 9.56497 5.95186 9.56497 6.0605C9.56497 6.16913 9.65166 6.25727 9.75852 6.25727H10.0236C10.0161 6.42792 9.99843 6.59702 9.97021 6.76459C9.87192 6.75383 9.77264 6.7482 9.67132 6.7482C8.11134 6.7482 6.84219 8.03852 6.84219 9.62456C6.84219 9.78188 6.85781 9.93511 6.88201 10.0858C6.64864 10.1401 6.41075 10.1734 6.16982 10.1852L6.16938 10.1852ZM9.67037 12.1073C8.32355 12.1073 7.22833 10.9932 7.22833 9.62448C7.22833 8.25572 8.32359 7.14167 9.67037 7.14167C11.0167 7.14167 12.1124 8.25572 12.1124 9.62448C12.1124 10.9932 11.0167 12.1073 9.67037 12.1073ZM10.7601 8.90297H10.38V8.51659C10.38 8.11894 10.0615 7.79507 9.67037 7.79507C9.27925 7.79507 8.9607 8.11894 8.9607 8.51659V8.90297H8.58067C8.18955 8.90297 7.871 9.22684 7.871 9.62448C7.871 10.0221 8.18955 10.346 8.58067 10.346H8.9607V10.7324C8.9607 11.13 9.27925 11.4539 9.67037 11.4539C10.0615 11.4539 10.38 11.13 10.38 10.7324V10.346H10.7601C11.1512 10.346 11.4697 10.0221 11.4697 9.62448C11.4697 9.22684 11.1512 8.90297 10.7601 8.90297ZM10.7601 9.95245H10.1865C10.0796 9.95245 9.99295 10.0406 9.99295 10.1492V10.7324C9.99295 10.9133 9.84829 11.0603 9.67037 11.0603C9.49245 11.0603 9.3478 10.9133 9.3478 10.7324V10.1492C9.3478 10.0406 9.2611 9.95245 9.15425 9.95245H8.58067C8.40275 9.95245 8.25809 9.80538 8.25809 9.62448C8.25809 9.44359 8.40275 9.29652 8.58067 9.29652H9.15425C9.2611 9.29652 9.3478 9.20838 9.3478 9.09974V8.51659C9.3478 8.33569 9.49245 8.18862 9.67037 8.18862C9.84829 8.18862 9.99295 8.33569 9.99295 8.51659V9.09974C9.99295 9.20838 10.0796 9.29652 10.1865 9.29652H10.7601C10.938 9.29652 11.0827 9.44359 11.0827 9.62448C11.0827 9.80538 10.938 9.95245 10.7601 9.95245ZM2.06159 2.23403C2.06159 2.12642 2.14929 2.03725 2.25514 2.03725C2.3635 2.03725 2.44868 2.12642 2.44868 2.23403C2.44868 2.34421 2.3635 2.43081 2.25514 2.43081C2.14929 2.43081 2.06159 2.34421 2.06159 2.23403Z" stroke="white" stroke-width="0.4" mask="url(#path-1-outside-1_1_1318)"/>
</svg>
