<svg width="20" height="20" viewBox="0 0 20 20" fill="none" xmlns="http://www.w3.org/2000/svg">
<mask id="path-1-outside-1_1_908" maskUnits="userSpaceOnUse" x="0" y="0" width="20" height="20" fill="black">
<rect fill="white" width="20" height="20"/>
<path d="M9.57891 8.32931C9.60462 7.34388 9.55548 6.36536 9.24474 5.40381C8.9272 6.00184 8.96576 6.79662 8.90377 7.45837C8.89242 7.74584 8.88713 8.03103 8.88789 8.31697C8.45618 8.4584 8.14092 8.8658 8.14092 9.35082C8.14092 9.5891 8.21879 9.80817 8.34656 9.98728C8.28381 10.0534 8.21954 10.1179 8.15755 10.1856C7.74702 10.6575 7.29037 11.0473 7.12782 11.7006C7.43326 11.6968 7.74324 11.4408 7.96778 11.2755C8.29061 10.9904 8.60588 10.696 8.91131 10.3916C9.00809 10.4208 9.10788 10.4408 9.21373 10.4408C9.80496 10.4408 10.2866 9.9519 10.2866 9.35003C10.2866 8.87961 9.9902 8.48143 9.57891 8.32848L9.57891 8.32931ZM9.21375 9.85126C8.94234 9.85126 8.72156 9.62682 8.72156 9.35086C8.72156 9.07492 8.94232 8.85045 9.21375 8.85045C9.48518 8.85045 9.70594 9.0749 9.70594 9.35086C9.70594 9.6268 9.48518 9.85126 9.21375 9.85126ZM17.2256 11.1857C17.3579 10.5861 17.4275 9.97039 17.4275 9.35086C17.4275 4.74665 13.7425 1 9.21375 1C7.42722 1 5.72837 1.57343 4.30096 2.65724C4.17244 2.75486 4.14598 2.94011 4.24199 3.07079C4.33801 3.20146 4.52021 3.22837 4.64799 3.13075C5.9741 2.1238 7.55274 1.59035 9.21298 1.59035C13.4218 1.59035 16.8461 5.07233 16.8461 9.35088C16.8461 9.85819 16.7954 10.3632 16.7001 10.8567C16.4091 10.7037 16.0991 10.5853 15.774 10.5031C15.8382 10.1234 15.8791 9.7375 15.8791 9.35009C15.8791 5.61288 12.889 2.57345 9.21372 2.57345C5.53847 2.57345 2.54838 5.61347 2.54838 9.35009C2.54838 13.0873 5.53847 16.1267 9.21372 16.1267C9.71574 16.1267 10.214 16.066 10.7001 15.953C10.7976 16.2758 10.9352 16.5802 11.1008 16.8662C10.4869 17.0253 9.85485 17.1098 9.21372 17.1098C5.00487 17.1098 1.58064 13.6279 1.58064 9.34932C1.58064 7.61522 2.13028 5.97635 3.16983 4.60815C3.26812 4.47902 3.24468 4.29376 3.11767 4.19384C2.99065 4.09391 2.80844 4.11851 2.71091 4.24688C1.59198 5.71887 1 7.48289 1 9.34933C1 13.9535 4.68493 17.7002 9.21372 17.7002C9.9743 17.7002 10.725 17.591 11.4494 17.3827C12.2281 18.3674 13.4197 19 14.7563 19C17.0963 19 19 17.0645 19 14.6854C19 13.2434 18.2984 11.9676 17.2263 11.1842L17.2256 11.1857ZM9.50407 15.5278V15.1088C9.50407 14.9459 9.37403 14.8137 9.21375 14.8137C9.05347 14.8137 8.92343 14.9459 8.92343 15.1088V15.5224C7.46276 15.4517 6.13733 14.8575 5.12276 13.9174L5.40704 13.6284C5.52045 13.5131 5.52045 13.3263 5.40704 13.211C5.29364 13.0957 5.10991 13.0957 4.99651 13.211L4.71223 13.4993C3.79062 12.4669 3.20923 11.1202 3.14193 9.63591H3.53961C3.69989 9.63591 3.82993 9.5037 3.82993 9.34074C3.82993 9.17779 3.69989 9.04558 3.53961 9.04558H3.14269C3.21451 7.56437 3.79817 6.22083 4.72053 5.19149L4.99574 5.47128C5.05244 5.52893 5.12653 5.55737 5.20138 5.55737C5.27547 5.55737 5.34956 5.52817 5.40702 5.47128C5.52043 5.35598 5.52043 5.16919 5.40702 5.0539L5.13257 4.77487C6.14567 3.84017 7.46713 3.24984 8.92337 3.17912V3.57344C8.92337 3.7364 9.05341 3.86861 9.21369 3.86861C9.37397 3.86861 9.50401 3.7364 9.50401 3.57344V3.17912C10.9601 3.24983 12.281 3.84017 13.2948 4.77487L13.0204 5.0539C12.907 5.1692 12.907 5.35599 13.0204 5.47128C13.0771 5.52893 13.1512 5.55737 13.226 5.55737C13.3001 5.55737 13.3742 5.52817 13.4316 5.47128L13.7069 5.19149C14.63 6.22073 15.2136 7.56443 15.2847 9.04558H14.8878C14.7275 9.04558 14.5975 9.17779 14.5975 9.34074C14.5975 9.5037 14.7275 9.63591 14.8878 9.63591H15.2855C15.2741 9.89188 15.2477 10.1455 15.2053 10.3969C15.0579 10.3807 14.909 10.3723 14.757 10.3723C12.417 10.3723 10.5133 12.3078 10.5133 14.6868C10.5133 14.9228 10.5367 15.1527 10.573 15.3786C10.223 15.4601 9.86612 15.5101 9.50473 15.5278L9.50407 15.5278ZM14.7556 18.4109C12.7353 18.4109 11.0925 16.7399 11.0925 14.6867C11.0925 12.6336 12.7354 10.9625 14.7556 10.9625C16.775 10.9625 18.4186 12.6336 18.4186 14.6867C18.4186 16.7399 16.775 18.4109 14.7556 18.4109ZM16.3901 13.6044H15.8201V13.0249C15.8201 12.4284 15.3422 11.9426 14.7556 11.9426C14.1689 11.9426 13.6911 12.4284 13.6911 13.0249V13.6044H13.121C12.5343 13.6044 12.0565 14.0903 12.0565 14.6867C12.0565 15.2832 12.5343 15.769 13.121 15.769H13.6911V16.3486C13.6911 16.945 14.1689 17.4309 14.7556 17.4309C15.3422 17.4309 15.8201 16.945 15.8201 16.3486V15.769H16.3901C16.9768 15.769 17.4546 15.2832 17.4546 14.6867C17.4546 14.0903 16.9768 13.6044 16.3901 13.6044ZM16.3901 15.1787H15.5297C15.3695 15.1787 15.2394 15.3109 15.2394 15.4738V16.3486C15.2394 16.6199 15.0224 16.8405 14.7556 16.8405C14.4887 16.8405 14.2717 16.6199 14.2717 16.3486V15.4738C14.2717 15.3109 14.1417 15.1787 13.9814 15.1787H13.121C12.8541 15.1787 12.6371 14.9581 12.6371 14.6867C12.6371 14.4154 12.8541 14.1948 13.121 14.1948H13.9814C14.1417 14.1948 14.2717 14.0626 14.2717 13.8996V13.0249C14.2717 12.7535 14.4887 12.5329 14.7556 12.5329C15.0224 12.5329 15.2394 12.7535 15.2394 13.0249V13.8996C15.2394 14.0626 15.3695 14.1948 15.5297 14.1948H16.3901C16.657 14.1948 16.874 14.4154 16.874 14.6867C16.874 14.9581 16.657 15.1787 16.3901 15.1787ZM3.34239 3.60105C3.34239 3.43963 3.47394 3.30588 3.63271 3.30588C3.79525 3.30588 3.92303 3.43963 3.92303 3.60105C3.92303 3.76631 3.79525 3.89622 3.63271 3.89622C3.47394 3.89622 3.34239 3.76631 3.34239 3.60105Z"/>
</mask>
<path d="M9.57891 8.32931C9.60462 7.34388 9.55548 6.36536 9.24474 5.40381C8.9272 6.00184 8.96576 6.79662 8.90377 7.45837C8.89242 7.74584 8.88713 8.03103 8.88789 8.31697C8.45618 8.4584 8.14092 8.8658 8.14092 9.35082C8.14092 9.5891 8.21879 9.80817 8.34656 9.98728C8.28381 10.0534 8.21954 10.1179 8.15755 10.1856C7.74702 10.6575 7.29037 11.0473 7.12782 11.7006C7.43326 11.6968 7.74324 11.4408 7.96778 11.2755C8.29061 10.9904 8.60588 10.696 8.91131 10.3916C9.00809 10.4208 9.10788 10.4408 9.21373 10.4408C9.80496 10.4408 10.2866 9.9519 10.2866 9.35003C10.2866 8.87961 9.9902 8.48143 9.57891 8.32848L9.57891 8.32931ZM9.21375 9.85126C8.94234 9.85126 8.72156 9.62682 8.72156 9.35086C8.72156 9.07492 8.94232 8.85045 9.21375 8.85045C9.48518 8.85045 9.70594 9.0749 9.70594 9.35086C9.70594 9.6268 9.48518 9.85126 9.21375 9.85126ZM17.2256 11.1857C17.3579 10.5861 17.4275 9.97039 17.4275 9.35086C17.4275 4.74665 13.7425 1 9.21375 1C7.42722 1 5.72837 1.57343 4.30096 2.65724C4.17244 2.75486 4.14598 2.94011 4.24199 3.07079C4.33801 3.20146 4.52021 3.22837 4.64799 3.13075C5.9741 2.1238 7.55274 1.59035 9.21298 1.59035C13.4218 1.59035 16.8461 5.07233 16.8461 9.35088C16.8461 9.85819 16.7954 10.3632 16.7001 10.8567C16.4091 10.7037 16.0991 10.5853 15.774 10.5031C15.8382 10.1234 15.8791 9.7375 15.8791 9.35009C15.8791 5.61288 12.889 2.57345 9.21372 2.57345C5.53847 2.57345 2.54838 5.61347 2.54838 9.35009C2.54838 13.0873 5.53847 16.1267 9.21372 16.1267C9.71574 16.1267 10.214 16.066 10.7001 15.953C10.7976 16.2758 10.9352 16.5802 11.1008 16.8662C10.4869 17.0253 9.85485 17.1098 9.21372 17.1098C5.00487 17.1098 1.58064 13.6279 1.58064 9.34932C1.58064 7.61522 2.13028 5.97635 3.16983 4.60815C3.26812 4.47902 3.24468 4.29376 3.11767 4.19384C2.99065 4.09391 2.80844 4.11851 2.71091 4.24688C1.59198 5.71887 1 7.48289 1 9.34933C1 13.9535 4.68493 17.7002 9.21372 17.7002C9.9743 17.7002 10.725 17.591 11.4494 17.3827C12.2281 18.3674 13.4197 19 14.7563 19C17.0963 19 19 17.0645 19 14.6854C19 13.2434 18.2984 11.9676 17.2263 11.1842L17.2256 11.1857ZM9.50407 15.5278V15.1088C9.50407 14.9459 9.37403 14.8137 9.21375 14.8137C9.05347 14.8137 8.92343 14.9459 8.92343 15.1088V15.5224C7.46276 15.4517 6.13733 14.8575 5.12276 13.9174L5.40704 13.6284C5.52045 13.5131 5.52045 13.3263 5.40704 13.211C5.29364 13.0957 5.10991 13.0957 4.99651 13.211L4.71223 13.4993C3.79062 12.4669 3.20923 11.1202 3.14193 9.63591H3.53961C3.69989 9.63591 3.82993 9.5037 3.82993 9.34074C3.82993 9.17779 3.69989 9.04558 3.53961 9.04558H3.14269C3.21451 7.56437 3.79817 6.22083 4.72053 5.19149L4.99574 5.47128C5.05244 5.52893 5.12653 5.55737 5.20138 5.55737C5.27547 5.55737 5.34956 5.52817 5.40702 5.47128C5.52043 5.35598 5.52043 5.16919 5.40702 5.0539L5.13257 4.77487C6.14567 3.84017 7.46713 3.24984 8.92337 3.17912V3.57344C8.92337 3.7364 9.05341 3.86861 9.21369 3.86861C9.37397 3.86861 9.50401 3.7364 9.50401 3.57344V3.17912C10.9601 3.24983 12.281 3.84017 13.2948 4.77487L13.0204 5.0539C12.907 5.1692 12.907 5.35599 13.0204 5.47128C13.0771 5.52893 13.1512 5.55737 13.226 5.55737C13.3001 5.55737 13.3742 5.52817 13.4316 5.47128L13.7069 5.19149C14.63 6.22073 15.2136 7.56443 15.2847 9.04558H14.8878C14.7275 9.04558 14.5975 9.17779 14.5975 9.34074C14.5975 9.5037 14.7275 9.63591 14.8878 9.63591H15.2855C15.2741 9.89188 15.2477 10.1455 15.2053 10.3969C15.0579 10.3807 14.909 10.3723 14.757 10.3723C12.417 10.3723 10.5133 12.3078 10.5133 14.6868C10.5133 14.9228 10.5367 15.1527 10.573 15.3786C10.223 15.4601 9.86612 15.5101 9.50473 15.5278L9.50407 15.5278ZM14.7556 18.4109C12.7353 18.4109 11.0925 16.7399 11.0925 14.6867C11.0925 12.6336 12.7354 10.9625 14.7556 10.9625C16.775 10.9625 18.4186 12.6336 18.4186 14.6867C18.4186 16.7399 16.775 18.4109 14.7556 18.4109ZM16.3901 13.6044H15.8201V13.0249C15.8201 12.4284 15.3422 11.9426 14.7556 11.9426C14.1689 11.9426 13.6911 12.4284 13.6911 13.0249V13.6044H13.121C12.5343 13.6044 12.0565 14.0903 12.0565 14.6867C12.0565 15.2832 12.5343 15.769 13.121 15.769H13.6911V16.3486C13.6911 16.945 14.1689 17.4309 14.7556 17.4309C15.3422 17.4309 15.8201 16.945 15.8201 16.3486V15.769H16.3901C16.9768 15.769 17.4546 15.2832 17.4546 14.6867C17.4546 14.0903 16.9768 13.6044 16.3901 13.6044ZM16.3901 15.1787H15.5297C15.3695 15.1787 15.2394 15.3109 15.2394 15.4738V16.3486C15.2394 16.6199 15.0224 16.8405 14.7556 16.8405C14.4887 16.8405 14.2717 16.6199 14.2717 16.3486V15.4738C14.2717 15.3109 14.1417 15.1787 13.9814 15.1787H13.121C12.8541 15.1787 12.6371 14.9581 12.6371 14.6867C12.6371 14.4154 12.8541 14.1948 13.121 14.1948H13.9814C14.1417 14.1948 14.2717 14.0626 14.2717 13.8996V13.0249C14.2717 12.7535 14.4887 12.5329 14.7556 12.5329C15.0224 12.5329 15.2394 12.7535 15.2394 13.0249V13.8996C15.2394 14.0626 15.3695 14.1948 15.5297 14.1948H16.3901C16.657 14.1948 16.874 14.4154 16.874 14.6867C16.874 14.9581 16.657 15.1787 16.3901 15.1787ZM3.34239 3.60105C3.34239 3.43963 3.47394 3.30588 3.63271 3.30588C3.79525 3.30588 3.92303 3.43963 3.92303 3.60105C3.92303 3.76631 3.79525 3.89622 3.63271 3.89622C3.47394 3.89622 3.34239 3.76631 3.34239 3.60105Z" fill="white"/>
<path d="M9.57891 8.32931C9.60462 7.34388 9.55548 6.36536 9.24474 5.40381C8.9272 6.00184 8.96576 6.79662 8.90377 7.45837C8.89242 7.74584 8.88713 8.03103 8.88789 8.31697C8.45618 8.4584 8.14092 8.8658 8.14092 9.35082C8.14092 9.5891 8.21879 9.80817 8.34656 9.98728C8.28381 10.0534 8.21954 10.1179 8.15755 10.1856C7.74702 10.6575 7.29037 11.0473 7.12782 11.7006C7.43326 11.6968 7.74324 11.4408 7.96778 11.2755C8.29061 10.9904 8.60588 10.696 8.91131 10.3916C9.00809 10.4208 9.10788 10.4408 9.21373 10.4408C9.80496 10.4408 10.2866 9.9519 10.2866 9.35003C10.2866 8.87961 9.9902 8.48143 9.57891 8.32848L9.57891 8.32931ZM9.21375 9.85126C8.94234 9.85126 8.72156 9.62682 8.72156 9.35086C8.72156 9.07492 8.94232 8.85045 9.21375 8.85045C9.48518 8.85045 9.70594 9.0749 9.70594 9.35086C9.70594 9.6268 9.48518 9.85126 9.21375 9.85126ZM17.2256 11.1857C17.3579 10.5861 17.4275 9.97039 17.4275 9.35086C17.4275 4.74665 13.7425 1 9.21375 1C7.42722 1 5.72837 1.57343 4.30096 2.65724C4.17244 2.75486 4.14598 2.94011 4.24199 3.07079C4.33801 3.20146 4.52021 3.22837 4.64799 3.13075C5.9741 2.1238 7.55274 1.59035 9.21298 1.59035C13.4218 1.59035 16.8461 5.07233 16.8461 9.35088C16.8461 9.85819 16.7954 10.3632 16.7001 10.8567C16.4091 10.7037 16.0991 10.5853 15.774 10.5031C15.8382 10.1234 15.8791 9.7375 15.8791 9.35009C15.8791 5.61288 12.889 2.57345 9.21372 2.57345C5.53847 2.57345 2.54838 5.61347 2.54838 9.35009C2.54838 13.0873 5.53847 16.1267 9.21372 16.1267C9.71574 16.1267 10.214 16.066 10.7001 15.953C10.7976 16.2758 10.9352 16.5802 11.1008 16.8662C10.4869 17.0253 9.85485 17.1098 9.21372 17.1098C5.00487 17.1098 1.58064 13.6279 1.58064 9.34932C1.58064 7.61522 2.13028 5.97635 3.16983 4.60815C3.26812 4.47902 3.24468 4.29376 3.11767 4.19384C2.99065 4.09391 2.80844 4.11851 2.71091 4.24688C1.59198 5.71887 1 7.48289 1 9.34933C1 13.9535 4.68493 17.7002 9.21372 17.7002C9.9743 17.7002 10.725 17.591 11.4494 17.3827C12.2281 18.3674 13.4197 19 14.7563 19C17.0963 19 19 17.0645 19 14.6854C19 13.2434 18.2984 11.9676 17.2263 11.1842L17.2256 11.1857ZM9.50407 15.5278V15.1088C9.50407 14.9459 9.37403 14.8137 9.21375 14.8137C9.05347 14.8137 8.92343 14.9459 8.92343 15.1088V15.5224C7.46276 15.4517 6.13733 14.8575 5.12276 13.9174L5.40704 13.6284C5.52045 13.5131 5.52045 13.3263 5.40704 13.211C5.29364 13.0957 5.10991 13.0957 4.99651 13.211L4.71223 13.4993C3.79062 12.4669 3.20923 11.1202 3.14193 9.63591H3.53961C3.69989 9.63591 3.82993 9.5037 3.82993 9.34074C3.82993 9.17779 3.69989 9.04558 3.53961 9.04558H3.14269C3.21451 7.56437 3.79817 6.22083 4.72053 5.19149L4.99574 5.47128C5.05244 5.52893 5.12653 5.55737 5.20138 5.55737C5.27547 5.55737 5.34956 5.52817 5.40702 5.47128C5.52043 5.35598 5.52043 5.16919 5.40702 5.0539L5.13257 4.77487C6.14567 3.84017 7.46713 3.24984 8.92337 3.17912V3.57344C8.92337 3.7364 9.05341 3.86861 9.21369 3.86861C9.37397 3.86861 9.50401 3.7364 9.50401 3.57344V3.17912C10.9601 3.24983 12.281 3.84017 13.2948 4.77487L13.0204 5.0539C12.907 5.1692 12.907 5.35599 13.0204 5.47128C13.0771 5.52893 13.1512 5.55737 13.226 5.55737C13.3001 5.55737 13.3742 5.52817 13.4316 5.47128L13.7069 5.19149C14.63 6.22073 15.2136 7.56443 15.2847 9.04558H14.8878C14.7275 9.04558 14.5975 9.17779 14.5975 9.34074C14.5975 9.5037 14.7275 9.63591 14.8878 9.63591H15.2855C15.2741 9.89188 15.2477 10.1455 15.2053 10.3969C15.0579 10.3807 14.909 10.3723 14.757 10.3723C12.417 10.3723 10.5133 12.3078 10.5133 14.6868C10.5133 14.9228 10.5367 15.1527 10.573 15.3786C10.223 15.4601 9.86612 15.5101 9.50473 15.5278L9.50407 15.5278ZM14.7556 18.4109C12.7353 18.4109 11.0925 16.7399 11.0925 14.6867C11.0925 12.6336 12.7354 10.9625 14.7556 10.9625C16.775 10.9625 18.4186 12.6336 18.4186 14.6867C18.4186 16.7399 16.775 18.4109 14.7556 18.4109ZM16.3901 13.6044H15.8201V13.0249C15.8201 12.4284 15.3422 11.9426 14.7556 11.9426C14.1689 11.9426 13.6911 12.4284 13.6911 13.0249V13.6044H13.121C12.5343 13.6044 12.0565 14.0903 12.0565 14.6867C12.0565 15.2832 12.5343 15.769 13.121 15.769H13.6911V16.3486C13.6911 16.945 14.1689 17.4309 14.7556 17.4309C15.3422 17.4309 15.8201 16.945 15.8201 16.3486V15.769H16.3901C16.9768 15.769 17.4546 15.2832 17.4546 14.6867C17.4546 14.0903 16.9768 13.6044 16.3901 13.6044ZM16.3901 15.1787H15.5297C15.3695 15.1787 15.2394 15.3109 15.2394 15.4738V16.3486C15.2394 16.6199 15.0224 16.8405 14.7556 16.8405C14.4887 16.8405 14.2717 16.6199 14.2717 16.3486V15.4738C14.2717 15.3109 14.1417 15.1787 13.9814 15.1787H13.121C12.8541 15.1787 12.6371 14.9581 12.6371 14.6867C12.6371 14.4154 12.8541 14.1948 13.121 14.1948H13.9814C14.1417 14.1948 14.2717 14.0626 14.2717 13.8996V13.0249C14.2717 12.7535 14.4887 12.5329 14.7556 12.5329C15.0224 12.5329 15.2394 12.7535 15.2394 13.0249V13.8996C15.2394 14.0626 15.3695 14.1948 15.5297 14.1948H16.3901C16.657 14.1948 16.874 14.4154 16.874 14.6867C16.874 14.9581 16.657 15.1787 16.3901 15.1787ZM3.34239 3.60105C3.34239 3.43963 3.47394 3.30588 3.63271 3.30588C3.79525 3.30588 3.92303 3.43963 3.92303 3.60105C3.92303 3.76631 3.79525 3.89622 3.63271 3.89622C3.47394 3.89622 3.34239 3.76631 3.34239 3.60105Z" stroke="white" stroke-width="0.4" mask="url(#path-1-outside-1_1_908)"/>
</svg>
