<svg width="29" height="30" viewBox="0 0 29 30" fill="none" xmlns="http://www.w3.org/2000/svg">
<circle cx="14.5" cy="15" r="14.5" fill="#EA4335"/>
<path d="M8.13892 21.3616H20.2756V7.5H8.13892V21.3616ZM8.76127 8.12138H19.6533V9.69185H8.76127V8.12138ZM8.76127 10.3132H19.6533V20.7402H8.76127V10.3132Z" fill="white"/>
<path d="M13.4646 12.0178H9.68799V12.6392H13.4646V12.0178Z" fill="white"/>
<path d="M11.6371 12.9922H9.68799V13.6136H11.6371V12.9922Z" fill="white"/>
<path d="M18.7561 12.0178H14.9797V12.6392H18.7561V12.0178Z" fill="white"/>
<path d="M16.9285 12.9922H14.9797V13.6136H16.9285V12.9922Z" fill="white"/>
<path d="M9.7881 8.58081H9.28882V9.20219H9.7881V8.58081Z" fill="white"/>
<path d="M10.7787 8.58081H10.2794V9.20219H10.7787V8.58081Z" fill="white"/>
<path d="M11.7693 8.58081H11.27V9.20219H11.7693V8.58081Z" fill="white"/>
<path d="M19.2165 8.58081H17.1367V9.20219H19.2165V8.58081Z" fill="white"/>
<path d="M9.73193 19.1625H18.811V14.5112H9.73193V19.1625ZM11.4174 18.5411L14.2715 17.1811L17.1255 18.5411H11.4174ZM18.1887 18.3593L14.9938 16.8369L18.1887 15.3144V18.3593ZM17.1255 15.1326L14.2715 16.4926L11.4174 15.1326H17.1255ZM10.3543 15.3144L13.5491 16.8368L10.3543 18.3593V15.3144Z" fill="white"/>
<path d="M7.62235 20.594H7V22.5H10.5426V21.8786H7.62235V20.594Z" fill="white"/>
<path d="M7.62235 19.3992H7V20.0236H7.62235V19.3992Z" fill="white"/>
<path d="M21.4908 8.13354H20.8684V15.8511H21.4908V8.13354Z" fill="white"/>
</svg>
