<svg width="199" height="199" viewBox="0 0 199 199" fill="none" xmlns="http://www.w3.org/2000/svg">
<circle cx="99.5" cy="99.5" r="98.5" stroke="#FCB040" stroke-width="2"/>
<path d="M182.614 140.1C175.446 154.773 164.521 167.288 150.95 176.371C137.379 185.454 121.645 190.783 105.347 191.815C89.0497 192.847 72.7691 189.547 58.1604 182.248C43.5516 174.95 31.1354 163.914 22.1735 150.263C13.2116 136.611 8.02352 120.83 7.13654 104.524C6.24957 88.2178 9.69529 71.9674 17.1235 57.4243C24.5518 42.8811 35.6977 30.5638 49.4287 21.724C63.1596 12.8841 78.9861 7.83698 95.2996 7.09542L99.5 99.5L182.614 140.1Z" fill="#EA4335"/>
<path d="M94.3861 7.14147C110.592 6.24414 126.749 9.62679 141.234 16.9497C155.719 24.2726 168.022 35.2779 176.907 48.8603C185.793 62.4428 190.948 78.1241 191.855 94.3295C192.763 110.535 189.39 126.694 182.076 141.183L99.5 99.5L94.3861 7.14147Z" fill="#029D4A"/>
<circle cx="99.5" cy="99.5" r="61.5" fill="white"/>
<path d="M69.9023 84.4219H72.791C73.4902 84.4219 74.1172 84.5137 74.6719 84.6973C75.2305 84.877 75.7031 85.1484 76.0898 85.5117C76.4805 85.8711 76.7793 86.3203 76.9863 86.8594C77.1934 87.3945 77.2969 88.0195 77.2969 88.7344C77.2969 89.4336 77.1895 90.0488 76.9746 90.5801C76.7598 91.1113 76.4551 91.5566 76.0605 91.916C75.666 92.2754 75.1895 92.5469 74.6309 92.7305C74.0762 92.9102 73.459 93 72.7793 93H69.9023V84.4219ZM72.7383 91.7051C73.2383 91.7051 73.666 91.6348 74.0215 91.4941C74.377 91.3535 74.668 91.1523 74.8945 90.8906C75.125 90.6289 75.293 90.3105 75.3984 89.9355C75.5078 89.5566 75.5625 89.1328 75.5625 88.6641C75.5625 87.6953 75.334 86.9629 74.877 86.4668C74.4238 85.9668 73.7031 85.7168 72.7148 85.7168H71.5664V91.7051H72.7383ZM84.1582 91.6348C84.0293 91.9121 83.8633 92.1465 83.6602 92.3379C83.4609 92.5254 83.2383 92.6777 82.9922 92.7949C82.75 92.9082 82.4883 92.9902 82.207 93.041C81.9297 93.0918 81.6465 93.1172 81.3574 93.1172C80.8613 93.1172 80.4141 93.0391 80.0156 92.8828C79.6172 92.7227 79.2773 92.5 78.9961 92.2148C78.7188 91.9258 78.5039 91.5801 78.3516 91.1777C78.2031 90.7754 78.1289 90.3301 78.1289 89.8418C78.1289 89.3809 78.2051 88.9531 78.3574 88.5586C78.5098 88.1602 78.7246 87.8164 79.002 87.5273C79.2793 87.2344 79.6113 87.0059 79.998 86.8418C80.3848 86.6738 80.8145 86.5898 81.2871 86.5898C82.3027 86.5898 83.0586 86.8887 83.5547 87.4863C84.0547 88.0801 84.3047 88.9824 84.3047 90.1934H79.6582C79.6582 90.459 79.6953 90.7051 79.7695 90.9316C79.8477 91.1543 79.9609 91.3477 80.1094 91.5117C80.2578 91.6719 80.4414 91.7988 80.6602 91.8926C80.8789 91.9824 81.1309 92.0273 81.416 92.0273C81.7598 92.0273 82.0664 91.9551 82.3359 91.8105C82.6055 91.666 82.8223 91.4336 82.9863 91.1133L84.1582 91.6348ZM82.8105 89.209C82.7871 88.7324 82.6406 88.3594 82.3711 88.0898C82.1055 87.8164 81.75 87.6797 81.3047 87.6797C81.0703 87.6797 80.8594 87.7188 80.6719 87.7969C80.4844 87.875 80.3223 87.9824 80.1855 88.1191C80.0527 88.2559 79.9434 88.418 79.8574 88.6055C79.7715 88.7891 79.7129 88.9902 79.6816 89.209H82.8105ZM91.1719 91.2246C91.0664 91.5527 90.918 91.8359 90.7266 92.0742C90.5352 92.3125 90.3125 92.5098 90.0586 92.666C89.8047 92.8184 89.5254 92.9316 89.2207 93.0059C88.916 93.0801 88.5996 93.1172 88.2715 93.1172C87.7754 93.1172 87.3301 93.0371 86.9355 92.877C86.541 92.7168 86.207 92.4941 85.9336 92.209C85.6602 91.9199 85.4512 91.5742 85.3066 91.1719C85.1621 90.7695 85.0898 90.3262 85.0898 89.8418C85.0898 89.377 85.168 88.9453 85.3242 88.5469C85.4844 88.1484 85.707 87.8047 85.9922 87.5156C86.2773 87.2266 86.6152 87 87.0059 86.8359C87.4004 86.6719 87.834 86.5898 88.3066 86.5898C88.623 86.5898 88.9258 86.625 89.2148 86.6953C89.5078 86.7617 89.7773 86.8672 90.0234 87.0117C90.2695 87.1523 90.4863 87.334 90.6738 87.5566C90.8652 87.7793 91.0195 88.0449 91.1367 88.3535L89.9238 88.8867C89.7988 88.5312 89.5918 88.2578 89.3027 88.0664C89.0176 87.875 88.6855 87.7793 88.3066 87.7793C88.002 87.7793 87.7422 87.8398 87.5273 87.9609C87.3164 88.082 87.1445 88.2441 87.0117 88.4473C86.8789 88.6465 86.7812 88.875 86.7188 89.1328C86.6602 89.3867 86.6309 89.6484 86.6309 89.918C86.6309 90.1953 86.6621 90.459 86.7246 90.709C86.7871 90.959 86.8867 91.1777 87.0234 91.3652C87.1602 91.5527 87.3359 91.7031 87.5508 91.8164C87.7656 91.9258 88.0254 91.9805 88.3301 91.9805C88.7637 91.9805 89.123 91.8691 89.4082 91.6465C89.6934 91.4238 89.9004 91.1152 90.0293 90.7207L91.1719 91.2246ZM97.9746 91.6348C97.8457 91.9121 97.6797 92.1465 97.4766 92.3379C97.2773 92.5254 97.0547 92.6777 96.8086 92.7949C96.5664 92.9082 96.3047 92.9902 96.0234 93.041C95.7461 93.0918 95.4629 93.1172 95.1738 93.1172C94.6777 93.1172 94.2305 93.0391 93.832 92.8828C93.4336 92.7227 93.0938 92.5 92.8125 92.2148C92.5352 91.9258 92.3203 91.5801 92.168 91.1777C92.0195 90.7754 91.9453 90.3301 91.9453 89.8418C91.9453 89.3809 92.0215 88.9531 92.1738 88.5586C92.3262 88.1602 92.541 87.8164 92.8184 87.5273C93.0957 87.2344 93.4277 87.0059 93.8145 86.8418C94.2012 86.6738 94.6309 86.5898 95.1035 86.5898C96.1191 86.5898 96.875 86.8887 97.3711 87.4863C97.8711 88.0801 98.1211 88.9824 98.1211 90.1934H93.4746C93.4746 90.459 93.5117 90.7051 93.5859 90.9316C93.6641 91.1543 93.7773 91.3477 93.9258 91.5117C94.0742 91.6719 94.2578 91.7988 94.4766 91.8926C94.6953 91.9824 94.9473 92.0273 95.2324 92.0273C95.5762 92.0273 95.8828 91.9551 96.1523 91.8105C96.4219 91.666 96.6387 91.4336 96.8027 91.1133L97.9746 91.6348ZM96.627 89.209C96.6035 88.7324 96.457 88.3594 96.1875 88.0898C95.9219 87.8164 95.5664 87.6797 95.1211 87.6797C94.8867 87.6797 94.6758 87.7188 94.4883 87.7969C94.3008 87.875 94.1387 87.9824 94.002 88.1191C93.8691 88.2559 93.7598 88.418 93.6738 88.6055C93.5879 88.7891 93.5293 88.9902 93.498 89.209H96.627ZM99.3281 86.7246H100.828V87.6855C100.922 87.5059 101.037 87.3477 101.174 87.2109C101.314 87.0742 101.469 86.9609 101.637 86.8711C101.809 86.7773 101.99 86.707 102.182 86.6602C102.377 86.6133 102.576 86.5898 102.779 86.5898C102.975 86.5898 103.164 86.6113 103.348 86.6543C103.535 86.6973 103.709 86.7656 103.869 86.8594C104.033 86.9492 104.178 87.0645 104.303 87.2051C104.428 87.3457 104.527 87.5137 104.602 87.709C104.84 87.3496 105.152 87.0742 105.539 86.8828C105.926 86.6875 106.344 86.5898 106.793 86.5898C107.152 86.5898 107.465 86.6523 107.73 86.7773C107.996 86.9023 108.217 87.0742 108.393 87.293C108.568 87.5078 108.699 87.7637 108.785 88.0605C108.871 88.3574 108.914 88.6797 108.914 89.0273V93H107.42V89.1211C107.42 88.7266 107.32 88.4121 107.121 88.1777C106.926 87.9434 106.627 87.8262 106.225 87.8262C106.006 87.8262 105.812 87.8633 105.645 87.9375C105.477 88.0078 105.336 88.1055 105.223 88.2305C105.109 88.3555 105.023 88.5059 104.965 88.6816C104.906 88.8535 104.877 89.041 104.877 89.2441V93H103.377V89.1211C103.377 88.7266 103.277 88.4121 103.078 88.1777C102.879 87.9434 102.578 87.8262 102.176 87.8262C101.961 87.8262 101.77 87.8633 101.602 87.9375C101.434 88.0078 101.291 88.1055 101.174 88.2305C101.061 88.3555 100.975 88.5059 100.916 88.6816C100.857 88.8535 100.828 89.041 100.828 89.2441V93H99.3281V86.7246ZM110.496 83.8828H111.996V87.7383C112.105 87.5586 112.238 87.3984 112.395 87.2578C112.555 87.1133 112.729 86.9922 112.916 86.8945C113.104 86.7969 113.301 86.7227 113.508 86.6719C113.719 86.6172 113.928 86.5898 114.135 86.5898C114.611 86.5898 115.027 86.6797 115.383 86.8594C115.742 87.0352 116.041 87.2734 116.279 87.5742C116.518 87.8711 116.695 88.2168 116.812 88.6113C116.93 89.002 116.988 89.4121 116.988 89.8418C116.988 90.2832 116.926 90.7031 116.801 91.1016C116.68 91.4961 116.5 91.8438 116.262 92.1445C116.027 92.4414 115.734 92.6777 115.383 92.8535C115.035 93.0293 114.635 93.1172 114.182 93.1172C113.959 93.1172 113.738 93.0938 113.52 93.0469C113.305 93.0039 113.102 92.9355 112.91 92.8418C112.719 92.748 112.543 92.6309 112.383 92.4902C112.227 92.3496 112.098 92.1836 111.996 91.9922V93H110.496V83.8828ZM113.754 91.9453C114.082 91.9453 114.354 91.8887 114.568 91.7754C114.787 91.6582 114.961 91.502 115.09 91.3066C115.219 91.1113 115.309 90.8848 115.359 90.627C115.414 90.3691 115.441 90.0957 115.441 89.8066C115.441 89.541 115.408 89.2852 115.342 89.0391C115.275 88.793 115.17 88.5762 115.025 88.3887C114.885 88.1973 114.703 88.0449 114.48 87.9316C114.258 87.8184 113.992 87.7617 113.684 87.7617C113.375 87.7617 113.109 87.8203 112.887 87.9375C112.668 88.0508 112.488 88.2051 112.348 88.4004C112.207 88.5918 112.104 88.8164 112.037 89.0742C111.975 89.3281 111.943 89.5938 111.943 89.8711C111.943 90.1641 111.979 90.4375 112.049 90.6914C112.123 90.9453 112.234 91.166 112.383 91.3535C112.531 91.5371 112.719 91.6816 112.945 91.7871C113.172 91.8926 113.441 91.9453 113.754 91.9453ZM123.826 91.6348C123.697 91.9121 123.531 92.1465 123.328 92.3379C123.129 92.5254 122.906 92.6777 122.66 92.7949C122.418 92.9082 122.156 92.9902 121.875 93.041C121.598 93.0918 121.314 93.1172 121.025 93.1172C120.529 93.1172 120.082 93.0391 119.684 92.8828C119.285 92.7227 118.945 92.5 118.664 92.2148C118.387 91.9258 118.172 91.5801 118.02 91.1777C117.871 90.7754 117.797 90.3301 117.797 89.8418C117.797 89.3809 117.873 88.9531 118.025 88.5586C118.178 88.1602 118.393 87.8164 118.67 87.5273C118.947 87.2344 119.279 87.0059 119.666 86.8418C120.053 86.6738 120.482 86.5898 120.955 86.5898C121.971 86.5898 122.727 86.8887 123.223 87.4863C123.723 88.0801 123.973 88.9824 123.973 90.1934H119.326C119.326 90.459 119.363 90.7051 119.438 90.9316C119.516 91.1543 119.629 91.3477 119.777 91.5117C119.926 91.6719 120.109 91.7988 120.328 91.8926C120.547 91.9824 120.799 92.0273 121.084 92.0273C121.428 92.0273 121.734 91.9551 122.004 91.8105C122.273 91.666 122.49 91.4336 122.654 91.1133L123.826 91.6348ZM122.479 89.209C122.455 88.7324 122.309 88.3594 122.039 88.0898C121.773 87.8164 121.418 87.6797 120.973 87.6797C120.738 87.6797 120.527 87.7188 120.34 87.7969C120.152 87.875 119.99 87.9824 119.854 88.1191C119.721 88.2559 119.611 88.418 119.525 88.6055C119.439 88.7891 119.381 88.9902 119.35 89.209H122.479ZM125.18 86.7246H126.68V87.9023C126.891 87.4688 127.166 87.1484 127.506 86.9414C127.85 86.7344 128.262 86.6309 128.742 86.6309V88.0195C128.438 88.0195 128.158 88.0469 127.904 88.1016C127.654 88.1562 127.438 88.252 127.254 88.3887C127.074 88.5215 126.934 88.6992 126.832 88.9219C126.73 89.1445 126.68 89.4238 126.68 89.7598V93H125.18V86.7246Z" fill="#212429"/>
<path d="M79.6719 112.148L84.0312 108.07C84.2552 107.862 84.4714 107.635 84.6797 107.391C84.8932 107.146 85.0807 106.885 85.2422 106.609C85.4089 106.333 85.5417 106.044 85.6406 105.742C85.7448 105.435 85.7969 105.12 85.7969 104.797C85.7969 104.255 85.6536 103.836 85.3672 103.539C85.0807 103.242 84.6719 103.094 84.1406 103.094C83.8021 103.094 83.5026 103.154 83.2422 103.273C82.987 103.393 82.7656 103.555 82.5781 103.758C82.3906 103.956 82.2318 104.185 82.1016 104.445C81.9766 104.706 81.875 104.977 81.7969 105.258L80.0938 104.523C80.2188 104.013 80.4036 103.562 80.6484 103.172C80.8932 102.781 81.1875 102.456 81.5312 102.195C81.8802 101.93 82.276 101.732 82.7188 101.602C83.1615 101.466 83.6432 101.398 84.1641 101.398C84.6953 101.398 85.1927 101.469 85.6562 101.609C86.1198 101.75 86.5234 101.961 86.8672 102.242C87.2161 102.518 87.4896 102.865 87.6875 103.281C87.8906 103.693 87.9922 104.174 87.9922 104.727C87.9922 105.154 87.9323 105.565 87.8125 105.961C87.6927 106.352 87.5312 106.724 87.3281 107.078C87.125 107.427 86.888 107.758 86.6172 108.07C86.3516 108.378 86.0677 108.661 85.7656 108.922L83.0391 111.305H88.0703V113H79.6719V112.148ZM94.4219 113.156C93.474 113.156 92.6849 112.992 92.0547 112.664C91.4245 112.336 90.9193 111.893 90.5391 111.336C90.1641 110.773 89.8984 110.12 89.7422 109.375C89.5859 108.63 89.5078 107.841 89.5078 107.008C89.5078 106.253 89.6094 105.536 89.8125 104.859C90.0156 104.182 90.3229 103.589 90.7344 103.078C91.1458 102.562 91.6615 102.154 92.2812 101.852C92.9062 101.549 93.6354 101.398 94.4688 101.398C95.0625 101.398 95.5938 101.477 96.0625 101.633C96.5365 101.789 96.9505 102.008 97.3047 102.289C97.6641 102.57 97.9688 102.904 98.2188 103.289C98.474 103.674 98.6823 104.094 98.8438 104.547C99.0052 105 99.1224 105.482 99.1953 105.992C99.2682 106.497 99.3047 107.013 99.3047 107.539C99.3047 108.299 99.2057 109.021 99.0078 109.703C98.8099 110.38 98.5104 110.977 98.1094 111.492C97.7083 112.003 97.2005 112.409 96.5859 112.711C95.9714 113.008 95.25 113.156 94.4219 113.156ZM94.5 111.43C94.9115 111.43 95.2604 111.365 95.5469 111.234C95.8333 111.099 96.0729 110.919 96.2656 110.695C96.4583 110.466 96.6094 110.203 96.7188 109.906C96.8281 109.604 96.9089 109.289 96.9609 108.961C97.0182 108.633 97.0521 108.299 97.0625 107.961C97.0781 107.617 97.0859 107.289 97.0859 106.977C97.0859 106.544 97.0469 106.102 96.9688 105.648C96.8906 105.19 96.75 104.776 96.5469 104.406C96.3438 104.031 96.0651 103.724 95.7109 103.484C95.362 103.245 94.9141 103.125 94.3672 103.125C93.9661 103.125 93.6198 103.193 93.3281 103.328C93.0417 103.458 92.8021 103.635 92.6094 103.859C92.4167 104.083 92.263 104.344 92.1484 104.641C92.0339 104.938 91.9453 105.253 91.8828 105.586C91.8255 105.914 91.7865 106.25 91.7656 106.594C91.75 106.932 91.7422 107.258 91.7422 107.57C91.7422 108.013 91.7812 108.464 91.8594 108.922C91.9375 109.38 92.0807 109.797 92.2891 110.172C92.4974 110.542 92.7786 110.844 93.1328 111.078C93.4922 111.312 93.9479 111.43 94.5 111.43ZM100.344 112.148L104.703 108.07C104.927 107.862 105.143 107.635 105.352 107.391C105.565 107.146 105.753 106.885 105.914 106.609C106.081 106.333 106.214 106.044 106.312 105.742C106.417 105.435 106.469 105.12 106.469 104.797C106.469 104.255 106.326 103.836 106.039 103.539C105.753 103.242 105.344 103.094 104.812 103.094C104.474 103.094 104.174 103.154 103.914 103.273C103.659 103.393 103.438 103.555 103.25 103.758C103.062 103.956 102.904 104.185 102.773 104.445C102.648 104.706 102.547 104.977 102.469 105.258L100.766 104.523C100.891 104.013 101.076 103.562 101.32 103.172C101.565 102.781 101.859 102.456 102.203 102.195C102.552 101.93 102.948 101.732 103.391 101.602C103.833 101.466 104.315 101.398 104.836 101.398C105.367 101.398 105.865 101.469 106.328 101.609C106.792 101.75 107.195 101.961 107.539 102.242C107.888 102.518 108.161 102.865 108.359 103.281C108.562 103.693 108.664 104.174 108.664 104.727C108.664 105.154 108.604 105.565 108.484 105.961C108.365 106.352 108.203 106.724 108 107.078C107.797 107.427 107.56 107.758 107.289 108.07C107.023 108.378 106.74 108.661 106.438 108.922L103.711 111.305H108.742V113H100.344V112.148ZM109.703 109.75L114.797 101.562H117.586V108.969H119.117V110.586H117.586V113H115.43V110.586H109.703V109.75ZM115.469 108.969V103.211L112.031 108.969H115.469Z" fill="#212429"/>
</svg>
