<svg width="30" height="30" viewBox="0 0 30 30" fill="none" xmlns="http://www.w3.org/2000/svg">
<rect width="30" height="30" fill="white"/>
<path d="M4.4825 18.7545C4.22538 18.7636 4.00941 18.5625 4.0003 18.3054C3.99118 18.0483 4.19224 17.8323 4.44936 17.8232C4.71365 17.8138 4.95807 17.713 5.14863 17.5506C5.33863 17.3882 5.47617 17.1626 5.52698 16.9024C5.57614 16.6495 5.82194 16.4843 6.07491 16.5335C6.26685 16.5708 6.40825 16.7213 6.44388 16.9024C6.49469 17.1626 6.63223 17.3885 6.82251 17.5506C7.00921 17.7097 7.24727 17.8097 7.50521 17.8224C7.76288 17.8097 8.00122 17.7097 8.18764 17.5506C8.37792 17.3885 8.51545 17.1626 8.56627 16.9024C8.61543 16.6495 8.86122 16.4843 9.1142 16.5335C9.30614 16.5708 9.44754 16.7213 9.48316 16.9024C9.53398 17.1626 9.67151 17.3885 9.8618 17.5506C10.0485 17.7097 10.2866 17.8097 10.5448 17.8224C10.8024 17.8097 11.0405 17.71 11.2272 17.5506C11.4172 17.3882 11.5547 17.1623 11.6058 16.9024C11.655 16.6495 11.9008 16.4843 12.1538 16.5335C12.3457 16.5708 12.4871 16.7213 12.5227 16.9024C12.5735 17.1626 12.7111 17.3885 12.9014 17.5506C13.0878 17.7097 13.3261 17.8097 13.5838 17.8224C13.8417 17.8097 14.0798 17.71 14.2665 17.5506C14.4568 17.3885 14.5943 17.1626 14.6451 16.9024C14.6943 16.6495 14.9401 16.4843 15.193 16.5335C15.385 16.5708 15.5264 16.7213 15.562 16.9024C15.6128 17.1626 15.7504 17.3885 15.9406 17.5506C16.1271 17.7097 16.3654 17.8097 16.6231 17.8224C16.8813 17.8097 17.1191 17.71 17.3058 17.5509C17.4961 17.3888 17.6336 17.1626 17.6847 16.9024C17.7338 16.6495 17.9796 16.4843 18.2326 16.5335C18.4245 16.5708 18.5659 16.7213 18.6016 16.9024C18.6524 17.1626 18.7899 17.3885 18.9802 17.5506C19.1666 17.7097 19.405 17.8097 19.6626 17.8224C19.9206 17.8097 20.1586 17.71 20.3453 17.5506C20.5356 17.3885 20.6732 17.1626 20.724 16.9024C20.7731 16.6495 21.0189 16.4843 21.2719 16.5335C21.4638 16.5708 21.6052 16.7213 21.6409 16.9024C21.6917 17.1626 21.8292 17.3885 22.0195 17.5506C22.2098 17.713 22.4545 17.8138 22.7185 17.8232C22.9756 17.8323 23.1767 18.0483 23.1675 18.3054C23.1584 18.5625 22.9425 18.7636 22.6853 18.7545C22.2037 18.7371 21.7591 18.5548 21.413 18.2593C21.3304 18.1889 21.2531 18.1118 21.1824 18.029C21.1117 18.1118 21.0344 18.1889 20.9518 18.2593C20.6066 18.5537 20.1642 18.7357 19.6842 18.7542L19.6461 18.7545C19.1644 18.7371 18.7198 18.5548 18.3737 18.2593C18.2912 18.1889 18.2138 18.1118 18.1431 18.029C18.0722 18.1118 17.9951 18.1891 17.9122 18.2596C17.567 18.554 17.1246 18.7357 16.6446 18.7542L16.6065 18.7545C16.1249 18.7371 15.6802 18.5548 15.3342 18.2593C15.2516 18.1889 15.1743 18.1118 15.1036 18.029C15.0329 18.1118 14.9555 18.1889 14.873 18.2593C14.5277 18.5537 14.0853 18.7357 13.6053 18.7542L13.5672 18.7545C13.0856 18.7371 12.6409 18.5548 12.2949 18.2593C12.2123 18.1889 12.135 18.1118 12.0643 18.029C11.9933 18.1118 11.9163 18.1889 11.8337 18.2593C11.4885 18.5537 11.046 18.7357 10.5663 18.7542L10.5282 18.7545C10.0463 18.7371 9.60164 18.5548 9.25532 18.2593C9.17275 18.1889 9.09542 18.1118 9.02472 18.029C8.95402 18.1118 8.87669 18.1889 8.79411 18.2593C8.4489 18.5537 8.00619 18.7357 7.52675 18.7542L7.48864 18.7545C7.007 18.7371 6.56236 18.5548 6.21604 18.2593C6.13346 18.1889 6.05613 18.1118 5.98543 18.029C5.91473 18.1118 5.83768 18.1889 5.7551 18.2593C5.40878 18.5548 4.96414 18.7371 4.4825 18.7545ZM17.9203 9.73133C18.5555 9.73133 19.1324 9.98983 19.5508 10.4077C19.9852 10.8421 20.2291 11.4254 20.2291 12.0401C20.2291 12.6753 19.9706 13.2523 19.5527 13.6707C19.1183 14.1051 18.535 14.3489 17.9203 14.3489C17.2851 14.3489 16.7081 14.0904 16.2897 13.6726C15.8553 13.2382 15.6114 12.6549 15.6114 12.0401C15.6114 11.4049 15.8699 10.828 16.2878 10.4096C16.7222 9.97519 17.3055 9.73133 17.9203 9.73133ZM18.8924 11.0677C18.6447 10.8197 18.3008 10.6665 17.9203 10.6665C17.5397 10.6665 17.1959 10.8197 16.949 11.0669C16.6998 11.3157 16.5466 11.6596 16.5466 12.0401C16.5466 12.4207 16.6998 12.7645 16.947 13.0114C17.1959 13.2605 17.5397 13.4138 17.9203 13.4138C18.3008 13.4138 18.6447 13.2605 18.8916 13.0134C19.1407 12.7645 19.2939 12.4207 19.2939 12.0401C19.2939 11.6596 19.1407 11.3157 18.8924 11.0677ZM10.6376 16.2938C10.455 16.4763 10.159 16.4763 9.97641 16.2938C9.79386 16.1112 9.79386 15.8151 9.97641 15.6326L11.9654 13.6436L9.81872 11.4972C9.63616 11.3146 9.63616 11.0186 9.81872 10.836C10.6552 10.0605 11.4879 9.16794 12.299 8.35571C12.536 8.11875 12.8481 8 13.1593 8C13.4708 8 13.7829 8.11875 14.0199 8.35571C14.2568 8.59267 14.3756 8.90474 14.3756 9.21627C14.3756 9.52751 14.2568 9.83959 14.0199 10.0765L12.9301 11.1666L17.3494 15.5859C17.532 15.7685 17.532 16.0645 17.3494 16.2471C17.1669 16.4296 16.8708 16.4296 16.6882 16.2471L11.9383 11.4972C11.7558 11.3146 11.7558 11.0186 11.9383 10.836L13.3587 9.41539C13.4131 9.36098 13.4404 9.28862 13.4404 9.21627C13.4404 9.14363 13.4131 9.07128 13.3587 9.01687C13.3043 8.96246 13.2319 8.93512 13.1593 8.93512C13.0869 8.93512 13.0146 8.96246 12.9602 9.01687L10.8093 11.1655L12.9571 13.313C13.1397 13.4956 13.1397 13.7916 12.9571 13.9742L10.6376 16.2938ZM7.31438 21.8802C7.05726 21.8893 6.84129 21.6882 6.83218 21.4311C6.82306 21.174 7.02412 20.958 7.28124 20.9489C7.54553 20.9395 7.78995 20.8387 7.98051 20.6763C8.17051 20.514 8.30805 20.288 8.35886 20.0282C8.40802 19.7752 8.65382 19.61 8.90679 19.6592C9.09873 19.6965 9.24013 19.847 9.27576 20.0282C9.32685 20.288 9.46439 20.5142 9.65467 20.6763C9.84136 20.8354 10.0794 20.9354 10.3374 20.9481C10.595 20.9354 10.8331 20.8357 11.0198 20.6763C11.2101 20.5142 11.3476 20.2883 11.3984 20.0282C11.4476 19.7752 11.6934 19.61 11.9464 19.6592C12.1383 19.6965 12.2797 19.847 12.3153 20.0282C12.3664 20.288 12.5039 20.514 12.694 20.6763C12.8806 20.8354 13.1187 20.9354 13.3767 20.9481C13.6343 20.9354 13.8724 20.8357 14.0591 20.6763C14.2494 20.5142 14.3869 20.2883 14.4377 20.0282C14.4869 19.7752 14.7327 19.61 14.9856 19.6592C15.1776 19.6965 15.319 19.847 15.3546 20.0282C15.4057 20.288 15.543 20.514 15.7335 20.6763C15.9202 20.8357 16.1583 20.9354 16.4159 20.9481C16.6739 20.9354 16.9119 20.8354 17.0986 20.6763C17.2886 20.514 17.4262 20.288 17.4773 20.0282C17.5264 19.7752 17.7722 19.61 18.0252 19.6592C18.2171 19.6965 18.3585 19.847 18.3942 20.0282C18.445 20.2883 18.5825 20.5142 18.7728 20.6763C18.9595 20.8357 19.1976 20.9354 19.4552 20.9481C19.7132 20.9354 19.9512 20.8354 20.1379 20.6763C20.3279 20.514 20.4655 20.288 20.5166 20.0282C20.5657 19.7752 20.8115 19.61 21.0645 19.6592C21.2564 19.6965 21.3978 19.847 21.4335 20.0282C21.4845 20.288 21.6218 20.514 21.8124 20.6763C21.9991 20.8357 22.2371 20.9354 22.4948 20.9481C22.7527 20.9354 22.9908 20.8354 23.1775 20.6763C23.3675 20.514 23.505 20.288 23.5561 20.0282C23.6053 19.7752 23.8511 19.61 24.104 19.6592C24.296 19.6965 24.4374 19.847 24.473 20.0282C24.5238 20.2883 24.6614 20.5142 24.8517 20.6763C25.0422 20.839 25.2866 20.9395 25.5506 20.9489C25.8078 20.958 26.0088 21.174 25.9997 21.4311C25.9906 21.6882 25.7746 21.8893 25.5175 21.8802C25.0359 21.8628 24.5915 21.6805 24.2452 21.385C24.1626 21.3146 24.0853 21.2375 24.0146 21.1547C23.9436 21.2375 23.8665 21.3146 23.784 21.385C23.4387 21.6794 22.996 21.8614 22.5163 21.8799L22.4782 21.8802C21.9966 21.8628 21.5522 21.6805 21.2059 21.385C21.123 21.3143 21.046 21.2373 20.975 21.1544C20.9043 21.2373 20.827 21.3143 20.7444 21.385C20.3992 21.6794 19.9565 21.8614 19.4768 21.8799L19.4387 21.8802C18.957 21.8628 18.5126 21.6805 18.1663 21.385C18.0837 21.3146 18.0064 21.2375 17.9357 21.1547C17.8647 21.2375 17.7877 21.3146 17.7051 21.385C17.3599 21.6794 16.9172 21.8614 16.4375 21.8799L16.3994 21.8802C15.9177 21.8628 15.4734 21.6805 15.127 21.385C15.0442 21.3146 14.9671 21.2375 14.8962 21.1547C14.8255 21.2375 14.7481 21.3146 14.6656 21.385C14.3203 21.6794 13.8779 21.8614 13.3982 21.8799L13.3601 21.8802C12.8784 21.8628 12.4338 21.6805 12.0875 21.385C12.0049 21.3146 11.9278 21.2375 11.8569 21.1547C11.7862 21.2375 11.7088 21.3146 11.6263 21.385C11.2811 21.6794 10.8386 21.8614 10.3589 21.8799L10.3208 21.8802C9.83915 21.8628 9.39451 21.6805 9.04819 21.385C8.96562 21.3146 8.88829 21.2375 8.81759 21.1547C8.74661 21.2375 8.66956 21.3146 8.58698 21.385C8.24066 21.6805 7.79602 21.8628 7.31438 21.8802Z" fill="#FFD03A"/>
</svg>
