<svg width="18" height="18" viewBox="0 0 18 18" fill="none" xmlns="http://www.w3.org/2000/svg">
<path d="M9.92946 8.99995C9.92946 9.37792 9.70165 9.7192 9.35185 9.86423C9.00288 10.0084 8.60018 9.92822 8.33312 9.66117C8.06606 9.39412 7.98588 8.99141 8.13006 8.64244C8.2751 8.29262 8.61639 8.06483 8.99434 8.06483C9.51053 8.06569 9.92861 8.48378 9.92946 8.99995ZM1.01774 10.9794C1.23274 10.9495 1.42727 10.8352 1.55697 10.6611C1.68666 10.4879 1.74297 10.2704 1.71396 10.0554C1.41619 8.00343 1.99893 5.9207 3.31799 4.32012C4.63704 2.71952 6.57047 1.7502 8.64195 1.65038C10.7135 1.55056 12.7314 2.33039 14.1981 3.79618L14.257 3.85505L14.1298 3.83883V3.83969C13.8022 3.79788 13.4814 3.95828 13.3176 4.24497C13.1538 4.53165 13.1785 4.88913 13.3807 5.1502C13.5147 5.32084 13.7101 5.43262 13.9251 5.45992L16.0094 5.72355H16.0086C16.4522 5.7773 16.8567 5.46674 16.919 5.02479L17.2031 2.94299C17.2338 2.72884 17.1783 2.51041 17.0478 2.33723C16.9173 2.16317 16.7236 2.04885 16.5086 2.01899C16.2936 1.98827 16.076 2.04544 15.9028 2.17598C15.7296 2.30652 15.6153 2.50105 15.5854 2.71606L15.5649 2.8594C15.4924 2.78005 15.4216 2.70668 15.3508 2.63159H15.3516C13.5582 0.839875 11.0916 -0.112193 8.55924 0.0105585C6.02689 0.132565 3.66359 1.31852 2.05187 3.27571C0.44018 5.23209 -0.271451 7.77886 0.0937893 10.2874C0.15266 10.6892 0.495637 10.987 0.901766 10.9887C0.940159 10.9887 0.979342 10.9862 1.01774 10.9794ZM14.1655 8.99995C14.1655 10.3719 13.6211 11.6867 12.6511 12.6567C11.681 13.6268 10.3662 14.1712 8.99428 14.1712C7.62238 14.1712 6.3075 13.6268 5.3375 12.6567C4.36741 11.6866 3.82307 10.3718 3.82307 8.99995C3.82307 7.62806 4.36741 6.31317 5.3375 5.34317C6.30759 4.37309 7.62238 3.82874 8.99428 3.82874C10.3654 3.83045 11.6793 4.37564 12.6493 5.34488C13.6185 6.31496 14.1638 7.62893 14.1655 8.99995ZM10.002 11.6142C9.98918 11.5707 9.95932 11.534 9.91921 11.5135C9.87826 11.4922 9.83133 11.4888 9.78867 11.5024C9.53186 11.5843 9.26396 11.6262 8.99435 11.6253C7.86641 11.6279 6.86306 10.9086 6.50218 9.8404C6.14129 8.77135 6.50304 7.59134 7.40146 6.90878C7.44327 6.88403 7.47228 6.84308 7.48081 6.7953C7.49019 6.74752 7.47825 6.69889 7.44924 6.66049C7.42023 6.62125 7.37586 6.59736 7.32808 6.59309C7.2803 6.58883 7.23253 6.60504 7.19669 6.63831C6.17881 7.40619 5.76757 8.73889 6.17541 9.94693C6.58324 11.1542 7.7197 11.9647 8.99433 11.9579C9.29806 11.9571 9.60094 11.911 9.89105 11.8188C9.97722 11.7915 10.0259 11.7012 10.002 11.6142ZM11.8218 10.668H11.8227C11.8082 10.4829 11.7195 10.3122 11.577 10.1945L10.2776 9.10239C10.2801 9.06826 10.2801 9.03413 10.2776 9C10.2767 8.66043 10.141 8.33535 9.90043 8.09562C9.65982 7.85586 9.3339 7.72277 8.99434 7.72363C8.87404 7.72363 8.75458 7.74154 8.63941 7.77567V6.24674C8.63173 6.14862 8.66501 6.0505 8.73241 5.97797C8.79981 5.90545 8.89452 5.86364 8.99349 5.86364C9.09245 5.86364 9.18716 5.90545 9.25371 5.97797C9.32111 6.05049 9.35524 6.14861 9.34671 6.24674V6.95234C9.34671 7.04619 9.4235 7.12298 9.51735 7.12298C9.61205 7.12298 9.68799 7.04619 9.68799 6.95234V6.24674C9.69908 6.05562 9.63083 5.86876 9.49943 5.72884C9.36804 5.58977 9.1846 5.51128 8.99349 5.51128C8.80152 5.51128 8.61894 5.58977 8.48669 5.72884C8.3553 5.86877 8.28704 6.05562 8.29813 6.24674V7.93094C7.95685 8.15192 7.74099 8.52306 7.71797 8.93004C7.69493 9.33617 7.86728 9.7295 8.18211 9.98802C8.49608 10.2465 8.91501 10.3395 9.30919 10.238C9.70423 10.1373 10.0267 9.85321 10.1778 9.47523L11.3475 10.4556L11.3467 10.4564C11.4183 10.517 11.4635 10.604 11.4721 10.697C11.4815 10.7909 11.4516 10.8839 11.3902 10.9547C11.263 11.1006 11.0438 11.1202 10.8919 10.9999L10.2665 10.4718C10.1931 10.4129 10.0873 10.4223 10.025 10.4923C9.99604 10.5272 9.98153 10.5725 9.98494 10.6177C9.98921 10.6629 10.0105 10.7047 10.0455 10.7337L10.6735 11.2619C10.9678 11.5067 11.4047 11.4683 11.6521 11.1748C11.7716 11.034 11.8287 10.8515 11.8108 10.668L11.8218 10.668ZM11.9524 9.00001C11.9532 8.14084 11.5804 7.32347 10.9302 6.76122C10.8961 6.73135 10.8518 6.716 10.8065 6.71941C10.7613 6.72197 10.7195 6.7433 10.6896 6.77742C10.6282 6.84824 10.635 6.95574 10.705 7.01804C11.2818 7.51544 11.6145 8.23896 11.6154 9.00002C11.6154 9.128 11.606 9.25598 11.5881 9.38225C11.5744 9.47525 11.6384 9.56142 11.7314 9.57593H11.7562C11.8415 9.57678 11.9131 9.51364 11.9251 9.43003C11.9439 9.28754 11.9532 9.14421 11.9524 9.00001ZM17.8864 7.71254H17.8855C17.8557 7.50095 17.7448 7.30982 17.5767 7.18014C17.2158 6.91481 16.7098 6.98732 16.4385 7.34396C16.3071 7.5146 16.2483 7.73045 16.2747 7.94461C16.5725 9.99655 15.9897 12.0793 14.6707 13.6799C13.3516 15.2805 11.4182 16.2498 9.34671 16.3496C7.27513 16.4494 5.25724 15.6696 3.79056 14.2038C3.77008 14.1859 3.75216 14.1654 3.73169 14.1449L3.85881 14.1611V14.1603C4.07723 14.1944 4.29991 14.139 4.47653 14.0067C4.65314 13.8736 4.76916 13.6748 4.79647 13.4556C4.82462 13.2363 4.76234 13.0153 4.62412 12.843C4.4859 12.6706 4.28369 12.5614 4.06357 12.5401L1.98005 12.2764C1.53724 12.2235 1.13282 12.5341 1.06967 12.9752L0.785554 15.057C0.75484 15.2712 0.810297 15.4896 0.940837 15.6628C1.07138 15.8368 1.26506 15.9512 1.48007 15.981C1.69508 16.0117 1.91265 15.9546 2.08583 15.824C2.25903 15.6935 2.37336 15.4989 2.40322 15.2839L2.4237 15.1406C2.49622 15.2199 2.56703 15.2933 2.63785 15.3684H2.637C4.43042 17.1601 6.89705 18.1122 9.4294 17.9894C11.9618 17.8674 14.325 16.6815 15.9368 14.7243C17.5485 12.7679 18.2601 10.2211 17.8948 7.7126L17.8864 7.71254Z" fill="white"/>
</svg>
